<?xml version="1.0" standalone="no"?>
<!DOCTYPE svg PUBLIC "-//W3C//DTD SVG 20010904//EN"
 "http://www.w3.org/TR/2001/REC-SVG-20010904/DTD/svg10.dtd">
<svg version="1.0" xmlns="http://www.w3.org/2000/svg"
 width="677.000000pt" height="677.000000pt" viewBox="0 0 677.000000 677.000000"
 preserveAspectRatio="xMidYMid meet">
<metadata>
Created by potrace 1.14, written by Peter Selinger 2001-2017
</metadata>
<g transform="translate(0.000000,677.000000) scale(0.100000,-0.100000)"
fill="#000000" stroke="none">
<path d="M2695 6550 c-4 -6 -11 -8 -16 -5 -5 4 -21 -1 -36 -9 -16 -9 -44 -22
-63 -30 -19 -8 -46 -21 -60 -29 -14 -8 -42 -23 -64 -33 -21 -11 -57 -38 -81
-61 -23 -24 -44 -41 -47 -38 -7 8 -48 -80 -48 -104 0 -11 -4 -21 -8 -21 -5 0
-15 -19 -21 -42 -20 -66 -43 -118 -53 -118 -5 0 -11 14 -15 32 -6 32 -6 32
-16 7 l-10 -24 -5 25 c-6 37 -19 45 -32 20 -19 -36 -29 -77 -20 -86 14 -15 15
-81 1 -98 -20 -24 -38 -20 -58 14 -9 17 -21 30 -25 30 -4 0 -11 18 -14 41 -5
29 -11 39 -21 35 -8 -3 -11 -1 -8 4 3 5 -3 26 -13 47 -23 46 -29 135 -10 154
16 17 40 70 34 76 -11 11 -44 -24 -65 -68 -12 -27 -28 -49 -35 -49 -12 0 -32
-69 -27 -92 0 -5 -4 -8 -9 -8 -6 0 -10 5 -10 10 0 6 -8 10 -18 10 -28 0 -17
-54 14 -71 13 -7 27 -10 30 -7 8 9 41 -27 46 -49 2 -10 9 -17 15 -16 6 1 14
-17 17 -40 4 -23 13 -55 21 -71 8 -16 15 -36 15 -46 0 -10 5 -20 10 -22 11 -3
-16 -48 -29 -48 -4 0 -7 16 -7 36 0 23 -6 41 -17 49 -9 7 -17 18 -17 24 0 19
-42 50 -67 51 -12 0 -25 5 -28 10 -3 6 -14 10 -25 10 -14 0 -17 -5 -12 -22 3
-13 8 -25 12 -28 9 -6 50 -90 50 -101 0 -4 -18 9 -40 28 -22 20 -40 42 -40 50
0 7 -5 12 -12 10 -7 -1 -17 8 -23 21 -5 12 -13 22 -18 22 -5 0 -5 9 -2 20 3
11 2 20 -3 20 -6 0 -14 -11 -19 -25 l-8 -25 -27 25 c-16 15 -25 31 -22 40 4 9
-7 30 -25 50 -17 20 -31 47 -31 60 0 22 -5 25 -32 25 -18 0 -42 -7 -52 -15
-11 -8 -32 -15 -48 -15 -32 0 -32 -4 -18 -81 11 -57 60 -122 85 -112 8 2 18
-5 25 -16 6 -12 17 -21 26 -21 24 0 114 -51 108 -61 -3 -5 -2 -9 3 -8 31 5 35
-3 13 -26 -25 -26 -24 -27 27 -27 24 0 34 -5 39 -20 4 -14 9 -17 14 -9 10 18
33 10 52 -19 13 -18 14 -26 5 -32 -9 -6 -9 -8 1 -8 7 0 16 10 21 22 6 18 10
14 21 -28 7 -27 28 -81 46 -120 26 -55 34 -84 34 -128 0 -51 -12 -74 -23 -43
-2 6 -2 2 0 -10 7 -44 -79 -100 -112 -73 -20 16 -59 8 -63 -12 -3 -14 3 -18
23 -18 17 0 25 -5 22 -12 -2 -7 8 -21 22 -31 l26 -19 -35 6 c-42 7 -65 -5 -57
-29 4 -9 11 -14 16 -11 5 3 11 -1 14 -8 7 -19 -13 -26 -36 -14 -9 5 -23 6 -29
2 -7 -5 -8 -3 -2 7 15 24 15 49 -1 49 -8 0 -15 7 -15 15 0 8 -4 15 -10 15 -5
0 -10 -9 -10 -21 0 -11 -10 -29 -22 -39 -21 -17 -21 -19 -5 -25 9 -4 17 -13
17 -20 0 -15 -28 -28 -42 -19 -11 7 -48 -24 -48 -41 0 -7 -8 -15 -19 -18 -14
-3 -17 0 -14 13 3 10 0 21 -6 25 -6 3 -11 3 -10 -2 5 -27 -2 -31 -38 -22 -21
4 -55 6 -77 2 -24 -4 -41 -2 -45 6 -9 14 -41 4 -41 -13 1 -19 28 -48 39 -42 5
4 14 -1 19 -10 8 -15 12 -15 39 -1 27 14 39 15 95 5 9 -2 17 1 17 6 -1 13 20
23 68 31 31 5 43 3 50 -8 13 -22 50 -30 57 -12 8 22 24 18 28 -7 2 -13 9 -22
16 -20 6 1 12 -4 12 -12 0 -16 -50 -9 -51 8 0 6 -4 2 -8 -9 -6 -15 -3 -21 13
-27 19 -5 18 -6 -6 -7 -17 -1 -29 -8 -33 -21 -3 -11 -22 -27 -41 -36 -19 -9
-34 -23 -34 -30 0 -8 -9 -14 -19 -14 -11 0 -23 -4 -26 -10 -3 -5 -19 -10 -35
-10 -17 0 -34 -7 -40 -17 -11 -17 -11 -17 -6 0 4 12 0 17 -15 17 -17 0 -18 -3
-9 -21 10 -17 5 -26 -34 -64 -45 -42 -57 -65 -36 -65 18 0 64 27 84 49 22 24
38 26 66 9 14 -9 23 -9 30 -2 8 8 21 8 45 0 39 -12 42 -18 20 -36 -8 -7 -15
-20 -15 -29 0 -13 4 -12 18 5 16 20 82 29 82 12 0 -5 0 -12 0 -17 0 -5 -15
-12 -34 -15 -19 -4 -40 -13 -47 -22 -22 -27 -49 -37 -65 -23 -10 8 -18 8 -26
1 -13 -11 -18 -12 -43 -12 -8 0 -27 -13 -41 -29 -15 -17 -38 -33 -53 -36 -19
-4 -31 -16 -39 -39 -15 -40 -16 -96 -2 -96 6 0 10 8 10 18 0 26 11 34 28 19
13 -10 14 -8 8 11 -6 18 1 31 37 66 52 50 87 60 159 45 63 -14 73 -23 81 -74
4 -22 10 -53 13 -69 5 -21 4 -27 -5 -22 -6 4 -11 2 -11 -4 0 -6 -6 -10 -12 -8
-24 4 -56 -13 -61 -32 -3 -13 -14 -20 -29 -20 -18 0 -20 -2 -8 -10 9 -5 19 -5
25 0 7 6 20 4 33 -6 12 -8 22 -11 22 -5 0 14 39 9 44 -6 8 -19 18 -16 48 12
20 19 29 21 37 12 7 -10 4 -20 -14 -39 -13 -14 -21 -28 -18 -31 9 -9 53 24 53
39 0 8 11 14 26 14 14 0 37 10 50 23 25 23 33 53 12 41 -10 -5 -10 -4 -1 6 8
9 9 19 3 31 -8 13 -21 17 -58 16 -27 -1 -56 -8 -64 -15 -13 -10 -16 -9 -20 5
-7 25 4 48 22 49 8 1 27 5 43 9 22 6 27 4 28 -11 0 -14 2 -15 6 -4 3 8 24 33
47 54 30 29 40 45 37 64 -2 19 1 23 12 19 23 -9 29 32 10 64 -14 23 -15 33 -5
54 7 15 9 31 6 37 -8 13 -121 3 -139 -12 -7 -6 -33 -11 -59 -13 -56 -3 -64 20
-14 42 27 12 29 15 15 26 -18 13 -23 35 -8 35 5 0 25 -7 44 -15 46 -19 93 -19
101 0 3 8 12 12 19 9 8 -3 17 2 20 10 5 13 12 14 32 6 34 -13 35 -13 35 5 0 8
7 15 15 15 8 0 15 6 15 13 0 8 9 24 20 37 22 25 18 36 -28 75 -22 19 -23 22
-8 34 9 7 16 10 16 5 0 -4 9 2 21 15 13 14 27 20 39 16 19 -6 34 9 35 35 0 10
13 16 42 18 28 2 49 11 67 29 20 20 32 24 56 20 19 -4 30 -2 30 5 0 6 3 8 7 5
3 -4 12 -2 20 4 10 9 17 8 28 -1 11 -9 15 -10 15 -1 0 7 8 10 18 7 10 -4 33 1
50 10 18 8 41 13 51 9 14 -4 23 0 31 15 8 15 15 18 28 11 9 -4 23 -6 30 -4 6
3 12 -3 12 -12 0 -13 6 -15 30 -10 20 4 30 3 30 -5 0 -6 5 -8 10 -5 6 3 10 16
10 28 1 22 1 22 16 2 13 -17 16 -18 24 -5 7 12 12 12 22 2 13 -13 42 -17 35
-4 -3 4 -1 16 3 27 6 18 8 18 33 -7 15 -15 29 -23 32 -18 3 4 24 7 47 6 32 -2
43 -7 49 -24 6 -16 17 -22 38 -22 16 0 33 -4 36 -10 3 -5 26 -10 51 -10 30 0
46 -5 50 -15 4 -8 13 -15 21 -15 8 0 11 -5 7 -12 -4 -7 -4 -10 1 -6 4 4 15 3
25 -2 12 -6 24 -4 40 7 17 12 25 13 28 5 8 -26 35 -42 65 -41 18 2 46 -5 64
-14 18 -9 41 -17 52 -17 11 0 23 -4 26 -10 3 -5 16 -10 28 -10 12 0 35 -7 51
-15 26 -14 37 -14 108 0 44 8 85 18 91 22 6 4 23 6 38 5 15 -1 32 4 38 12 6 8
21 12 31 9 11 -3 36 2 55 11 25 12 70 18 164 20 71 2 134 7 139 10 6 4 13 3
16 -2 8 -14 112 3 130 21 10 9 26 22 37 27 15 8 19 7 19 -5 0 -8 -8 -15 -17
-15 -13 0 -14 -3 -5 -12 9 -9 16 -7 32 7 11 10 20 25 20 34 1 9 7 4 17 -13 14
-27 17 -28 28 -12 8 10 22 19 32 20 10 2 23 12 29 24 6 12 14 19 17 15 4 -3 7
-1 7 5 0 18 -38 52 -58 52 -10 0 -23 -5 -29 -11 -9 -9 -14 -5 -19 17 -7 27
-20 44 -36 44 -4 0 -5 -6 -2 -13 3 -8 -3 -20 -12 -28 -15 -12 -16 -12 -10 8 8
25 -5 54 -40 91 -12 14 -20 31 -17 37 6 16 -13 29 -22 15 -4 -6 -11 -8 -16 -5
-13 9 -11 43 4 48 6 2 8 8 4 13 -5 5 -17 -1 -28 -14 -17 -21 -20 -22 -34 -9
-17 18 -21 87 -4 87 8 0 10 13 7 38 -4 24 0 45 8 57 8 10 14 27 14 38 0 10 5
15 10 12 6 -3 10 4 10 17 0 30 32 121 49 142 33 40 54 1 31 -58 -5 -15 -6 -35
-1 -48 4 -13 5 -35 0 -50 -5 -19 -3 -38 8 -58 11 -24 12 -34 3 -45 -13 -16 -6
-35 14 -35 9 0 12 9 8 25 -3 18 0 25 11 25 9 0 19 9 22 20 4 13 15 20 30 20
28 0 45 41 26 64 -8 10 -6 17 9 31 11 10 20 31 20 46 0 22 6 30 25 35 14 3 31
1 39 -5 20 -17 -7 -71 -35 -71 -16 0 -19 -5 -14 -20 3 -10 2 -28 -4 -38 -6
-11 -8 -22 -5 -25 10 -9 34 4 34 18 0 8 14 28 31 45 29 28 32 38 34 98 1 53
-2 71 -17 88 -18 20 -16 54 3 54 5 0 9 14 9 30 0 17 4 30 9 30 5 0 11 10 14
23 4 22 4 22 15 -3 6 -14 11 -19 11 -11 1 7 12 26 26 42 13 16 22 36 19 44 -4
9 0 15 10 15 9 0 16 4 16 9 0 15 55 32 85 27 15 -3 36 -1 46 5 13 6 19 6 19 0
0 -13 49 -62 79 -79 22 -13 48 -19 124 -29 41 -6 41 -5 27 31 -10 27 -65 56
-106 56 -17 0 -24 6 -24 19 0 10 -8 21 -17 25 -10 3 -37 16 -59 29 -23 13 -50
27 -60 31 -22 8 -48 23 -92 54 -35 26 -48 30 -207 74 -60 17 -132 31 -160 31
-37 0 -53 4 -63 18 -12 17 -57 33 -109 38 -7 0 -13 8 -13 16 0 10 10 15 30 15
20 0 30 5 30 15 0 15 -16 20 -56 16 -28 -2 -74 16 -74 28 0 5 9 13 20 16 11 3
20 11 20 16 0 12 -77 12 -82 -1 -3 -9 -28 -14 -146 -25 -60 -6 -153 -42 -175
-68 -10 -12 -16 -16 -12 -9 3 6 2 12 -4 12 -6 0 -15 -18 -21 -40 -6 -22 -15
-40 -21 -40 -5 0 -35 -25 -65 -55 -31 -30 -64 -55 -73 -55 -10 0 -32 -16 -50
-35 -18 -20 -36 -33 -42 -30 -5 4 -3 13 6 21 8 9 15 19 15 24 0 5 12 21 27 35
22 19 24 25 11 25 -9 0 -20 -5 -23 -10 -4 -6 -11 -8 -16 -4 -5 3 -16 0 -24 -6
-15 -12 -35 -6 -35 11 0 17 65 109 78 109 6 0 12 4 12 8 0 19 -14 20 -39 3
-14 -10 -38 -21 -53 -25 -14 -3 -39 -20 -55 -38 -15 -17 -45 -49 -65 -71 -21
-22 -38 -42 -38 -46 0 -4 -21 -26 -46 -50 l-47 -44 7 39 c4 22 13 53 21 69 7
17 16 37 19 47 2 9 18 19 33 22 17 4 36 19 46 36 18 30 8 50 -13 25 -28 -33
-28 -12 0 42 34 66 34 63 19 63 -7 0 -25 -13 -41 -30 -15 -16 -32 -30 -37 -30
-10 0 -67 -90 -63 -101 1 -5 -4 -9 -10 -9 -16 0 -88 -81 -88 -98 0 -7 -11 -23
-25 -36 -14 -13 -25 -28 -25 -34 0 -5 -8 -8 -18 -6 -12 4 -21 -4 -31 -28 l-14
-33 -4 32 c-3 23 3 43 21 70 14 21 26 51 26 68 l0 30 -27 -30 c-16 -16 -27
-33 -25 -37 1 -5 -2 -8 -7 -8 -5 0 -14 -14 -21 -31 -9 -21 -19 -29 -33 -27
-27 4 -33 24 -9 30 13 4 21 17 25 39 7 45 -3 52 -33 27 -15 -13 -20 -23 -13
-25 8 -3 4 -13 -10 -29 -25 -29 -66 -128 -66 -162 -1 -13 -5 -20 -11 -17 -16
10 4 157 26 192 8 12 14 30 14 39 0 9 18 44 40 77 37 54 39 62 25 76 -13 14
-15 12 -15 -19 0 -18 -3 -30 -7 -27 -9 9 -43 -22 -43 -40 0 -7 -4 -13 -9 -13
-5 0 -14 -15 -21 -32 -7 -18 -18 -47 -25 -63 -8 -17 -13 -39 -12 -49 1 -10 -3
-21 -9 -23 -7 -2 -4 26 6 79 16 76 51 159 87 199 22 26 -8 31 -50 9 -31 -17
-36 -17 -41 -4 -7 18 11 38 41 48 12 4 24 13 27 21 7 19 -20 20 -75 3 -52 -17
-202 -158 -193 -182 3 -9 1 -16 -6 -16 -6 0 -9 4 -5 9 3 5 2 12 -3 15 -4 2
-15 -10 -23 -27 -60 -123 -69 -149 -78 -222 -5 -43 -7 -83 -5 -87 3 -4 1 -8
-5 -8 -12 0 -33 63 -37 114 -8 108 -4 154 16 201 21 49 98 154 113 155 5 0 27
13 50 29 23 16 63 37 89 47 26 11 50 25 53 32 5 14 -21 16 -30 2z m1355 -90
c-8 -5 -17 -7 -19 -4 -3 3 1 9 9 14 8 5 17 7 19 4 3 -3 -1 -9 -9 -14z m-830
-158 c0 -2 -9 -11 -20 -20 -10 -10 -40 -57 -66 -107 -53 -103 -61 -115 -80
-115 -28 0 -12 45 39 111 15 20 27 43 27 52 0 10 4 17 9 17 5 0 19 15 31 34
13 22 28 34 40 33 11 -1 20 -3 20 -5z m230 -22 c0 -11 -7 -20 -15 -20 -13 0
-13 3 -3 20 7 11 14 20 15 20 2 0 3 -9 3 -20z m-53 -62 c-3 -8 -6 -5 -6 6 -1
11 2 17 5 13 3 -3 4 -12 1 -19z m38 -8 c-3 -5 -10 -10 -16 -10 -5 0 -9 5 -9
10 0 6 7 10 16 10 8 0 12 -4 9 -10z m55 -16 c0 -10 -28 -34 -39 -34 -14 0 -14
13 1 28 12 12 38 17 38 6z m1130 -16 c0 -5 -4 -8 -9 -8 -5 0 -11 -10 -13 -22
-4 -33 -23 -28 -26 7 -3 26 0 30 23 30 14 0 25 -3 25 -7z m100 -8 c12 -8 9
-10 -12 -10 -16 0 -28 5 -28 10 0 13 20 13 40 0z m-1521 -46 c-7 -8 -6 -14 3
-17 9 -3 6 -11 -11 -26 -13 -12 -25 -32 -27 -45 -1 -13 -12 -42 -23 -64 -11
-22 -23 -59 -27 -81 -4 -23 -11 -44 -15 -47 -5 -3 -6 -16 -3 -30 4 -14 2 -24
-4 -24 -15 0 -26 40 -14 52 6 6 7 21 1 40 -6 22 -4 39 6 59 8 15 15 36 15 45
0 31 35 119 53 132 9 7 17 20 17 28 0 12 4 12 19 2 14 -8 17 -16 10 -24z
m1035 -22 c-13 -46 -14 -76 -3 -109 8 -26 6 -39 -10 -72 -29 -56 -9 -62 40
-12 22 22 48 41 57 43 9 2 21 12 27 23 14 27 85 99 91 93 2 -3 -2 -11 -11 -18
-17 -14 -20 -40 -5 -40 6 0 10 -7 10 -15 0 -8 -4 -15 -10 -15 -5 0 -10 -4 -10
-9 0 -5 -34 -42 -76 -82 -98 -95 -134 -140 -136 -174 -1 -14 -8 -31 -15 -37
-7 -6 -13 -16 -13 -23 0 -7 -11 -20 -25 -29 -14 -9 -25 -23 -25 -30 0 -8 -4
-16 -9 -18 -5 -1 -13 -15 -16 -31 -6 -22 -4 -26 9 -21 11 4 16 1 16 -10 0 -18
-12 -20 -38 -7 -9 5 -25 12 -34 15 -16 5 -17 14 -11 81 5 67 4 75 -11 75 -12
0 -17 -7 -16 -22 4 -43 0 -69 -9 -64 -12 8 -32 -18 -34 -43 -1 -12 -4 -21 -8
-21 -4 0 -5 -9 -2 -20 3 -11 2 -27 -1 -37 -6 -14 -9 -13 -21 11 -17 32 -10
109 11 127 8 6 14 20 14 31 0 18 -2 19 -16 7 -15 -12 -16 -11 -10 9 4 12 3 22
-2 22 -5 0 -7 13 -4 29 2 16 -1 32 -7 35 -6 4 -10 24 -10 44 1 22 3 28 6 15 2
-12 11 -27 19 -33 11 -10 14 -9 14 7 0 10 -5 24 -12 31 -8 8 -8 15 2 27 14 17
31 95 21 95 -10 0 -34 -43 -42 -75 -7 -30 -7 -29 -8 8 -1 20 4 37 10 37 5 0 9
8 8 18 -4 40 2 63 14 59 6 -2 11 -12 9 -22 -2 -9 1 -14 6 -11 6 3 10 21 9 39
-1 24 7 42 27 63 l28 29 -7 -35 c-7 -35 -7 -35 13 -16 12 10 24 27 27 37 4 11
11 17 16 14 5 -4 9 0 9 8 0 8 7 20 15 27 12 10 16 5 27 -34 12 -44 28 -62 28
-31 0 8 4 15 9 15 5 0 11 11 15 23 3 13 15 36 27 51 20 25 23 26 31 11 6 -9 6
-28 2 -43z m-1474 -1 c0 -5 -7 -11 -15 -15 -9 -3 -15 0 -15 9 0 8 7 15 15 15
8 0 15 -4 15 -9z m160 -1 c0 -5 -5 -10 -11 -10 -5 0 -7 5 -4 10 3 6 8 10 11
10 2 0 4 -4 4 -10z m606 -17 c-10 -10 -19 5 -10 18 6 11 8 11 12 0 2 -7 1 -15
-2 -18z m-552 -44 c-2 -4 -6 -24 -9 -44 -2 -21 -6 -45 -9 -54 -2 -9 -7 -29
-10 -44 -4 -15 -11 -25 -16 -22 -10 6 -5 69 10 120 4 17 11 44 15 60 7 27 8
28 15 10 4 -11 6 -23 4 -26z m-807 -9 c3 -17 12 -30 20 -30 12 0 13 -3 3 -15
-6 -8 -9 -18 -6 -24 3 -5 3 -17 0 -26 -5 -13 -9 -14 -15 -4 -6 11 -9 10 -15
-4 -3 -9 -9 -17 -13 -17 -5 0 -6 30 -2 128 1 32 20 27 28 -8z m2303 -5 c0 -8
-7 -15 -16 -15 -14 0 -14 3 -4 15 7 8 14 15 16 15 2 0 4 -7 4 -15z m79 -103
c-27 -68 -35 -78 -42 -59 -3 8 1 27 9 42 8 15 14 37 14 48 0 11 8 28 18 37 27
26 27 -1 1 -68z m-2155 33 c-8 -26 -11 -28 -23 -20 -6 3 -11 19 -11 36 0 27 2
28 20 17 14 -9 18 -19 14 -33z m-793 -1 c10 -13 10 -17 -1 -24 -19 -12 -40 -1
-40 21 0 23 23 25 41 3z m89 -70 c0 -8 -4 -12 -10 -9 -5 3 -10 10 -10 16 0 5
5 9 10 9 6 0 10 -7 10 -16z m2704 -20 c9 -23 7 -34 -5 -34 -5 0 -8 4 -4 9 3 5
1 12 -5 16 -12 8 -13 25 -1 25 5 0 12 -7 15 -16z m-2009 -4 c3 -5 1 -10 -4
-10 -6 0 -11 5 -11 10 0 6 2 10 4 10 3 0 8 -4 11 -10z m-191 -57 c20 -59 33
-223 17 -223 -6 0 -11 5 -11 11 0 5 -5 7 -12 3 -9 -6 -9 -9 0 -12 7 -2 12 -10
12 -18 0 -8 7 -25 15 -38 15 -22 12 -56 -5 -56 -11 0 -40 65 -40 91 0 21 -1
21 -18 6 -24 -22 -38 -21 -51 1 -9 14 -10 13 -11 -11 l0 -28 -31 16 c-30 16
-31 16 -29 -7 4 -41 0 -59 -10 -53 -5 3 -10 37 -10 74 0 69 -11 94 -38 84 -12
-5 -12 0 4 25 28 48 39 42 50 -24 3 -22 8 -43 11 -48 9 -14 23 17 23 52 0 21
4 31 11 26 6 -3 9 -14 6 -23 -2 -10 1 -25 8 -35 16 -21 60 -7 68 23 6 26 -2
34 -21 18 -13 -10 -14 -7 -9 23 4 19 13 40 20 45 7 6 11 27 9 54 -6 83 17 96
42 24z m222 32 c-3 -9 0 -15 9 -15 8 0 15 -4 15 -9 0 -21 -17 -18 -40 7 -18
19 -20 24 -7 19 9 -3 17 -2 17 3 0 6 3 10 6 10 3 0 4 -7 0 -15z m2094 -25 c0
-5 -4 -10 -10 -10 -5 0 -10 5 -10 10 0 6 5 10 10 10 6 0 10 -4 10 -10z m-938
-52 c-9 -9 -12 -7 -12 12 0 19 3 21 12 12 9 -9 9 -15 0 -24z m-1145 -25 c-4
-3 -2 -12 4 -20 9 -10 8 -13 -5 -13 -9 0 -16 6 -16 13 0 14 9 27 18 27 3 0 2
-3 -1 -7z m1463 -75 c0 -44 -15 -67 -32 -50 -9 9 -8 15 7 25 10 8 15 19 11 25
-7 11 0 32 10 32 2 0 4 -15 4 -32z m-1433 -49 c-1 -16 -5 -29 -8 -29 -13 0
-19 33 -9 45 6 8 6 16 -3 25 -10 12 -9 12 5 1 10 -8 16 -24 15 -42z m-47 -41
c0 -20 -4 -26 -14 -22 -18 7 -27 42 -19 73 l6 23 13 -23 c7 -13 13 -36 14 -51z
m437 40 c-3 -8 -6 -5 -6 6 -1 11 2 17 5 13 3 -3 4 -12 1 -19z m-38 -57 l-1
-46 -13 30 c-19 42 -19 76 0 69 11 -4 15 -20 14 -53z m145 -8 c-1 -20 3 -42
10 -49 16 -15 19 -91 5 -100 -10 -6 -37 24 -50 56 -4 8 -2 24 4 35 5 11 9 36
9 57 -1 25 3 38 11 38 8 0 12 -13 11 -37z m144 -51 c2 -51 8 -81 18 -88 15
-12 19 -34 5 -34 -5 0 -14 7 -21 15 -6 8 -17 13 -23 12 -16 -3 -22 82 -8 96 6
6 11 29 11 51 0 69 14 29 18 -52z m1072 18 c0 -17 -17 -37 -24 -29 -2 2 -6 19
-9 37 -6 30 -5 32 13 22 11 -6 20 -19 20 -30z m-440 -22 c0 -5 -4 -8 -10 -8
-5 0 -10 -7 -10 -15 0 -8 -6 -15 -14 -15 -11 0 -15 35 -7 68 2 5 41 -23 41
-30z m481 9 c-10 -9 -11 -8 -5 6 3 10 9 15 12 12 3 -3 0 -11 -7 -18z m-1387
-13 c12 -31 7 -74 -9 -74 -11 0 -15 12 -15 45 0 45 12 60 24 29z m-654 -16 c0
-16 -3 -19 -11 -11 -6 6 -8 16 -5 22 11 17 16 13 16 -11z m877 -35 c-3 -10 -5
-2 -5 17 0 19 2 27 5 18 2 -10 2 -26 0 -35z m-596 -12 c5 -24 3 -34 -8 -38
-22 -9 -31 8 -26 45 7 41 25 37 34 -7z m265 6 c2 -12 0 -35 -3 -51 -5 -27 -6
-28 -16 -10 -15 25 -16 66 -3 80 14 15 19 10 22 -19z m506 -44 c-2 -7 -8 -13
-13 -13 -14 0 -14 64 -1 85 8 12 20 -54 14 -72z m-1192 58 c0 -6 -4 -13 -10
-16 -5 -3 -10 1 -10 9 0 9 5 16 10 16 6 0 10 -4 10 -9z m1765 -20 c-9 -16 -25
-3 -18 15 4 10 9 12 15 6 6 -6 7 -15 3 -21z m-1725 -57 c0 -12 -4 -12 -20 -2
-12 8 -20 23 -20 38 l1 25 19 -24 c11 -13 20 -30 20 -37z m1594 41 c-4 -8 -10
-12 -15 -9 -11 6 -2 24 11 24 5 0 7 -7 4 -15z m556 8 c0 -11 -12 -25 -38 -47
-22 -19 -23 -19 -16 -1 13 33 54 70 54 48z m-1843 -69 c-9 -9 -28 6 -21 18 4
6 10 6 17 -1 6 -6 8 -13 4 -17z m161 -53 c3 -8 -1 -12 -9 -9 -7 2 -15 10 -17
17 -3 8 1 12 9 9 7 -2 15 -10 17 -17z m-97 -43 c0 -7 2 -21 4 -30 2 -9 -6 -25
-16 -34 -19 -17 -20 -17 -18 12 1 16 -2 37 -6 47 -5 13 -2 17 14 17 12 0 21
-6 22 -12z m-551 -44 c0 -18 -20 -18 -55 0 -23 12 -24 15 -8 18 30 6 63 -3 63
-18z m-64 -285 c3 -5 -16 -9 -41 -9 -25 0 -44 4 -41 8 7 11 75 12 82 1z m-133
-184 c-3 -9 -8 -14 -10 -11 -3 3 -2 9 2 15 9 16 15 13 8 -4z m92 -175 c-3 -5
-11 -10 -16 -10 -6 0 -7 5 -4 10 3 6 11 10 16 10 6 0 7 -4 4 -10z m-65 -35 c6
-8 9 -19 5 -25 -10 -17 -25 -11 -25 9 0 11 -6 22 -12 24 -8 4 -7 6 3 6 9 1 22
-6 29 -14z m0 -170 c-7 -9 -15 -13 -19 -10 -3 3 1 10 9 15 21 14 24 12 10 -5z
m115 -35 c4 -6 10 -8 15 -5 5 3 11 1 15 -5 4 -6 -6 -10 -23 -10 -17 0 -32 6
-36 15 -6 17 19 21 29 5z"/>
<path d="M3975 5830 c3 -5 8 -10 11 -10 2 0 4 5 4 10 0 6 -5 10 -11 10 -5 0
-7 -4 -4 -10z"/>
<path d="M4140 5750 c0 -5 5 -10 11 -10 5 0 7 5 4 10 -3 6 -8 10 -11 10 -2 0
-4 -4 -4 -10z"/>
<path d="M4235 6550 c-3 -5 1 -10 9 -10 8 0 18 5 21 10 3 6 -1 10 -9 10 -8 0
-18 -4 -21 -10z"/>
<path d="M3155 6420 c-3 -5 -1 -10 4 -10 6 0 11 5 11 10 0 6 -2 10 -4 10 -3 0
-8 -4 -11 -10z"/>
<path d="M3360 6416 c0 -9 5 -16 10 -16 6 0 10 4 10 9 0 6 -4 13 -10 16 -5 3
-10 -1 -10 -9z"/>
<path d="M3640 6374 c0 -8 5 -12 10 -9 6 4 8 11 5 16 -9 14 -15 11 -15 -7z"/>
<path d="M3590 6331 c0 -5 7 -11 14 -14 10 -4 13 -1 9 9 -6 15 -23 19 -23 5z"/>
<path d="M2950 6310 c0 -5 5 -10 11 -10 5 0 7 5 4 10 -3 6 -8 10 -11 10 -2 0
-4 -4 -4 -10z"/>
<path d="M1786 6201 c-17 -18 -16 -19 3 -26 11 -3 30 -1 42 6 22 11 22 12 4
25 -24 18 -29 18 -49 -5z"/>
<path d="M1695 6128 c-6 -13 -20 -24 -33 -26 -18 -3 -22 -8 -16 -20 4 -9 9
-32 12 -50 5 -40 16 -47 51 -33 19 9 35 9 55 2 22 -9 28 -8 33 5 3 9 1 24 -5
33 -7 9 -16 26 -21 37 -5 12 -17 24 -25 27 -9 4 -16 16 -16 27 0 27 -23 26
-35 -2z"/>
<path d="M4875 6110 c-3 -5 -1 -10 4 -10 6 0 11 5 11 10 0 6 -2 10 -4 10 -3 0
-8 -4 -11 -10z"/>
<path d="M4787 6063 c-4 -3 -7 -13 -7 -20 0 -8 -11 -29 -24 -46 -34 -44 -49
-84 -33 -90 8 -3 5 -12 -9 -28 -23 -26 -64 -105 -64 -124 0 -7 9 -20 20 -30
11 -10 20 -13 20 -7 0 7 5 12 10 12 6 0 10 -16 10 -35 0 -20 5 -35 11 -35 7 0
17 -7 24 -17 11 -14 14 -11 30 25 11 23 22 42 27 42 4 0 8 7 8 15 0 8 6 15 13
15 9 0 12 11 9 35 -2 19 -8 35 -13 35 -5 0 -9 11 -9 25 0 15 6 25 14 25 11 0
15 18 18 73 2 39 0 76 -4 82 -4 5 -8 19 -8 32 0 22 -27 33 -43 16z m13 -93 c0
-5 -4 -10 -10 -10 -5 0 -10 5 -10 10 0 6 5 10 10 10 6 0 10 -4 10 -10z"/>
<path d="M5018 5988 c-3 -7 -3 -19 -1 -25 5 -15 33 -18 33 -4 0 5 3 16 6 25 4
11 0 16 -14 16 -11 0 -22 -6 -24 -12z"/>
<path d="M4970 5970 c0 -11 2 -20 4 -20 2 0 6 9 9 20 3 11 1 20 -4 20 -5 0 -9
-9 -9 -20z"/>
<path d="M1340 5963 c0 -9 -7 -24 -16 -34 -9 -10 -18 -36 -21 -59 -3 -23 -12
-44 -19 -47 -21 -8 4 -27 64 -50 52 -19 68 -41 27 -35 -11 1 -35 2 -53 2 -24
-1 -39 6 -53 25 -28 35 -50 33 -47 -5 1 -16 8 -32 15 -34 7 -3 13 -11 13 -19
0 -7 18 -21 41 -31 34 -15 40 -22 35 -40 -3 -11 -6 -28 -6 -37 0 -12 -11 -16
-47 -17 -81 -1 -83 -1 -83 -21 0 -11 -13 -29 -29 -40 l-28 -20 -12 25 c-6 14
-11 31 -11 39 0 8 -6 15 -13 15 -16 0 -14 -63 3 -114 13 -39 13 -46 -5 -46 -8
0 -15 -4 -15 -10 0 -5 11 -10 25 -10 18 0 25 -5 25 -20 0 -11 -5 -20 -11 -20
-5 0 -7 -4 -4 -10 4 -6 -5 -10 -20 -10 -15 0 -25 5 -24 13 4 31 -2 37 -33 35
-39 -2 -48 -12 -48 -55 0 -48 17 -83 39 -83 14 0 19 5 15 15 -4 9 0 15 10 15
9 0 16 -6 16 -14 0 -19 51 -31 61 -14 5 7 9 19 9 26 0 6 12 13 28 13 15 1 34
2 44 3 26 2 34 17 17 30 -27 19 1 50 40 44 19 -3 32 0 35 9 4 10 11 10 31 1
14 -6 25 -15 25 -19 0 -5 18 -12 39 -15 27 -4 41 -12 44 -25 3 -11 11 -17 19
-14 8 3 27 -8 42 -24 32 -34 55 -32 31 2 -20 29 -19 36 5 30 14 -4 20 0 20 12
0 15 7 17 40 12 38 -5 52 4 29 18 -6 4 -8 13 -5 20 2 7 -9 34 -25 59 -16 26
-29 50 -29 53 0 4 -7 14 -16 24 -15 16 -14 17 5 12 14 -3 21 -1 21 8 -1 19
-25 49 -39 49 -6 0 -11 5 -11 10 0 6 -9 10 -20 10 -16 0 -20 6 -19 33 1 17 3
24 6 15 2 -10 8 -18 13 -18 16 0 21 19 14 55 -5 31 -10 35 -32 33 -19 -2 -29
4 -38 21 -14 28 -7 58 9 42 6 -6 19 -11 29 -11 9 0 22 -8 27 -17 9 -16 10 -15
11 6 0 19 3 21 14 12 11 -9 15 -6 20 15 7 27 -9 57 -28 51 -14 -5 -56 33 -56
50 0 8 -6 13 -12 12 -7 -1 -23 -1 -35 0 -20 1 -21 4 -13 26 7 20 6 25 -5 25
-8 0 -15 -5 -15 -11 0 -5 -11 1 -24 15 -27 30 -36 32 -36 9z m20 -60 c11 -10
20 -24 20 -33 0 -10 -8 -6 -25 12 -36 39 -33 53 5 21z m104 -239 c3 -8 1 -16
-4 -19 -6 -4 -10 -1 -10 4 0 6 -10 11 -22 11 -16 0 -19 3 -10 8 19 13 40 10
46 -4z m-84 -104 c0 -5 -2 -10 -4 -10 -3 0 -8 5 -11 10 -3 6 -1 10 4 10 6 0
11 -4 11 -10z m-137 -132 c15 1 15 -1 3 -14 -19 -18 -52 -18 -59 0 -7 19 3 28
22 20 9 -4 24 -6 34 -6z m292 -2 c12 -12 12 -15 0 -20 -8 -3 -15 -4 -15 -2 0
3 -3 11 -6 20 -8 20 3 21 21 2z m-380 -76 c3 -5 1 -10 -4 -10 -6 0 -11 5 -11
10 0 6 2 10 4 10 3 0 8 -4 11 -10z m-25 -69 c0 -5 -9 -7 -20 -4 -11 3 -20 7
-20 9 0 2 9 4 20 4 11 0 20 -4 20 -9z"/>
<path d="M4841 5834 c0 -11 3 -14 6 -6 3 7 2 16 -1 19 -3 4 -6 -2 -5 -13z"/>
<path d="M4886 5824 c-10 -37 22 -129 38 -113 3 3 -1 26 -9 52 -8 26 -12 54
-9 61 3 8 1 17 -4 20 -6 3 -13 -6 -16 -20z"/>
<path d="M1640 5780 c0 -5 5 -10 11 -10 5 0 7 5 4 10 -3 6 -8 10 -11 10 -2 0
-4 -4 -4 -10z"/>
<path d="M1138 5731 c-10 -10 -18 -29 -18 -44 0 -14 -4 -29 -10 -32 -15 -9
-12 -35 3 -35 14 0 44 21 80 56 21 22 23 56 2 48 -8 -4 -17 1 -21 10 -8 20
-14 19 -36 -3z m12 -50 c0 -6 -4 -13 -10 -16 -5 -3 -10 1 -10 9 0 9 5 16 10
16 6 0 10 -4 10 -9z"/>
<path d="M4666 5685 c-8 -23 -8 -35 3 -35 13 0 23 32 13 42 -6 6 -12 3 -16 -7z"/>
<path d="M1550 5232 c0 -14 8 -26 22 -31 15 -5 23 -17 23 -32 0 -17 6 -24 20
-24 26 0 27 34 1 49 -11 6 -30 22 -42 36 l-23 25 -1 -23z"/>
<path d="M1370 5225 c0 -8 5 -15 12 -15 6 0 20 -7 30 -17 10 -9 21 -14 24 -10
10 9 -5 26 -37 42 -26 14 -29 14 -29 0z"/>
<path d="M4675 5190 c-3 -5 -1 -10 4 -10 6 0 11 5 11 10 0 6 -2 10 -4 10 -3 0
-8 -4 -11 -10z"/>
<path d="M5023 5150 c-13 -15 -23 -35 -23 -44 0 -38 99 23 100 62 0 24 -54 12
-77 -18z m27 -26 c0 -8 -4 -12 -10 -9 -5 3 -10 10 -10 16 0 5 5 9 10 9 6 0 10
-7 10 -16z"/>
<path d="M1350 5140 c0 -5 5 -10 11 -10 5 0 7 5 4 10 -3 6 -8 10 -11 10 -2 0
-4 -4 -4 -10z"/>
<path d="M1040 5130 c0 -5 7 -10 15 -10 8 0 15 5 15 10 0 6 -7 10 -15 10 -8 0
-15 -4 -15 -10z"/>
<path d="M1385 5130 c-3 -5 -1 -10 4 -10 6 0 11 5 11 10 0 6 -2 10 -4 10 -3 0
-8 -4 -11 -10z"/>
<path d="M1131 5028 c-1 -27 3 -38 14 -38 8 0 15 -4 15 -10 0 -5 12 -13 28
-16 15 -4 32 -11 39 -16 7 -5 14 -5 18 2 3 5 14 10 25 10 18 0 36 26 22 33 -4
2 -22 3 -39 1 -30 -1 -38 5 -34 29 1 5 -15 7 -35 5 -29 -2 -39 1 -45 17 -6 15
-8 11 -8 -17z"/>
<path d="M5037 5053 c-14 -13 -6 -23 17 -23 13 0 26 7 30 15 4 11 -1 15 -18
15 -12 0 -26 -3 -29 -7z"/>
<path d="M5050 5010 c0 -5 6 -10 13 -11 6 -1 1 -4 -12 -8 -33 -9 -36 -25 -7
-39 38 -17 64 26 34 56 -15 15 -28 16 -28 2z"/>
<path d="M1560 5000 c0 -5 5 -10 10 -10 6 0 10 5 10 10 0 6 -4 10 -10 10 -5 0
-10 -4 -10 -10z"/>
<path d="M5260 4950 c0 -5 5 -10 11 -10 5 0 7 5 4 10 -3 6 -8 10 -11 10 -2 0
-4 -4 -4 -10z"/>
<path d="M1456 4898 c-10 -38 -7 -46 14 -41 14 4 20 14 20 34 0 35 -25 40 -34
7z"/>
<path d="M1535 4910 c-3 -5 -1 -10 4 -10 6 0 11 5 11 10 0 6 -2 10 -4 10 -3 0
-8 -4 -11 -10z"/>
<path d="M916 4893 c-9 -10 -7 -116 3 -132 11 -18 -15 -75 -29 -66 -6 4 -10 2
-10 -3 0 -16 31 -23 46 -11 10 8 15 5 19 -14 5 -19 12 -24 38 -23 25 1 32 5
32 21 0 11 7 20 15 20 8 0 24 8 34 18 24 21 45 22 52 3 8 -20 44 -28 44 -10 0
8 -5 14 -12 14 -6 0 -3 8 7 20 17 18 17 20 0 26 -9 4 -20 3 -24 -2 -7 -11 -37
-12 -47 -1 -4 4 0 7 9 7 22 0 31 18 17 35 -15 18 -40 8 -40 -16 0 -10 -11 -26
-25 -35 -14 -9 -25 -23 -25 -30 0 -8 -10 -14 -21 -14 -17 0 -20 4 -15 23 3 12
6 25 6 30 0 4 6 7 13 7 19 0 47 33 47 53 0 21 -20 22 -46 2 -25 -19 -64 -19
-64 0 0 9 12 20 26 25 14 6 22 15 19 20 -9 15 -62 40 -69 33z m36 -135 c-7 -7
-12 -8 -12 -2 0 14 12 26 19 19 2 -3 -1 -11 -7 -17z"/>
<path d="M1418 4863 c7 -3 16 -2 19 1 4 3 -2 6 -13 5 -11 0 -14 -3 -6 -6z"/>
<path d="M1350 4759 c0 -5 5 -7 10 -4 6 3 10 8 10 11 0 2 -4 4 -10 4 -5 0 -10
-5 -10 -11z"/>
<path d="M1310 4750 c0 -5 5 -10 10 -10 6 0 10 5 10 10 0 6 -4 10 -10 10 -5 0
-10 -4 -10 -10z"/>
<path d="M1990 4750 c0 -5 5 -10 10 -10 6 0 10 5 10 10 0 6 -4 10 -10 10 -5 0
-10 -4 -10 -10z"/>
<path d="M916 4631 c-4 -7 -5 -15 -2 -18 9 -9 19 4 14 18 -4 11 -6 11 -12 0z"/>
<path d="M852 4588 c-17 -17 -15 -48 2 -48 18 0 32 38 19 51 -5 5 -14 4 -21
-3z"/>
<path d="M890 4589 c0 -5 5 -7 10 -4 6 3 10 8 10 11 0 2 -4 4 -10 4 -5 0 -10
-5 -10 -11z"/>
<path d="M1145 4589 c-10 -15 1 -23 20 -15 9 3 13 10 10 16 -8 13 -22 13 -30
-1z"/>
<path d="M790 4545 c-12 -13 -28 -23 -34 -22 -6 1 -12 -9 -14 -23 -3 -20 -1
-23 9 -12 7 6 19 12 26 12 8 0 25 7 39 16 17 12 21 20 14 29 -5 6 -7 15 -3 18
3 4 2 7 -4 7 -5 0 -20 -11 -33 -25z"/>
<path d="M1495 4487 c-11 -7 -23 -16 -26 -21 -4 -5 -11 -6 -17 -2 -5 3 -15 -1
-23 -10 -10 -12 -9 -18 4 -31 13 -13 19 -14 31 -4 9 7 22 11 30 8 8 -3 24 5
36 18 19 20 21 27 10 40 -15 18 -18 18 -45 2z"/>
<path d="M1040 4435 c0 -8 5 -15 10 -15 6 0 10 7 10 15 0 8 -4 15 -10 15 -5 0
-10 -7 -10 -15z"/>
<path d="M1670 4400 c0 -5 5 -10 10 -10 6 0 10 5 10 10 0 6 -4 10 -10 10 -5 0
-10 -4 -10 -10z"/>
<path d="M990 4364 c0 -8 5 -12 10 -9 6 3 10 10 10 16 0 5 -4 9 -10 9 -5 0
-10 -7 -10 -16z"/>
<path d="M955 4340 c-3 -5 -1 -10 4 -10 6 0 11 5 11 10 0 6 -2 10 -4 10 -3 0
-8 -4 -11 -10z"/>
<path d="M1850 4241 c0 -7 -4 -9 -10 -6 -5 3 -25 -5 -43 -19 -19 -15 -39 -26
-45 -26 -6 0 -9 -12 -7 -28 5 -38 -10 -61 -27 -44 -10 10 -10 14 1 21 8 5 9
11 3 15 -11 6 -21 -5 -42 -46 -12 -24 -11 -30 3 -46 10 -10 17 -23 17 -28 0
-5 -5 -1 -11 8 -8 15 -13 14 -44 -15 -19 -17 -35 -38 -35 -46 0 -22 -10 -7
-16 22 -4 25 31 77 53 77 5 0 10 14 11 30 2 24 -2 30 -18 30 -11 0 -20 -7 -20
-15 0 -8 -16 -22 -35 -31 -33 -15 -47 -34 -25 -34 17 0 11 -48 -9 -67 -21 -20
-37 -63 -24 -63 5 0 7 -16 5 -35 -3 -24 -9 -35 -21 -35 -9 0 -27 -9 -41 -20
-14 -11 -30 -20 -36 -20 -7 0 -15 -12 -18 -26 -5 -20 -12 -25 -33 -22 -31 4
-44 28 -15 28 17 0 20 5 17 28 -2 16 -14 46 -26 66 l-22 38 -14 -27 c-11 -20
-18 -24 -27 -16 -10 8 -16 5 -24 -14 -7 -15 -20 -25 -33 -25 -12 0 -23 -8 -26
-20 -3 -11 -9 -20 -14 -20 -17 0 -9 -19 11 -25 16 -5 18 -9 7 -26 -6 -10 -22
-19 -34 -19 -12 0 -24 -4 -27 -8 -2 -4 -19 -9 -38 -10 -62 -5 -88 -63 -36 -81
15 -6 28 -15 28 -22 0 -6 11 -22 24 -34 14 -13 22 -26 19 -29 -4 -3 0 -6 8 -6
8 0 23 -14 33 -31 11 -18 14 -29 7 -25 -10 6 -13 0 -10 -21 1 -5 5 -7 10 -6 5
2 9 -15 9 -37 0 -31 4 -40 18 -41 14 0 14 -2 -3 -8 -19 -8 -19 -8 3 -20 14 -7
22 -8 22 -1 0 14 27 13 33 -2 4 -10 8 -10 15 1 9 12 13 12 26 2 8 -7 15 -16
14 -19 0 -4 0 -16 1 -27 1 -18 2 -18 19 -2 14 15 15 19 3 27 -11 6 -12 14 -5
28 13 29 57 12 52 -20 -2 -13 -9 -22 -16 -21 -22 5 -13 -29 15 -54 17 -17 27
-37 29 -62 2 -20 3 -39 3 -43 1 -12 49 -9 56 3 4 6 13 8 19 6 7 -3 17 -2 22 1
11 8 34 52 38 72 2 8 6 33 10 55 17 87 48 143 79 145 14 0 81 -33 89 -44 4 -6
8 -7 8 -2 0 5 8 2 18 -6 9 -9 27 -19 40 -22 12 -4 22 -12 22 -17 0 -6 4 -7 10
-4 5 3 15 -3 22 -15 7 -11 16 -20 20 -20 5 0 22 -13 40 -30 17 -16 37 -30 44
-30 8 0 14 -9 14 -19 0 -11 5 -21 11 -23 7 -2 12 -28 13 -60 0 -31 3 -55 7
-52 4 2 10 -24 12 -58 3 -35 8 -82 11 -105 4 -26 2 -43 -4 -43 -6 0 -10 -5
-10 -11 0 -5 4 -8 9 -5 5 3 16 -10 25 -29 17 -36 18 -65 2 -76 -12 -9 3 -31
15 -23 11 7 38 -24 39 -43 0 -7 12 -25 28 -41 15 -16 34 -39 42 -51 13 -19
130 -102 231 -164 15 -9 51 -19 80 -22 30 -4 68 -11 84 -16 17 -4 64 -11 105
-15 61 -5 79 -10 98 -30 12 -12 22 -27 22 -32 0 -14 -35 -42 -53 -42 -9 0 -17
-4 -17 -10 0 -5 -9 -18 -21 -29 -12 -11 -18 -24 -14 -30 3 -6 -2 -11 -13 -11
-15 0 -18 -5 -14 -25 2 -15 0 -25 -7 -25 -6 0 -11 7 -11 15 0 14 -3 14 -28 1
-15 -8 -34 -26 -41 -40 -8 -14 -18 -23 -23 -20 -5 3 -24 -10 -43 -29 -19 -19
-36 -33 -39 -30 -2 3 -18 -8 -34 -25 -16 -16 -39 -33 -51 -37 -12 -3 -19 -11
-16 -16 4 -5 -1 -9 -10 -9 -23 0 -46 -26 -39 -43 3 -8 0 -18 -6 -22 -6 -4 -9
-1 -8 7 4 19 -46 22 -61 4 -11 -13 -10 -17 3 -22 9 -3 16 -10 16 -15 0 -4 -7
-6 -15 -3 -11 5 -13 2 -8 -12 4 -12 3 -15 -5 -10 -7 4 -12 1 -12 -8 0 -8 6
-17 13 -20 8 -3 7 -8 -5 -16 -10 -6 -18 -20 -18 -30 0 -11 -4 -20 -10 -20 -5
0 -10 -7 -10 -16 0 -11 6 -15 20 -11 10 3 19 2 18 -2 0 -3 0 -18 1 -32 1 -22
5 -26 31 -24 28 2 30 -1 30 -32 0 -18 -4 -33 -9 -33 -5 0 -11 -7 -15 -15 -3
-10 6 -23 29 -38 23 -14 35 -30 35 -44 0 -16 6 -23 19 -23 11 0 23 -5 27 -12
4 -6 3 -8 -4 -4 -25 15 -16 -31 12 -56 16 -16 24 -28 18 -28 -7 0 -12 -9 -12
-20 0 -11 7 -20 15 -20 9 0 18 -7 21 -15 5 -11 9 -12 19 -2 9 9 10 14 1 19 -7
5 -5 8 7 8 12 0 17 8 17 30 0 23 -3 28 -17 23 -11 -4 -14 -3 -9 5 7 11 -11 17
-41 13 -21 -3 -15 25 10 42 l22 16 -22 0 c-19 1 -23 7 -25 39 -2 69 3 102 19
120 13 14 27 16 19 3 -3 -4 0 -22 7 -40 8 -22 16 -29 28 -26 10 3 20 1 24 -5
4 -6 17 -10 28 -9 44 3 47 0 47 -46 0 -44 12 -60 24 -30 7 20 34 8 39 -18 4
-21 4 -21 6 1 0 13 5 20 11 17 6 -4 17 -2 25 5 19 16 82 2 106 -23 10 -11 19
-17 19 -13 0 4 12 0 28 -8 15 -8 44 -18 65 -21 33 -5 42 -14 38 -37 -2 -11 17
-10 24 1 7 12 65 9 85 -4 8 -5 53 -10 100 -11 47 -1 105 -7 129 -13 24 -7 54
-10 67 -7 12 3 26 1 29 -5 5 -7 39 -8 104 -4 124 9 162 12 165 17 17 25 33 55
35 62 0 5 -24 11 -55 12 -31 2 -62 8 -70 15 -10 8 -17 7 -29 -5 -9 -9 -26 -16
-38 -16 -22 0 -83 19 -104 33 -6 4 -18 5 -26 1 -8 -3 -30 4 -48 15 -19 12 -50
21 -69 21 -20 0 -41 5 -48 12 -9 9 -13 8 -17 -4 -5 -13 -13 -14 -38 -7 -17 5
-33 7 -35 4 -3 -2 -13 0 -23 5 -10 6 -20 6 -23 2 -10 -16 -64 0 -74 21 -7 15
-11 17 -11 6 -2 -32 -211 0 -211 33 0 4 5 8 12 8 6 0 8 3 4 7 -4 5 -17 8 -29
8 -13 0 -23 7 -25 18 -4 21 -45 67 -60 67 -6 0 -13 -8 -15 -17 -4 -15 -6 -14
-12 5 -7 21 -9 22 -25 7 -17 -15 -19 -15 -29 2 -10 17 -10 17 -11 0 0 -10 -4
-15 -10 -12 -5 3 -10 17 -10 31 0 19 -5 24 -26 24 -18 0 -28 -6 -31 -21 -4
-15 -11 -19 -28 -15 -15 4 -25 1 -29 -9 -3 -8 -12 -15 -21 -15 -10 0 -15 -10
-16 -27 l0 -28 -10 25 c-8 19 -6 27 7 37 10 7 15 16 11 19 -3 4 0 13 8 21 8 8
15 25 15 39 0 14 7 27 15 30 8 4 15 10 15 15 0 5 -7 9 -15 9 -17 0 -21 45 -5
55 12 7 39 -17 41 -37 1 -7 5 8 9 34 10 55 43 108 70 108 11 0 24 12 32 30 9
21 18 28 30 24 14 -4 18 0 18 21 0 34 17 65 35 65 8 0 18 8 23 17 6 9 16 18
23 19 8 2 24 6 37 10 17 5 21 3 16 -9 -3 -8 0 -18 6 -22 8 -5 5 -11 -7 -21
-10 -7 -13 -14 -6 -14 6 0 15 5 18 11 4 6 13 8 21 5 11 -4 13 1 9 23 -5 28 -4
29 35 27 26 0 39 -5 36 -12 -3 -7 9 -14 29 -16 30 -3 34 -1 39 26 4 16 3 51 0
78 -5 35 -3 48 6 48 9 0 10 12 6 44 -6 39 -4 45 18 60 31 20 36 20 36 1 0 -8
7 -15 15 -15 17 0 20 16 5 25 -6 4 -7 11 -4 17 4 7 9 6 14 -2 10 -17 32 -2 28
19 -3 17 33 71 49 71 4 0 19 14 33 31 14 17 32 39 41 48 9 9 24 31 35 49 10
17 24 32 31 32 7 0 13 10 13 23 0 13 12 37 28 54 15 17 40 62 55 100 65 157
85 191 138 233 44 34 57 40 95 38 35 -1 51 -8 76 -32 49 -49 94 -127 106 -181
35 -162 47 -207 59 -216 7 -6 13 -20 13 -30 0 -9 6 -24 14 -31 7 -8 21 -30 31
-48 10 -19 21 -37 25 -40 3 -3 25 -32 47 -65 23 -33 50 -70 62 -82 30 -31 107
-83 124 -83 9 0 17 -13 20 -32 12 -72 21 -94 48 -119 16 -14 29 -31 29 -37 0
-6 18 -30 40 -52 22 -22 40 -45 40 -50 0 -6 4 -10 8 -10 11 0 52 -35 52 -44 0
-3 20 -38 45 -77 24 -40 47 -85 50 -100 4 -16 17 -50 31 -75 13 -25 24 -62 24
-82 0 -56 10 -82 31 -82 11 0 19 -7 19 -15 0 -24 30 -5 36 24 4 14 11 32 17
39 18 22 -8 161 -34 182 -3 3 -12 22 -18 43 -7 20 -21 42 -32 47 -10 6 -19 19
-19 30 0 23 -20 37 -30 20 -10 -15 -31 45 -23 65 3 10 1 13 -9 10 -9 -4 -21 4
-30 17 -9 13 -25 34 -37 47 -11 13 -21 28 -21 33 0 5 -4 7 -9 3 -12 -7 -33 29
-24 39 3 3 1 6 -5 6 -7 0 -13 -6 -14 -12 0 -7 -4 7 -7 32 -5 34 -12 47 -28 55
-29 13 -29 41 0 51 12 5 26 7 31 6 4 -2 13 1 20 6 18 15 56 21 56 10 0 -6 11
-3 24 6 14 8 62 20 108 25 159 19 265 64 363 153 36 33 65 64 65 70 0 5 14 30
31 54 46 67 87 164 115 272 14 53 34 112 46 130 22 36 92 92 114 92 7 0 19 15
27 33 8 17 28 64 46 103 48 109 43 126 -44 139 -27 4 -59 12 -70 18 -11 6 -26
12 -34 13 -8 2 -17 7 -20 12 -6 9 -83 26 -166 37 -94 13 -351 57 -359 63 -18
10 -65 14 -161 13 -22 0 -98 0 -170 1 -71 0 -143 -2 -160 -5 -16 -4 -54 -11
-84 -16 -30 -6 -59 -15 -65 -21 -5 -5 -18 -10 -27 -10 -9 0 -22 -6 -28 -14 -7
-8 -20 -14 -29 -14 -9 1 -42 -2 -73 -6 -45 -6 -58 -4 -69 9 -28 33 -48 37 -79
14 -23 -17 -42 -21 -105 -21 -42 0 -76 -4 -76 -9 0 -5 -7 -9 -15 -9 -8 0 -15
4 -15 8 0 5 -23 15 -52 22 -33 9 -53 21 -56 32 -3 13 -14 18 -37 18 -40 0
-200 71 -208 93 -3 8 -31 28 -61 45 -46 25 -64 29 -99 25 -23 -4 -45 -11 -49
-17 -5 -8 -8 -7 -8 2 0 16 -27 16 -32 0 -3 -9 -18 -7 -54 7 -37 15 -80 20
-179 22 -71 1 -136 5 -145 9 -8 4 -23 6 -33 5 -10 -1 -25 3 -32 9 -8 7 -26 9
-39 6 -15 -4 -27 -1 -30 7 -5 9 -7 9 -12 0 -3 -7 -13 -13 -23 -13 -9 0 -22 -5
-28 -11 -28 -28 -303 -18 -303 10 0 10 -50 22 -112 26 -25 2 -55 8 -65 14 -11
5 -25 6 -33 1 -18 -11 -42 -1 -36 16 6 15 -25 7 -36 -10 -4 -6 -10 -4 -14 7
-4 12 2 27 20 46 14 15 26 32 26 39 0 7 4 12 8 12 5 0 14 11 21 24 7 13 29 32
50 43 33 18 36 23 36 64 0 24 7 56 17 70 17 26 13 43 -9 45 -43 3 -45 5 -40
24 3 13 0 20 -9 20 -8 0 -14 7 -14 15 0 16 -16 20 -24 6 -3 -5 -15 -11 -26
-14 -18 -5 -17 -2 7 28 16 19 36 34 46 34 18 1 34 27 23 38 -3 4 -6 1 -6 -6z
m-70 -186 c-7 -8 -9 -24 -5 -37 l7 -23 -22 22 c-26 25 -22 48 10 50 17 2 19
-1 10 -12z m-285 -435 c-3 -5 -1 -11 5 -15 6 -4 8 -11 5 -16 -8 -11 -16 -11
-34 0 -10 7 -11 13 -2 30 7 12 16 19 22 16 5 -4 7 -10 4 -15z m-121 -14 c19
-16 26 -29 22 -42 -3 -11 -2 -24 2 -31 11 -17 49 -5 55 18 3 10 12 19 19 19
18 0 12 -60 -7 -75 -7 -5 -16 -23 -19 -39 -4 -16 -14 -39 -23 -50 -14 -20 -15
-19 -10 23 7 55 1 71 -27 71 -19 0 -21 4 -18 40 3 31 1 40 -12 40 -13 0 -36
28 -36 44 0 13 27 4 54 -18z m86 14 c0 -5 -4 -10 -10 -10 -5 0 -10 5 -10 10 0
6 5 10 10 10 6 0 10 -4 10 -10z m560 -4 c0 -11 -19 -15 -25 -6 -3 5 1 10 9 10
9 0 16 -2 16 -4z m1828 -235 c2 -1 0 -5 -3 -11 -7 -11 -94 -14 -120 -4 -31 12
7 24 65 20 30 -3 56 -5 58 -5z m-623 -50 c1 -17 -2 -31 -7 -31 -5 0 -6 -4 -3
-10 3 -5 1 -10 -4 -10 -6 0 -11 -9 -11 -20 0 -11 -5 -20 -11 -20 -6 0 -8 8 -5
18 2 9 8 41 11 70 8 58 25 59 30 3z m1535 3 c0 -8 -4 -12 -10 -9 -5 3 -10 10
-10 16 0 5 5 9 10 9 6 0 10 -7 10 -16z m93 -29 c1 -5 -6 -11 -15 -13 -11 -2
-18 3 -18 13 0 17 30 18 33 0z m328 -8 c-13 -13 -26 -3 -16 12 3 6 11 8 17 5
6 -4 6 -10 -1 -17z m-2671 -57 c0 -5 -4 -10 -10 -10 -5 0 -10 5 -10 10 0 6 5
10 10 10 6 0 10 -4 10 -10z m145 -37 c4 -17 2 -23 -8 -23 -16 0 -30 37 -20 53
7 11 19 -2 28 -30z m131 -24 c19 -26 20 -36 11 -72 -5 -23 -9 -50 -9 -59 0
-10 -5 -18 -13 -18 -8 0 -17 -4 -20 -10 -4 -6 6 -7 25 -4 26 6 30 4 30 -14 0
-28 -27 -42 -61 -32 -15 5 -30 5 -34 2 -3 -4 -22 -6 -42 -7 -20 0 -38 -6 -40
-12 -3 -7 2 -13 11 -13 8 0 20 -9 26 -21 10 -17 8 -21 -7 -25 -23 -6 -46 -51
-31 -61 7 -3 8 -1 4 6 -6 9 7 12 53 10 49 -2 59 -5 50 -16 -6 -7 -17 -13 -23
-13 -18 0 -35 -35 -25 -51 7 -11 9 -11 9 0 0 7 6 11 14 8 7 -3 23 1 35 9 17
13 28 13 56 4 41 -13 145 6 145 27 0 7 -4 13 -9 13 -5 0 -12 7 -15 16 -4 11
-1 14 12 12 9 -2 16 -9 15 -15 -1 -6 16 -14 39 -17 47 -8 69 9 82 59 13 52 51
63 41 13 -12 -59 -26 -98 -35 -93 -4 3 -11 -6 -14 -20 -6 -24 -24 -29 -38 -11
-3 5 -5 -3 -5 -17 2 -18 8 -27 20 -27 9 0 17 -5 17 -11 0 -5 -4 -8 -9 -5 -5 3
-12 -5 -15 -19 -4 -16 -11 -22 -21 -19 -9 4 -15 0 -15 -10 0 -9 -4 -16 -10
-16 -5 0 -10 5 -10 12 0 6 -7 4 -18 -5 -10 -10 -24 -17 -30 -17 -7 0 -12 -6
-12 -12 0 -7 -26 -20 -58 -29 -66 -19 -242 -26 -242 -10 0 13 38 34 49 26 15
-8 41 6 41 22 0 9 6 13 14 10 17 -7 28 16 20 41 -5 16 -5 16 8 0 14 -16 16
-16 31 0 11 10 17 12 17 4 0 -7 7 -12 15 -12 18 0 19 14 2 28 -8 7 -26 8 -52
2 -28 -6 -42 -5 -47 3 -4 7 -13 3 -27 -14 l-20 -24 6 25 c5 21 4 23 -8 14 -8
-6 -25 -14 -39 -16 -14 -3 -33 -9 -42 -13 -13 -5 -18 -3 -18 9 0 9 -4 16 -10
16 -5 0 -10 -4 -10 -9 0 -6 5 -13 10 -16 17 -10 11 -25 -10 -25 -11 0 -20 -4
-20 -8 0 -14 -54 -35 -58 -23 -2 6 -10 11 -18 11 -27 0 -94 33 -94 46 0 8 4
14 9 14 11 0 9 39 -2 57 -4 7 -14 10 -22 6 -8 -3 -15 0 -15 6 0 6 3 11 8 11
11 0 11 54 -1 68 -6 7 -11 30 -11 50 -1 30 -5 37 -26 43 -27 8 -26 9 8 13 22
3 51 31 52 52 0 17 55 64 75 64 10 0 27 -8 37 -17 20 -18 128 -29 128 -14 0 5
19 21 43 36 24 16 49 41 56 57 13 28 51 78 61 78 3 0 15 -14 26 -31z m494 -9
c0 -5 -2 -10 -4 -10 -3 0 -8 5 -11 10 -3 6 -1 10 4 10 6 0 11 -4 11 -10z
m1880 0 c0 -5 -2 -10 -4 -10 -3 0 -8 5 -11 10 -3 6 -1 10 4 10 6 0 11 -4 11
-10z m-1950 -70 c0 -5 -9 -14 -20 -20 -16 -8 -20 -8 -20 4 0 8 8 17 18 19 9 3
18 5 20 6 1 0 2 -3 2 -9z m-1014 -88 c-13 -12 -17 8 -9 44 l8 39 3 -39 c2 -21
1 -41 -2 -44z m2531 51 c5 3 8 -7 5 -24 -2 -16 -8 -29 -13 -29 -5 0 -9 -5 -9
-12 0 -9 3 -9 12 0 8 8 17 8 31 0 12 -6 40 -7 69 -4 36 5 56 3 72 -8 13 -8 40
-17 61 -20 21 -4 41 -9 44 -12 23 -23 -38 -217 -95 -301 -35 -52 -90 -113
-102 -113 -7 0 -12 -4 -12 -10 0 -5 -5 -10 -12 -10 -6 0 -19 -7 -28 -15 -31
-28 -151 -56 -265 -61 -120 -6 -194 5 -320 49 -38 14 -71 23 -73 22 -6 -5 45
-55 57 -55 6 0 11 -4 11 -10 0 -14 -4 -13 -44 11 -20 12 -36 27 -36 34 0 7 -6
16 -12 18 -10 4 -10 7 0 15 10 7 10 11 -3 22 -8 7 -15 20 -15 30 0 10 -7 23
-15 30 -13 11 -75 190 -75 218 0 18 14 14 28 -8 7 -11 21 -20 32 -20 21 0 60
-19 71 -34 4 -5 24 -12 45 -15 27 -4 42 -13 49 -29 7 -15 18 -22 38 -22 24 0
27 3 21 25 -4 17 -2 25 7 26 8 0 3 5 -11 11 -29 12 -23 15 42 21 45 4 46 3 52
-26 l6 -31 20 22 c25 26 25 32 3 32 -14 1 -12 5 10 21 19 15 26 27 22 40 -4
11 -2 19 4 19 16 0 13 26 -4 40 -19 16 -19 50 0 50 8 0 19 -17 26 -42 6 -23
18 -48 27 -54 15 -11 15 -14 -3 -35 l-20 -22 21 11 c16 8 24 8 33 -1 10 -9 11
-6 6 16 -6 22 -4 26 8 21 8 -3 25 3 36 13 12 10 31 20 44 23 12 3 23 14 25 24
3 12 -1 17 -9 14 -8 -3 -20 1 -27 9 -14 13 -8 33 10 33 5 0 31 23 56 50 25 28
52 50 59 50 7 0 13 6 13 13 0 9 3 8 9 -2 5 -7 13 -11 18 -8z m-1579 -142 c-7
-9 -14 -18 -15 -20 -2 -2 -3 8 -3 22 0 20 4 25 15 21 13 -5 13 -9 3 -23z
m1307 9 c3 -5 1 -10 -4 -10 -6 0 -11 5 -11 10 0 6 2 10 4 10 3 0 8 -4 11 -10z
m35 -45 c0 -14 -4 -25 -9 -25 -4 0 -6 11 -3 25 2 14 6 25 8 25 2 0 4 -11 4
-25z m-1662 -27 c32 -3 56 2 63 13 4 7 12 10 18 8 18 -7 -12 -53 -41 -63 -36
-13 -94 10 -77 30 9 11 8 14 -5 14 -22 0 -21 18 2 22 9 2 18 -2 20 -9 2 -7 11
-14 20 -15z m-561 -4 c-3 -3 -12 -4 -19 -1 -8 3 -5 6 6 6 11 1 17 -2 13 -5z
m49 -223 c9 -12 11 -21 7 -21 -12 0 -63 49 -63 61 0 13 38 -13 56 -40z m674
-61 c0 -5 -9 -10 -21 -10 -11 0 -17 5 -14 10 3 6 13 10 21 10 8 0 14 -4 14
-10z m1267 -322 c-3 -8 -6 -5 -6 6 -1 11 2 17 5 13 3 -3 4 -12 1 -19z m-1937
-368 c0 -5 -2 -10 -4 -10 -3 0 -8 5 -11 10 -3 6 -1 10 4 10 6 0 11 -4 11 -10z
m97 -82 c-3 -8 -6 -5 -6 6 -1 11 2 17 5 13 3 -3 4 -12 1 -19z m257 -146 c3 -5
-1 -9 -9 -9 -8 0 -12 4 -9 9 3 4 7 8 9 8 2 0 6 -4 9 -8z"/>
<path d="M2570 3009 c0 -5 5 -7 10 -4 6 3 10 8 10 11 0 2 -4 4 -10 4 -5 0 -10
-5 -10 -11z"/>
<path d="M2530 2960 c0 -5 5 -10 10 -10 6 0 10 5 10 10 0 6 -4 10 -10 10 -5 0
-10 -4 -10 -10z"/>
<path d="M2480 2809 c0 -5 5 -7 10 -4 6 3 10 8 10 11 0 2 -4 4 -10 4 -5 0 -10
-5 -10 -11z"/>
<path d="M2746 2756 c3 -9 11 -16 16 -16 13 0 5 23 -10 28 -7 2 -10 -2 -6 -12z"/>
<path d="M2795 2750 c-3 -5 -1 -10 4 -10 6 0 11 5 11 10 0 6 -2 10 -4 10 -3 0
-8 -4 -11 -10z"/>
<path d="M2990 2749 c0 -5 5 -7 10 -4 6 3 10 8 10 11 0 2 -4 4 -10 4 -5 0 -10
-5 -10 -11z"/>
<path d="M2983 2705 c-3 -9 -3 -18 0 -21 9 -9 27 6 27 22 0 19 -19 18 -27 -1z"/>
<path d="M2457 2697 c-6 -15 10 -37 26 -37 12 0 4 43 -9 47 -6 2 -14 -3 -17
-10z"/>
<path d="M4600 2941 c0 -11 30 -19 48 -14 23 8 12 23 -18 23 -16 0 -30 -4 -30
-9z"/>
<path d="M4288 2752 c-3 -9 -2 -26 2 -37 7 -19 7 -19 18 2 12 21 7 53 -8 53
-4 0 -10 -8 -12 -18z"/>
<path d="M935 4230 c3 -5 8 -10 11 -10 2 0 4 5 4 10 0 6 -5 10 -11 10 -5 0 -7
-4 -4 -10z"/>
<path d="M1542 4149 c-16 -24 -12 -32 12 -23 9 3 16 15 16 25 0 25 -12 24 -28
-2z"/>
<path d="M5254 4104 c3 -9 6 -18 6 -20 0 -2 4 -4 9 -4 5 0 7 9 4 20 -3 11 -10
20 -15 20 -6 0 -7 -7 -4 -16z"/>
<path d="M5250 4046 c0 -7 7 -19 15 -26 8 -7 15 -18 15 -25 0 -13 28 -41 34
-34 2 2 -3 25 -11 52 -10 35 -18 47 -33 47 -11 0 -20 -6 -20 -14z"/>
<path d="M5207 4014 c-14 -14 7 -110 31 -142 18 -23 23 -40 19 -61 -7 -35 5
-83 22 -89 22 -7 11 196 -12 213 -9 6 -24 28 -32 49 -16 38 -18 40 -28 30z"/>
<path d="M1290 3990 c0 -5 5 -10 10 -10 6 0 10 5 10 10 0 6 -4 10 -10 10 -5 0
-10 -4 -10 -10z"/>
<path d="M5306 3943 c-9 -10 -7 -43 3 -43 11 0 21 39 11 45 -4 2 -10 2 -14 -2z"/>
<path d="M923 3574 c-18 -9 -33 -22 -33 -28 0 -37 42 -166 70 -218 6 -10 10
-25 10 -33 0 -18 24 -20 37 -2 5 6 17 45 27 86 10 41 27 84 37 95 26 28 24 51
-8 74 -25 17 -87 42 -102 42 -3 0 -21 -8 -38 -16z"/>
<path d="M5350 3566 c-6 -8 -17 -13 -25 -10 -7 3 -16 0 -20 -5 -3 -6 -11 -9
-16 -6 -5 4 -9 2 -9 -3 0 -5 -13 -26 -30 -47 -35 -44 -39 -75 -10 -75 10 0 23
-7 28 -16 6 -10 12 -13 16 -6 3 5 15 8 26 5 17 -5 20 0 20 31 0 20 5 36 11 36
6 0 9 -7 5 -15 -13 -35 14 -11 34 29 31 65 8 127 -30 82z"/>
<path d="M5425 3451 c-3 -5 -1 -12 5 -16 5 -3 10 1 10 9 0 18 -6 21 -15 7z"/>
<path d="M5589 3369 c-44 -16 -66 -96 -44 -159 8 -23 13 -46 10 -50 -10 -16 7
-38 31 -43 22 -4 28 2 49 43 13 26 26 65 29 86 2 22 10 51 16 65 25 55 -20 84
-91 58z"/>
<path d="M1290 3331 c0 -5 7 -14 15 -21 13 -10 15 -9 15 9 0 12 -6 21 -15 21
-8 0 -15 -4 -15 -9z"/>
<path d="M1930 3230 c0 -32 1 -33 14 -14 8 10 11 21 8 24 -4 3 -10 9 -14 14
-5 5 -8 -6 -8 -24z"/>
<path d="M1246 3195 c-15 -8 -35 -15 -42 -15 -8 0 -14 -4 -14 -10 0 -5 -7 -10
-15 -10 -8 0 -15 -5 -15 -10 0 -6 -11 -15 -24 -21 -14 -7 -27 -22 -30 -35 -4
-13 -11 -24 -16 -24 -6 0 -10 -11 -10 -24 0 -13 -6 -26 -12 -28 -9 -3 -14 -32
-16 -84 -6 -140 -5 -141 43 -190 25 -24 54 -44 65 -44 12 0 18 4 15 10 -3 5
-7 41 -7 79 -1 55 3 75 21 99 11 17 21 35 21 41 0 6 5 11 11 11 14 0 69 61 69
76 0 6 11 21 24 33 28 27 39 82 23 119 -20 46 -42 52 -91 27z"/>
<path d="M5323 2875 c5 -55 11 -70 37 -97 17 -18 33 -43 36 -55 4 -13 10 -23
16 -23 5 0 7 -4 4 -9 -3 -5 5 -8 18 -7 19 1 23 6 20 22 -2 13 2 24 11 28 21 8
21 86 0 86 -8 0 -15 7 -15 15 0 9 -9 15 -24 15 -16 0 -27 7 -31 19 -9 31 -45
71 -62 71 -13 0 -15 -10 -10 -65z"/>
<path d="M1200 2616 c0 -37 18 -76 35 -76 9 0 15 9 15 25 0 14 -4 25 -10 25
-5 0 -10 5 -10 11 0 6 -7 17 -15 25 -13 14 -15 13 -15 -10z"/>
<path d="M5420 2620 c0 -6 7 -10 15 -10 8 0 15 2 15 4 0 2 -7 6 -15 10 -8 3
-15 1 -15 -4z"/>
<path d="M1850 2310 c0 -5 5 -10 11 -10 5 0 7 5 4 10 -3 6 -8 10 -11 10 -2 0
-4 -4 -4 -10z"/>
<path d="M1841 2241 c-7 -20 -15 -51 -18 -69 -3 -18 -9 -35 -14 -37 -11 -8 8
-57 28 -72 11 -9 13 -16 6 -25 -14 -18 -17 -138 -4 -138 6 0 11 -7 11 -15 0
-24 -22 -65 -36 -65 -7 0 -11 -10 -9 -22 4 -36 16 -58 31 -58 16 0 44 39 44
62 0 10 4 18 8 18 4 0 8 8 9 18 1 9 3 24 5 32 2 9 -4 14 -14 14 -10 -1 -18 2
-18 7 0 5 8 9 18 9 14 0 17 7 14 40 -2 22 -1 48 3 58 3 9 8 58 9 109 2 78 0
92 -14 96 -12 3 -15 13 -12 40 3 31 1 36 -15 34 -12 0 -24 -14 -32 -36z m16
-46 c-7 -13 -16 -20 -20 -16 -11 11 11 54 23 46 4 -3 3 -16 -3 -30z"/>
<path d="M4345 2160 c3 -5 8 -10 11 -10 2 0 4 5 4 10 0 6 -5 10 -11 10 -5 0
-7 -4 -4 -10z"/>
<path d="M2980 2091 c0 -5 12 -20 28 -33 15 -12 35 -35 45 -50 9 -16 23 -28
31 -28 7 0 21 -9 31 -20 9 -10 22 -18 27 -17 6 1 12 -9 13 -22 1 -17 -5 -26
-27 -33 -22 -8 -28 -16 -28 -40 0 -23 -4 -29 -15 -24 -8 3 -15 1 -15 -5 0 -5
7 -12 15 -16 23 -8 54 24 50 53 -1 13 2 24 6 24 5 0 9 -5 9 -11 0 -5 4 -8 9
-4 5 3 12 1 16 -4 3 -6 13 -7 21 -4 12 5 15 -1 14 -23 -1 -16 -2 -34 -1 -41 1
-18 73 -13 89 6 10 13 12 7 8 -39 -3 -30 -9 -70 -15 -88 -9 -29 -8 -32 4 -22
8 7 15 20 15 29 0 9 7 25 15 35 12 16 19 18 40 8 22 -10 26 -9 40 18 14 27 44
42 45 23 0 -5 7 -17 16 -28 13 -17 16 -18 25 -5 8 12 9 10 4 -7 -3 -13 1 -36
11 -54 16 -31 17 -32 30 -14 8 10 14 22 14 27 0 4 7 5 15 2 8 -4 12 -10 9 -16
-8 -13 4 -58 17 -58 5 0 14 10 19 23 9 22 9 22 10 -3 2 -23 3 -23 16 9 16 35
12 53 -8 33 -21 -21 -28 -13 -28 37 0 46 -18 81 -28 53 -2 -8 -8 -7 -19 3 -11
11 -13 24 -7 43 4 15 6 35 5 45 -3 21 22 22 39 2 12 -14 15 -14 30 0 9 8 24
15 33 15 9 0 22 8 29 18 7 11 29 24 50 31 20 7 39 18 41 25 6 15 68 31 105 27
12 -1 22 3 22 9 0 7 6 10 14 7 14 -5 36 10 36 25 0 18 -192 -4 -214 -24 -6 -4
-34 -8 -64 -8 -46 0 -55 3 -59 21 -4 14 -12 19 -24 16 -11 -3 -23 2 -28 11 -5
9 -13 14 -17 10 -8 -9 -64 19 -64 32 0 6 -4 10 -9 10 -5 0 -7 -9 -4 -20 3 -11
0 -20 -6 -20 -6 0 -11 7 -11 16 0 8 -4 13 -9 9 -5 -3 -12 -1 -16 5 -9 15 -25
12 -25 -5 0 -17 -26 -20 -35 -5 -5 8 -11 8 -19 1 -15 -13 -60 -8 -80 9 -11 8
-20 9 -28 2 -9 -7 -32 -7 -72 0 -46 8 -60 8 -67 -3 -6 -11 -11 -10 -26 2 -10
8 -30 15 -45 14 -16 0 -28 3 -28 7 0 4 -4 8 -10 8 -5 0 -10 -4 -10 -9z m260
-246 c0 -17 -2 -17 -10 -5 -5 8 -10 24 -10 35 0 17 2 17 10 5 5 -8 10 -24 10
-35z m40 8 c0 -15 2 -16 10 -3 5 8 10 10 10 5 0 -13 -20 -35 -32 -35 -4 0 -8
11 -8 25 0 14 5 25 10 25 6 0 10 -8 10 -17z m110 -104 c0 -5 -6 -9 -14 -9 -15
0 -28 24 -19 34 7 7 33 -13 33 -25z m137 -46 c-3 -10 -5 -4 -5 12 0 17 2 24 5
18 2 -7 2 -21 0 -30z"/>
<path d="M1790 2066 c0 -8 7 -16 15 -20 13 -4 14 -2 5 14 -13 23 -20 26 -20 6z"/>
<path d="M2670 2006 c0 -29 10 -38 29 -27 18 11 10 45 -12 49 -12 3 -17 -3
-17 -22z"/>
<path d="M2948 1976 c-11 -8 -18 -26 -18 -45 0 -41 15 -40 18 1 2 17 8 38 14
45 13 16 8 16 -14 -1z"/>
<path d="M2633 1944 c-3 -8 -1 -20 6 -27 8 -8 11 -4 11 16 0 30 -7 35 -17 11z"/>
<path d="M2030 1920 c0 -11 4 -20 9 -20 5 0 11 9 14 20 3 13 0 20 -9 20 -8 0
-14 -9 -14 -20z"/>
<path d="M3120 1919 c0 -5 5 -7 10 -4 6 3 10 8 10 11 0 2 -4 4 -10 4 -5 0 -10
-5 -10 -11z"/>
<path d="M2820 1910 c0 -5 5 -10 10 -10 6 0 10 5 10 10 0 6 -4 10 -10 10 -5 0
-10 -4 -10 -10z"/>
<path d="M1999 1878 c-11 -7 -11 -11 -1 -15 6 -2 12 -11 12 -19 0 -9 -5 -12
-10 -9 -7 4 -9 -8 -5 -34 3 -23 1 -41 -3 -41 -4 0 -5 -30 -1 -67 12 -100 11
-113 -6 -113 -20 0 -19 -8 6 -49 18 -29 19 -38 8 -58 -13 -25 -4 -47 11 -23
15 24 23 3 26 -67 1 -38 3 -68 4 -68 1 0 3 -11 4 -24 2 -13 10 -28 19 -33 10
-5 17 -16 17 -24 0 -12 2 -12 14 -2 7 7 11 19 9 25 -5 13 23 30 33 20 3 -3 -2
-19 -12 -36 -14 -24 -15 -34 -6 -43 9 -9 7 -14 -6 -24 -13 -10 -14 -13 -3 -14
11 0 10 -3 -3 -13 -15 -11 -17 -23 -13 -67 4 -34 11 -57 21 -62 9 -5 16 -18
16 -28 0 -10 5 -22 10 -25 16 -10 12 -35 -6 -35 -9 0 -26 10 -37 23 l-20 22 7
-27 c7 -30 -7 -40 -41 -27 -16 6 -23 4 -26 -9 -3 -12 -5 -11 -6 6 -1 20 -11
27 -33 23 -5 0 -8 4 -8 9 0 6 6 10 13 10 8 0 7 4 -3 10 -8 5 -10 10 -3 10 13
0 12 17 -4 44 -6 12 -8 30 -3 48 8 25 6 28 -16 28 -15 0 -24 -6 -24 -15 0 -8
4 -15 9 -15 5 0 8 -8 6 -17 -2 -10 -4 -21 -4 -25 -2 -19 -22 -4 -42 32 -12 21
-26 37 -30 34 -4 -2 -9 8 -11 23 -4 38 -23 39 -39 3 -8 -16 -17 -30 -21 -30
-5 0 -8 -5 -8 -11 0 -5 4 -7 10 -4 17 11 22 -43 7 -75 -9 -16 -11 -30 -7 -30
5 0 7 -6 4 -14 -6 -17 30 -28 59 -17 30 11 67 1 67 -18 0 -14 -2 -14 -10 -1
-9 13 -11 13 -21 0 -8 -11 -12 -12 -16 -2 -8 21 -33 13 -34 -10 l0 -23 -10 24
-9 24 -25 -27 c-14 -15 -25 -25 -25 -22 0 4 -9 -3 -20 -14 -11 -11 -20 -31
-20 -45 0 -14 -4 -25 -10 -25 -13 0 -13 -21 0 -40 9 -13 11 -13 20 0 8 12 10
9 10 -12 0 -16 9 -37 20 -48 11 -11 20 -23 20 -26 0 -3 11 -15 25 -26 14 -11
25 -26 25 -34 0 -8 9 -14 19 -14 11 0 27 -8 37 -17 9 -9 24 -18 33 -18 9 -1
34 -19 56 -41 62 -61 133 -117 173 -138 20 -10 42 -25 50 -32 7 -8 17 -14 21
-14 4 0 16 -8 27 -18 10 -10 40 -33 67 -51 26 -19 47 -41 47 -48 0 -8 4 -11
10 -8 9 6 52 -17 77 -42 7 -6 29 -17 48 -23 19 -6 35 -15 35 -20 0 -4 14 -13
30 -20 17 -7 35 -21 41 -31 5 -11 16 -19 24 -19 8 0 19 -9 25 -20 6 -12 21
-20 35 -20 14 0 25 -4 25 -10 0 -6 68 -10 185 -10 161 0 185 2 185 16 0 8 5
12 10 9 6 -4 8 -11 5 -16 -10 -15 49 -10 72 6 16 11 28 13 47 5 16 -6 27 -6
31 0 4 6 17 10 31 10 24 0 29 11 26 53 -1 13 6 17 31 19 51 2 53 3 71 17 9 7
16 11 16 7 0 -4 10 0 23 8 12 9 52 18 87 20 119 9 217 25 259 42 35 14 39 19
30 35 -5 10 -16 19 -24 19 -8 0 -15 5 -15 10 0 18 -30 11 -30 -7 -1 -17 -1
-17 -14 0 -7 9 -23 17 -35 17 -12 0 -20 4 -16 9 10 17 -11 20 -40 5 -19 -10
-32 -11 -40 -4 -6 5 -15 7 -19 2 -4 -4 -12 1 -17 11 -6 9 -14 15 -19 12 -4 -3
-11 7 -14 21 -5 17 -12 24 -21 20 -8 -3 -15 -1 -15 5 0 6 -4 7 -10 4 -5 -3
-10 -17 -10 -30 0 -22 -2 -23 -30 -13 -17 5 -42 7 -55 4 -30 -8 -69 10 -62 29
3 7 -6 18 -19 24 -33 15 -91 14 -97 -1 -4 -10 -6 -10 -6 -1 -1 9 -8 10 -26 3
-20 -8 -27 -6 -36 11 -7 13 -14 17 -22 11 -17 -13 -67 -8 -77 8 -4 7 -13 9
-19 6 -6 -4 -11 -3 -11 2 0 13 -52 36 -77 33 -11 -1 -29 7 -40 17 -18 20 -49
27 -106 24 -24 -2 -27 -5 -22 -24 5 -20 5 -21 -5 -5 -8 13 -9 22 -1 31 8 10 6
19 -9 36 -11 13 -23 20 -28 15 -4 -4 -1 -10 6 -12 6 -3 12 -9 12 -14 0 -14
-22 -11 -41 7 -14 13 -15 20 -6 45 9 22 9 34 -1 50 -7 11 -10 24 -7 28 3 5 1
20 -4 33 -9 23 -9 23 -16 -7 -4 -16 -10 -34 -14 -40 -3 -5 -7 -19 -8 -30 -2
-11 -8 -24 -14 -30 -8 -7 -9 3 -5 35 3 25 3 39 0 33 -7 -17 -35 -17 -33 0 1 6
-1 19 -4 27 -3 8 -7 26 -9 39 -4 32 -24 38 -32 9 -5 -19 -8 -20 -16 -8 -6 10
-6 16 0 18 21 8 8 17 -22 17 -27 0 -34 4 -36 23 -2 12 1 22 7 22 6 0 11 -4 11
-10 0 -5 5 -10 11 -10 8 0 8 4 0 14 -7 8 -11 20 -10 28 4 34 -2 58 -16 58 -9
0 -15 9 -15 23 0 12 -6 31 -14 42 -24 35 -28 99 -8 121 19 20 22 26 22 47 0 8
3 7 10 -3 15 -25 33 2 21 32 -5 14 -7 29 -4 32 4 3 -1 6 -10 6 -14 0 -17 9
-15 48 l1 47 4 -43 c3 -33 8 -42 18 -38 8 3 17 1 20 -4 8 -13 25 -13 25 0 0 6
-6 10 -14 10 -24 0 -38 72 -16 85 6 3 10 21 10 40 0 21 6 38 18 45 15 10 14
11 -5 7 -13 -3 -25 -1 -28 4 -8 12 -35 0 -35 -16 0 -7 -6 -18 -14 -25 -12 -9
-17 -7 -28 9 -17 28 -32 26 -48 -6 -11 -23 -14 -25 -17 -10 -3 9 -9 17 -14 17
-14 0 -11 -33 5 -55 12 -18 11 -23 -10 -48 -29 -34 -34 -34 -34 3 0 26 -4 30
-26 30 -31 0 -114 55 -114 75 0 8 4 15 9 15 5 0 11 11 13 25 6 30 -11 34 -19
5 -8 -30 -25 -24 -23 8 2 31 -9 72 -20 72 -8 0 -31 66 -33 98 -1 12 -7 22 -13
22 -16 0 -23 130 -10 193 9 44 8 49 -18 76 -32 33 -58 43 -77 29z m91 -64 c0
-8 -5 -12 -10 -9 -6 4 -8 11 -5 16 9 14 15 11 15 -7z m320 -594 c0 -5 -5 -10
-11 -10 -5 0 -7 5 -4 10 3 6 8 10 11 10 2 0 4 -4 4 -10z m43 -50 c8 0 8 -3 0
-11 -17 -17 -43 -3 -43 21 0 20 1 20 16 6 8 -9 21 -16 27 -16z m-63 5 c0 -8
-4 -15 -9 -15 -5 0 -11 -10 -14 -22 l-6 -23 -21 22 c-21 23 -26 43 -11 43 6 0
13 -4 16 -10 10 -16 28 -12 21 5 -3 9 0 15 9 15 8 0 15 -7 15 -15z m-220 -45
c0 -11 -4 -20 -10 -20 -5 0 -10 2 -10 4 0 2 -3 11 -6 20 -4 11 -1 16 10 16 9
0 16 -8 16 -20z m253 -17 c7 -9 5 -13 -7 -13 -11 0 -16 8 -15 28 0 15 3 21 6
12 3 -8 10 -21 16 -27z m67 17 c0 -13 -7 -20 -20 -20 -19 0 -27 20 -13 33 13
14 33 6 33 -13z m-643 -47 c-3 -10 -5 -2 -5 17 0 19 2 27 5 18 2 -10 2 -26 0
-35z m304 -25 c-4 -35 -6 -38 -9 -15 -3 26 3 57 10 57 2 0 1 -19 -1 -42z m39
-52 c0 -2 -7 -7 -16 -10 -8 -3 -12 -2 -9 4 6 10 25 14 25 6z m70 -50 c0 -2 -8
-10 -17 -17 -16 -13 -17 -12 -4 4 13 16 21 21 21 13z m-93 -47 c2 -16 -1 -19
-9 -11 -5 5 -7 15 -4 21 10 15 12 14 13 -10z m293 -35 c0 -8 -4 -12 -10 -9 -5
3 -10 10 -10 16 0 5 5 9 10 9 6 0 10 -7 10 -16z m-657 -75 c-3 -11 -13 -19
-22 -19 -13 0 -16 7 -13 34 4 32 5 33 22 19 10 -9 15 -23 13 -34z m687 26 c0
-8 -4 -15 -10 -15 -5 0 -7 7 -4 15 4 8 8 15 10 15 2 0 4 -7 4 -15z m-640 -135
c0 -5 -2 -10 -4 -10 -3 0 -8 5 -11 10 -3 6 -1 10 4 10 6 0 11 -4 11 -10z m715
-60 c-3 -5 -12 -10 -18 -10 -7 0 -6 4 3 10 19 12 23 12 15 0z m142 -52 c-3 -8
-6 -5 -6 6 -1 11 2 17 5 13 3 -3 4 -12 1 -19z m158 -127 c3 -5 1 -12 -5 -16
-5 -3 -10 1 -10 9 0 18 6 21 15 7z m45 -41 c0 -5 -2 -10 -4 -10 -3 0 -8 5 -11
10 -3 6 -1 10 4 10 6 0 11 -4 11 -10z m74 -322 c7 -5 5 -8 -5 -8 -22 0 -29 9
-21 28 5 13 6 14 10 1 3 -7 10 -17 16 -21z m146 -43 c0 -5 -5 -3 -10 5 -5 8
-10 20 -10 25 0 6 5 3 10 -5 5 -8 10 -19 10 -25z m-40 15 c0 -5 -4 -10 -10
-10 -5 0 -10 5 -10 10 0 6 5 10 10 10 6 0 10 -4 10 -10z m75 -40 c3 -5 1 -10
-4 -10 -6 0 -11 5 -11 10 0 6 2 10 4 10 3 0 8 -4 11 -10z"/>
<path d="M2892 1868 c6 -18 28 -21 28 -4 0 9 -7 16 -16 16 -9 0 -14 -5 -12
-12z"/>
<path d="M2961 1864 c0 -11 3 -14 6 -6 3 7 2 16 -1 19 -3 4 -6 -2 -5 -13z"/>
<path d="M2994 1869 c-10 -17 13 -36 27 -22 12 12 4 33 -11 33 -5 0 -12 -5
-16 -11z"/>
<path d="M1863 1700 c0 -25 2 -35 4 -22 2 12 2 32 0 45 -2 12 -4 2 -4 -23z"/>
<path d="M3210 1726 c0 -7 6 -26 14 -40 11 -23 15 -24 26 -12 14 18 4 39 -17
32 -11 -4 -13 -1 -8 14 4 11 2 20 -4 20 -6 0 -11 -6 -11 -14z"/>
<path d="M3201 1644 c0 -11 3 -14 6 -6 3 7 2 16 -1 19 -3 4 -6 -2 -5 -13z"/>
<path d="M3147 1588 c-8 -28 1 -42 18 -28 13 11 9 50 -5 50 -4 0 -10 -10 -13
-22z"/>
<path d="M3061 1574 c0 -11 3 -14 6 -6 3 7 2 16 -1 19 -3 4 -6 -2 -5 -13z"/>
<path d="M3100 1569 c0 -5 5 -7 10 -4 6 3 10 8 10 11 0 2 -4 4 -10 4 -5 0 -10
-5 -10 -11z"/>
<path d="M4282 1523 c-34 -7 -39 -32 -12 -53 25 -19 60 -16 60 6 0 7 8 17 18
23 15 8 14 11 -11 20 -16 6 -29 10 -30 10 -1 -1 -12 -4 -25 -6z"/>
<path d="M4556 1521 c-5 -7 -3 -18 3 -24 14 -14 20 -6 11 17 -5 15 -9 16 -14
7z"/>
<path d="M2170 1451 c0 -5 7 -15 17 -22 15 -13 15 -12 4 9 -12 23 -21 28 -21
13z"/>
<path d="M1751 1259 c-10 -17 -15 -19 -21 -8 -5 7 -12 10 -16 7 -9 -10 19 -35
34 -30 9 3 11 -3 7 -20 -5 -19 -2 -25 10 -25 13 0 15 6 9 26 -4 14 -6 36 -6
49 2 27 0 27 -17 1z"/>
<path d="M2040 1220 c0 -11 4 -20 9 -20 5 0 7 9 4 20 -3 11 -7 20 -9 20 -2 0
-4 -9 -4 -20z"/>
<path d="M2069 1190 c-17 -18 -13 -36 10 -42 8 -2 14 8 16 24 4 34 -5 40 -26
18z"/>
<path d="M1822 1180 c0 -14 2 -19 5 -12 2 6 2 18 0 25 -3 6 -5 1 -5 -13z"/>
<path d="M3294 1189 c-29 -8 -32 -13 -36 -54 -2 -37 0 -45 14 -45 9 0 19 6 21
13 4 7 6 6 6 -5 1 -18 33 -18 39 0 5 15 32 3 32 -14 0 -24 30 -15 40 11 10 27
34 33 44 13 4 -7 4 -3 2 9 -2 12 1 24 8 27 7 3 7 5 -1 5 -7 1 -13 7 -13 15 0
15 -58 28 -66 14 -3 -4 0 -8 6 -8 6 0 8 -5 5 -11 -10 -16 -30 -5 -30 17 0 22
-25 27 -71 13z"/>
<path d="M1907 1173 c-4 -3 -7 -11 -7 -17 0 -6 5 -5 12 2 6 6 9 14 7 17 -3 3
-9 2 -12 -2z"/>
<path d="M3076 1147 c1 -48 3 -57 12 -57 4 0 6 17 5 37 -2 53 -2 53 -10 53 -5
0 -8 -15 -7 -33z"/>
<path d="M3170 1165 c7 -8 10 -25 6 -40 -4 -14 -2 -25 4 -25 5 0 10 7 10 15 0
8 5 15 10 15 15 0 12 19 -4 36 -20 20 -43 19 -26 -1z"/>
<path d="M3042 1158 c-7 -9 -6 -17 4 -26 12 -11 14 -9 14 13 0 28 -3 30 -18
13z"/>
<path d="M1780 1153 c1 -18 18 -35 24 -24 4 6 4 16 1 21 -7 12 -25 13 -25 3z"/>
<path d="M1930 1140 c0 -12 47 -14 54 -2 2 4 -9 9 -25 10 -16 1 -29 -2 -29 -8z"/>
<path d="M2010 1115 c0 -8 5 -15 10 -15 6 0 10 -7 10 -15 0 -8 5 -15 10 -15
14 0 12 22 -4 43 -16 21 -26 22 -26 2z"/>
<path d="M3106 1081 c-3 -5 1 -11 9 -15 8 -3 15 -1 15 4 0 13 -18 22 -24 11z"/>
<path d="M1223 1003 c-29 -32 -53 -63 -53 -69 0 -6 -9 -23 -20 -37 -11 -14
-20 -34 -20 -45 0 -11 -7 -22 -15 -26 -8 -3 -15 -12 -15 -21 0 -38 -111 -172
-352 -427 -10 -10 -18 -21 -18 -24 0 -3 -25 -30 -55 -61 -30 -31 -55 -60 -55
-65 0 -4 -4 -8 -9 -8 -6 0 -25 -13 -43 -30 -18 -16 -48 -35 -67 -41 -20 -7
-42 -18 -49 -26 -7 -7 -19 -13 -27 -13 -7 0 -15 -4 -17 -8 -1 -4 -37 -25 -78
-46 -41 -21 -79 -42 -85 -47 -5 -5 267 -9 649 -9 361 0 655 3 653 7 -16 32
-122 253 -129 273 -6 14 -14 32 -18 40 -4 9 -11 30 -15 48 -3 18 -10 32 -14
32 -4 0 -20 42 -35 93 -16 50 -37 118 -48 149 -20 63 -25 232 -9 284 17 53 23
134 10 134 -7 0 -36 -26 -66 -57z"/>
<path d="M2520 1049 c0 -5 5 -7 12 -3 8 5 9 2 4 -11 -5 -15 -4 -16 9 -5 13 11
13 15 3 21 -18 12 -28 11 -28 -2z"/>
<path d="M2050 1030 c0 -5 5 -10 10 -10 6 0 10 5 10 10 0 6 -4 10 -10 10 -5 0
-10 -4 -10 -10z"/>
<path d="M2030 956 c0 -9 5 -16 10 -16 6 0 10 4 10 9 0 6 -4 13 -10 16 -5 3
-10 -1 -10 -9z"/>
<path d="M2630 710 c0 -5 5 -10 10 -10 6 0 10 5 10 10 0 6 -4 10 -10 10 -5 0
-10 -4 -10 -10z"/>
<path d="M4379 325 c-11 -58 -14 -134 -10 -277 l1 -48 44 0 c25 0 48 5 51 10
3 6 2 10 -3 10 -14 0 -24 32 -12 40 11 7 -14 158 -30 174 -6 6 -10 19 -10 31
-1 22 -28 76 -31 60z"/>
<path d="M4073 287 c-13 -7 -35 -37 -50 -67 -15 -30 -43 -72 -62 -92 -18 -21
-45 -53 -58 -72 -12 -19 -31 -40 -41 -45 -14 -9 -11 -10 18 -11 31 0 41 7 80
57 70 89 150 214 150 233 0 13 -10 12 -37 -3z"/>
<path d="M4810 124 c0 -14 3 -14 15 -4 8 7 15 14 15 16 0 2 -7 4 -15 4 -8 0
-15 -7 -15 -16z"/>
<path d="M4880 101 c-20 -8 -24 -31 -5 -31 8 0 15 -7 15 -16 0 -8 5 -12 10 -9
6 4 7 11 4 17 -5 7 -2 8 5 4 8 -5 10 -19 6 -37 -4 -17 -2 -29 3 -29 6 0 12 8
14 17 3 16 4 16 20 0 18 -18 48 -23 48 -7 0 5 -6 13 -14 17 -8 4 -15 17 -17
28 -3 15 -14 21 -38 23 -22 2 -30 6 -22 11 17 11 -8 21 -29 12z"/>
<path d="M5050 20 c0 -5 5 -10 10 -10 6 0 10 5 10 10 0 6 -4 10 -10 10 -5 0
-10 -4 -10 -10z"/>
</g>
</svg>
