<?xml version="1.0" standalone="no"?>
<!DOCTYPE svg PUBLIC "-//W3C//DTD SVG 20010904//EN"
 "http://www.w3.org/TR/2001/REC-SVG-20010904/DTD/svg10.dtd">
<svg version="1.0" xmlns="http://www.w3.org/2000/svg"
 width="677.000000pt" height="677.000000pt" viewBox="0 0 677.000000 677.000000"
 preserveAspectRatio="xMidYMid meet">
<metadata>
Created by potrace 1.14, written by Peter Selinger 2001-2017
</metadata>
<g transform="translate(0.000000,677.000000) scale(0.100000,-0.100000)"
fill="#000000" stroke="none">
<path d="M2694 6560 c-5 -5 -22 -11 -37 -12 -14 -1 -29 -9 -32 -16 -3 -8 -11
-12 -19 -9 -8 3 -34 -6 -58 -21 -23 -15 -63 -37 -88 -49 -25 -12 -61 -38 -79
-57 -19 -20 -40 -36 -47 -36 -17 0 -54 -66 -54 -95 0 -13 -7 -31 -16 -39 -8
-9 -13 -16 -11 -16 3 0 -3 -21 -13 -47 -12 -31 -24 -49 -36 -50 -11 -2 -13 0
-6 3 19 9 14 24 -8 24 -12 0 -20 -7 -20 -17 0 -15 -2 -16 -10 -3 -6 10 -6 16
0 18 13 5 13 82 0 82 -6 0 -10 -6 -9 -12 3 -28 -2 -47 -16 -62 -31 -30 -45
-83 -39 -139 5 -43 3 -55 -11 -67 -15 -12 -18 -12 -26 2 -5 10 -16 24 -24 32
-18 17 -35 60 -35 86 0 11 -11 30 -25 44 -16 17 -25 36 -25 58 0 18 -3 43 -6
55 -4 15 1 28 20 44 21 18 26 32 26 67 l0 44 -35 -42 c-19 -23 -35 -48 -35
-55 0 -7 -8 -23 -18 -36 -16 -18 -28 -22 -67 -21 -50 2 -65 -7 -65 -40 0 -10
7 -18 16 -18 11 0 14 -5 10 -16 -3 -9 -6 -22 -6 -30 0 -18 -34 -18 -49 0 -6 7
-9 21 -5 30 5 12 0 16 -20 16 -19 0 -26 -5 -26 -20 0 -15 -9 -22 -31 -27 -26
-5 -30 -9 -24 -27 14 -45 17 -66 9 -66 -29 1 -65 73 -45 93 6 6 11 15 11 20 0
12 -91 -3 -115 -19 -18 -11 -47 -20 -77 -23 -5 -1 -6 -18 -3 -38 3 -21 2 -46
-1 -55 -7 -22 -54 -25 -54 -3 0 8 -4 15 -10 15 -5 0 -10 -13 -10 -29 0 -17 -5
-33 -11 -37 -16 -9 -43 -76 -40 -97 2 -15 -2 -17 -17 -13 -11 4 -23 2 -26 -3
-9 -14 19 -38 60 -51 33 -11 35 -14 20 -28 -14 -15 -19 -13 -49 16 -42 41 -70
43 -61 5 7 -25 6 -26 -30 -20 -27 4 -39 2 -43 -8 -3 -8 -8 -13 -12 -11 -4 3
-18 -39 -32 -92 -19 -77 -22 -106 -15 -139 6 -30 5 -51 -4 -73 -12 -29 -19
-32 -65 -34 -12 -1 -21 -10 -23 -21 -2 -11 -8 -30 -14 -41 -8 -17 -6 -28 7
-48 10 -14 14 -26 10 -26 -5 0 1 -8 12 -17 11 -10 18 -24 15 -32 -3 -10 1 -12
15 -9 11 3 27 1 36 -4 12 -6 20 -2 33 17 12 18 19 22 24 14 6 -8 21 -9 56 -2
l49 10 -28 11 c-32 13 -31 38 1 35 29 -3 46 21 32 47 -9 16 -8 21 5 26 8 4 24
4 35 1 11 -3 23 -1 26 4 8 14 44 10 50 -6 3 -8 14 -17 24 -20 10 -3 20 -15 23
-25 3 -11 12 -20 20 -20 9 0 18 -8 20 -17 4 -14 5 -12 6 5 0 12 7 22 14 22 17
0 57 -42 57 -59 0 -7 5 -9 10 -6 6 3 10 -3 10 -14 0 -11 9 -22 20 -26 11 -3
20 -15 20 -26 0 -12 11 -24 28 -32 28 -12 52 -31 52 -41 0 -4 -18 -3 -40 0
-29 5 -40 3 -40 -6 0 -10 -3 -10 -15 0 -11 10 -19 10 -27 2 -6 -6 -17 -8 -24
-5 -20 8 -17 -14 4 -26 12 -8 -11 -10 -86 -7 -89 3 -104 1 -110 -13 -10 -28
-28 -40 -60 -39 -19 1 -32 7 -35 17 -2 10 -16 17 -33 19 -33 2 -44 12 -48 38
-2 11 -8 20 -14 20 -7 1 -18 2 -24 3 -7 1 -21 15 -31 32 -15 28 -21 31 -49 25
-42 -8 -44 -11 -20 -41 17 -22 22 -23 29 -10 8 13 11 13 31 -1 12 -8 22 -22
22 -30 0 -11 6 -13 20 -9 24 8 27 -11 5 -35 -14 -15 -13 -19 2 -37 20 -22 107
-53 138 -49 27 3 58 17 68 30 5 7 7 2 4 -11 -3 -16 0 -23 9 -23 8 0 14 7 14
15 0 18 27 20 32 3 3 -8 15 -5 40 10 36 22 82 29 92 13 3 -5 20 -7 38 -6 18 2
40 3 48 4 11 1 11 4 2 13 -19 19 -14 28 18 28 19 0 30 -5 30 -14 0 -8 11 -23
25 -34 23 -18 24 -22 10 -35 -8 -9 -15 -22 -15 -30 0 -8 -8 -17 -17 -21 -19
-6 -55 -27 -63 -37 -13 -16 -56 -31 -96 -33 -24 -1 -52 -10 -62 -19 -21 -19
-67 -23 -77 -7 -4 6 -11 7 -17 4 -6 -4 -14 0 -19 7 -7 11 -9 10 -9 -3 0 -11 8
-18 20 -18 11 0 20 -5 20 -11 0 -6 -6 -9 -14 -6 -19 8 -66 -5 -66 -18 0 -5 8
-10 18 -10 9 -1 23 -4 30 -8 7 -5 12 -3 12 3 0 7 7 9 16 6 11 -4 18 1 21 14 4
15 11 19 25 14 12 -3 24 -1 28 6 5 8 15 10 26 5 15 -7 16 -9 4 -12 -8 -2 -24
-17 -35 -33 -11 -17 -28 -30 -37 -30 -14 0 -17 -8 -16 -37 1 -20 -4 -39 -10
-41 -7 -2 -12 -8 -12 -13 0 -18 26 -9 51 19 40 42 106 92 123 92 8 0 18 -4 21
-10 8 -13 45 -13 45 1 0 5 5 7 11 3 8 -5 8 -9 -1 -14 -6 -4 -11 -10 -11 -14 5
-33 -1 -56 -14 -56 -8 0 -15 -5 -15 -10 0 -6 -3 -9 -7 -8 -13 4 -71 -31 -85
-50 -16 -23 -55 -45 -67 -38 -5 3 -11 -8 -15 -24 -4 -24 -11 -30 -31 -30 l-25
0 21 -21 c20 -20 19 -56 -4 -70 -5 -4 -7 -12 -3 -18 10 -15 56 16 57 38 0 12
2 11 9 -4 7 -19 8 -19 15 -2 5 11 14 16 25 12 10 -3 21 -1 25 5 3 5 17 7 30 4
17 -4 25 -1 29 14 4 11 13 23 21 26 21 8 19 33 -4 45 -10 6 -21 8 -23 5 -3 -3
-8 2 -11 9 -4 10 0 13 13 10 10 -3 21 0 24 6 8 12 27 15 25 4 -6 -37 0 -41 42
-26 47 16 62 10 33 -13 -18 -15 -17 -15 13 -10 30 5 32 3 31 -22 0 -15 3 -38
6 -52 6 -24 6 -24 -3 -2 -14 30 -29 28 -33 -5 -2 -20 -9 -29 -25 -31 -15 -2
-23 -10 -23 -23 0 -11 -8 -22 -17 -25 -10 -3 -25 -9 -33 -13 -18 -10 -25 -64
-7 -58 7 3 11 10 9 16 -2 8 8 11 27 8 17 -3 32 0 35 6 3 8 8 8 14 -2 9 -12 13
-12 26 -2 13 11 17 11 22 -3 8 -22 26 -20 58 5 15 12 30 19 33 15 8 -7 -16
-36 -31 -36 -7 0 -10 -16 -8 -45 4 -40 2 -46 -22 -55 -14 -5 -26 -16 -26 -25
0 -24 -18 -18 -22 7 -2 13 -11 24 -22 26 -12 3 -16 0 -11 -8 4 -7 -1 -13 -13
-17 -11 -3 -19 -10 -16 -16 5 -16 -47 -40 -59 -28 -6 6 -1 13 11 20 23 12 37
92 15 84 -16 -6 -43 -48 -43 -67 0 -8 -6 -16 -12 -19 -10 -3 -8 -9 5 -24 21
-24 22 -37 2 -29 -11 4 -15 -1 -15 -19 0 -14 5 -25 10 -25 6 0 10 -13 10 -30
0 -20 -5 -30 -15 -30 -11 0 -15 -12 -15 -48 0 -42 -3 -50 -30 -66 -30 -17 -31
-17 -63 11 -38 32 -57 66 -57 100 0 13 -4 23 -10 23 -5 0 -7 7 -4 15 8 20 -7
19 -50 -2 -23 -12 -36 -25 -36 -39 0 -11 -5 -25 -11 -31 -9 -9 -8 -18 5 -37
15 -25 15 -26 -1 -26 -18 -1 -75 -29 -59 -30 5 0 3 -7 -4 -15 -15 -18 -6 -45
15 -45 8 0 15 -4 15 -10 0 -5 -13 -10 -30 -10 -16 0 -30 -4 -30 -10 0 -5 -9
-10 -20 -10 -11 0 -36 -6 -55 -14 -28 -12 -33 -19 -31 -41 3 -31 31 -65 68
-84 15 -8 25 -17 23 -21 -2 -3 10 -19 27 -36 l32 -29 -27 -3 c-18 -2 -25 -7
-20 -15 4 -7 8 -19 8 -27 0 -9 7 -14 19 -12 15 3 17 -1 12 -23 -4 -16 -3 -24
3 -21 5 3 12 -10 15 -29 4 -22 13 -35 22 -35 8 0 13 -4 9 -9 -3 -5 0 -13 6
-17 6 -3 14 -1 18 5 7 11 21 -10 36 -54 6 -19 7 -19 19 -2 7 9 21 17 30 17 9
0 16 7 16 15 0 8 5 15 10 15 6 0 8 -11 4 -25 -5 -19 -2 -25 10 -25 9 0 16 -4
16 -10 0 -5 7 -10 15 -10 11 0 15 -12 15 -44 0 -53 8 -60 47 -44 15 6 33 10
39 9 17 -2 67 68 70 98 7 62 25 125 45 152 11 16 23 29 26 29 18 0 83 -25 83
-32 0 -4 6 -8 14 -8 7 0 19 -7 26 -15 7 -8 20 -15 30 -15 10 0 32 -13 50 -30
18 -16 36 -30 41 -30 5 0 9 -10 9 -22 0 -19 2 -20 10 -8 8 13 10 12 10 -2 0
-11 -8 -18 -20 -18 -11 0 -20 -4 -20 -10 0 -5 9 -10 20 -10 12 0 20 -6 19 -12
-1 -7 -1 -24 0 -38 2 -24 3 -24 11 -4 13 32 30 39 37 15 3 -12 11 -21 18 -21
7 0 15 -9 18 -20 3 -11 2 -20 -2 -20 -12 0 -7 -84 6 -98 6 -7 10 -21 8 -32 -2
-11 1 -22 6 -26 6 -4 8 -28 3 -62 -3 -32 -3 -54 1 -50 12 12 34 -24 35 -54 0
-15 -4 -30 -10 -33 -5 -3 -10 -15 -10 -26 0 -16 6 -20 28 -17 27 3 28 2 31
-44 0 -10 6 -18 12 -18 7 0 42 -30 79 -67 36 -38 86 -78 111 -90 24 -12 58
-35 76 -52 25 -23 48 -32 105 -41 40 -6 91 -16 114 -22 38 -9 72 -13 136 -17
21 -1 26 -5 21 -18 -4 -10 -2 -14 4 -10 6 4 14 -1 18 -10 3 -11 1 -19 -7 -22
-7 -2 -25 -17 -40 -33 -29 -32 -38 -35 -38 -13 0 8 -4 15 -10 15 -12 0 -12 2
-1 -37 10 -33 -2 -56 -13 -27 -5 13 -9 14 -21 4 -8 -7 -12 -16 -9 -21 3 -5 2
-8 -3 -7 -12 4 -53 -34 -53 -49 0 -7 -3 -12 -7 -11 -17 4 -62 -26 -66 -43 -3
-12 -14 -19 -31 -19 -35 0 -75 -20 -81 -41 -3 -10 -16 -21 -28 -25 -12 -3 -30
-13 -40 -22 -16 -15 -17 -14 -11 2 6 15 3 17 -14 11 -13 -4 -22 -2 -22 4 0 6
-4 11 -10 11 -5 0 -10 -9 -10 -20 0 -23 -29 -60 -46 -60 -7 0 -14 7 -18 15 -3
8 -12 15 -21 15 -8 0 -15 5 -15 10 0 6 5 10 10 10 6 0 10 7 10 15 0 8 -4 15
-9 15 -13 0 -23 -34 -15 -54 7 -19 0 -20 -27 -5 -11 5 -17 14 -14 20 4 5 2 9
-3 9 -6 0 -12 -6 -15 -13 -3 -9 -16 -12 -36 -9 -20 3 -31 0 -31 -8 0 -10 -3
-10 -15 0 -10 9 -15 9 -15 1 0 -6 -7 -11 -15 -11 -12 0 -15 -14 -16 -62 -1
-35 -1 -71 0 -80 1 -10 -2 -18 -6 -18 -5 0 -10 -13 -11 -30 -1 -17 3 -30 9
-30 8 0 10 -16 5 -53 -16 -146 -17 -155 -1 -161 17 -6 21 -36 4 -36 -18 0 -1
-73 22 -92 22 -19 25 -53 5 -61 -11 -4 -13 -14 -7 -34 9 -36 3 -63 -15 -63 -8
0 -14 -10 -14 -22 0 -13 -4 -29 -9 -37 -10 -16 -31 -6 -31 15 0 8 -10 14 -22
14 -21 0 -21 1 -5 18 16 15 19 15 28 2 7 -11 8 -7 3 15 -5 25 -4 28 7 18 20
-20 27 -16 21 12 -3 19 -8 23 -17 15 -9 -8 -14 -5 -18 10 -4 17 -28 26 -59 21
-5 0 -8 6 -8 15 0 8 -4 13 -8 10 -5 -3 -6 -27 -2 -54 3 -27 3 -58 -1 -68 -4
-11 -8 -13 -8 -5 -1 8 -8 11 -21 8 -18 -5 -20 0 -21 41 -1 26 -3 39 -6 30 -5
-22 -23 -24 -23 -3 0 8 -4 15 -10 15 -5 0 -10 -12 -10 -27 0 -35 -17 -18 -22
22 -3 25 -6 21 -17 -27 -13 -62 -8 -98 15 -98 16 0 19 -36 4 -45 -15 -9 -12
-42 5 -49 12 -4 14 0 9 19 -4 15 -2 25 5 25 6 0 11 -7 11 -15 0 -8 5 -15 11
-15 7 0 9 -11 6 -29 -3 -16 -1 -33 6 -41 9 -9 8 -11 -8 -8 -13 2 -19 10 -17
22 3 17 2 17 -21 0 -25 -19 -26 -25 -12 -57 10 -25 0 -108 -15 -117 -7 -4 -9
-14 -6 -21 4 -8 1 -5 -8 5 -14 17 -16 17 -22 3 -9 -24 -1 -52 16 -52 8 -1 14
-7 12 -14 -1 -7 3 -18 11 -25 8 -6 31 -33 53 -61 21 -27 47 -56 56 -63 10 -7
18 -19 18 -25 0 -7 10 -17 23 -23 62 -31 93 -49 103 -58 6 -6 28 -24 49 -41
21 -16 49 -43 64 -59 14 -15 46 -39 71 -52 76 -41 116 -68 161 -106 24 -21 48
-38 52 -38 5 0 5 -9 2 -20 -5 -17 -2 -20 25 -20 17 0 38 -6 45 -12 36 -33 47
-39 75 -44 16 -4 30 -10 30 -15 0 -5 5 -9 10 -9 11 0 24 -10 61 -43 10 -9 24
-17 29 -17 6 0 10 -6 10 -14 0 -8 18 -21 40 -30 34 -13 86 -16 320 -16 157 0
290 4 304 10 21 8 26 16 26 45 0 34 12 46 26 24 3 -6 0 -15 -7 -20 -11 -7 -12
-9 -1 -9 8 0 16 9 19 20 3 11 14 20 24 20 11 0 19 5 19 10 0 6 7 10 15 10 8 0
15 5 15 11 0 6 7 8 16 5 8 -3 12 -2 9 4 -3 6 0 10 7 11 16 1 161 17 207 23 50
7 132 27 168 43 l33 13 -23 23 c-12 12 -28 21 -34 19 -7 -2 -13 6 -13 18 0 28
-38 27 -50 -2 -5 -13 -9 -17 -9 -10 -1 6 -10 12 -20 12 -11 0 -23 5 -26 10 -3
6 -17 10 -30 10 -13 0 -27 5 -30 10 -4 7 -13 6 -26 -1 -17 -8 -23 -7 -35 8
-13 17 -15 22 -18 42 -2 15 -16 25 -16 12 0 -7 -4 -10 -9 -6 -5 3 -13 0 -17
-6 -4 -8 -9 -7 -15 2 -8 12 -11 11 -19 -1 -5 -8 -10 -10 -10 -5 0 6 -6 3 -13
-5 -7 -8 -31 -16 -54 -17 l-43 -2 0 37 c0 28 -3 33 -12 24 -15 -15 -48 -16
-48 -1 0 5 -4 8 -9 4 -5 -3 -13 0 -16 6 -4 5 -13 8 -21 5 -7 -3 -16 -1 -19 4
-10 16 -23 11 -30 -10 -8 -26 -20 -25 -53 5 -17 16 -30 21 -36 15 -14 -14 -43
-12 -53 3 -4 6 -12 12 -18 13 -34 1 -65 18 -65 35 0 25 -15 24 -26 -1 -9 -20
-11 -19 -47 14 -21 19 -36 40 -32 46 3 5 0 17 -9 25 -13 13 -15 13 -21 -5 -10
-31 -22 -24 -30 17 -9 49 -23 56 -50 27 l-23 -24 -4 25 c-4 20 -1 25 14 25 14
0 18 5 14 16 -3 9 -6 19 -6 22 0 4 -5 0 -11 -8 -7 -11 -12 -12 -15 -3 -3 7
-13 9 -22 6 -12 -3 -14 -2 -4 4 14 10 6 43 -10 43 -28 0 -50 54 -25 63 6 2 9
8 5 12 -13 14 -28 -7 -28 -41 0 -19 -4 -34 -10 -34 -5 0 -10 11 -10 24 0 35
-10 56 -26 56 -8 0 -14 -4 -14 -8 0 -4 -16 -8 -35 -9 -19 -1 -35 3 -35 8 0 5
4 9 9 9 15 0 19 25 11 68 -4 23 -3 42 1 42 5 0 9 -9 9 -20 0 -11 7 -20 16 -20
11 0 14 6 8 23 -3 12 -11 23 -15 25 -5 2 -9 16 -9 30 l-1 27 -29 -35 -29 -35
-1 28 c0 15 5 27 11 27 6 0 1 12 -10 26 -22 28 -27 54 -11 54 6 0 10 -4 10
-10 0 -5 7 -10 15 -10 8 0 15 -7 15 -15 0 -8 5 -15 10 -15 6 0 10 7 10 15 0 8
-4 15 -10 15 -5 0 -10 5 -10 10 0 6 12 10 26 10 14 0 23 4 19 10 -4 6 -10 8
-14 6 -11 -7 -6 34 5 42 5 4 9 44 9 89 -1 64 -5 86 -19 102 -17 19 -17 20 3
30 15 8 20 19 17 39 -5 42 -17 64 -32 58 -8 -3 -14 1 -14 10 0 8 4 13 9 9 5
-3 13 0 17 6 4 7 3 10 -2 6 -5 -3 -17 1 -27 8 -17 13 -17 14 4 20 14 5 25 2
30 -6 8 -12 11 -11 19 1 7 12 12 12 21 3 10 -10 19 -8 43 5 17 9 35 23 39 30
9 14 31 16 55 3 22 -12 54 -24 68 -25 6 -1 18 -9 28 -18 17 -18 34 -22 71 -18
17 2 18 0 5 -16 -8 -10 -10 -15 -3 -11 6 4 14 3 17 -2 3 -5 26 -6 50 -4 25 3
53 2 63 -3 10 -4 54 -9 98 -9 44 -1 127 -7 185 -15 100 -12 285 -9 338 6 12 3
22 14 22 24 0 10 7 20 15 24 29 11 16 33 -21 34 -20 1 -42 6 -48 12 -9 6 -16
6 -23 -1 -8 -8 -20 -6 -43 7 -30 18 -32 18 -41 2 -11 -20 -73 -25 -84 -8 -3 5
-19 10 -34 10 -15 0 -31 3 -34 7 -4 3 -19 8 -34 9 -14 2 -30 9 -34 15 -4 7
-16 14 -26 15 -57 8 -83 16 -83 24 0 17 5 25 15 26 6 0 32 4 58 8 48 7 48 8
44 42 -3 19 -1 34 3 34 4 0 11 12 14 26 6 22 10 25 36 19 19 -4 30 -3 30 4 0
6 9 11 21 11 11 0 17 4 14 10 -3 5 1 10 9 10 9 0 16 -7 16 -15 0 -8 -8 -15
-17 -15 -15 0 -14 -2 3 -14 17 -13 17 -17 5 -38 -10 -18 -10 -20 0 -10 20 18
43 15 58 -9 10 -17 15 -19 21 -9 7 11 11 11 24 1 9 -8 16 -19 16 -26 0 -14 58
-26 66 -14 2 5 11 6 19 2 9 -3 15 1 15 11 0 9 -7 16 -15 16 -18 0 -18 8 0 40
21 38 18 56 -17 96 -22 24 -29 39 -20 42 6 2 12 12 12 22 0 19 60 70 83 70 8
0 17 7 21 15 3 8 10 15 17 15 6 0 18 9 27 21 13 15 30 20 70 21 29 1 56 6 60
12 4 6 14 11 22 11 8 0 16 7 18 16 2 12 -6 18 -32 21 -19 2 -44 1 -54 -3 -11
-4 -39 -10 -63 -12 -24 -3 -66 -11 -92 -17 -39 -10 -53 -10 -73 0 -13 8 -24
19 -24 27 0 7 -9 13 -20 13 -11 0 -23 7 -26 15 -5 12 -9 13 -21 3 -12 -10 -19
-6 -38 19 -19 23 -30 29 -50 26 -15 -3 -25 -1 -25 6 0 25 -69 5 -97 -29 -11
-13 -12 -13 -13 4 0 11 -5 16 -14 13 -7 -3 -18 -1 -24 5 -8 8 -15 8 -24 1 -7
-6 -33 -8 -58 -6 -25 3 -63 7 -85 8 -22 1 -44 3 -50 5 -5 1 -16 3 -24 4 -8 0
-19 16 -23 34 -5 18 -13 30 -17 27 -5 -3 -12 2 -15 11 -8 22 -8 22 12 27 16 4
16 5 0 6 -10 0 -18 7 -18 15 0 8 -4 16 -8 18 -13 5 1 113 16 112 6 -1 17 -2
22 -3 6 0 10 -10 10 -22 0 -11 5 -19 11 -17 6 2 9 6 7 9 -2 3 4 12 12 21 10
10 29 14 57 11 35 -2 44 1 53 18 7 11 8 24 4 27 -4 4 -9 1 -11 -5 -8 -23 -35
-15 -28 7 5 15 3 18 -10 14 -13 -6 -15 0 -9 37 7 45 11 54 22 54 9 1 62 50 62
58 0 3 10 17 23 30 12 13 27 32 34 43 8 12 10 13 7 3 -3 -11 2 -18 16 -22 17
-4 19 -3 10 8 -12 14 3 52 27 67 6 5 9 16 6 26 -2 10 6 29 20 44 13 14 24 32
24 39 2 24 43 130 74 190 39 74 88 112 154 119 48 5 51 4 88 -35 82 -86 106
-138 122 -255 9 -66 53 -184 75 -200 4 -3 15 -21 25 -40 10 -19 21 -37 24 -40
4 -3 24 -32 46 -65 44 -68 111 -134 161 -161 27 -15 35 -27 43 -63 5 -25 8
-48 5 -52 -2 -4 13 -25 34 -46 93 -98 122 -132 122 -140 0 -4 10 -13 22 -18
25 -11 42 -37 99 -155 87 -177 88 -178 90 -280 2 -52 -1 -106 -5 -119 -6 -16
-5 -21 3 -17 6 4 11 14 11 22 0 8 7 14 15 14 9 0 20 11 24 24 5 13 17 26 25
29 9 4 16 14 16 24 0 10 7 27 15 38 20 26 10 169 -15 205 -9 14 -15 31 -12 39
3 8 0 11 -7 7 -6 -4 -17 9 -27 33 -9 23 -20 38 -25 35 -5 -3 -12 13 -15 36 -6
36 -24 67 -24 41 0 -6 -7 -11 -15 -11 -9 0 -15 6 -13 12 3 15 -30 69 -49 81
-8 5 -11 12 -8 18 4 5 -2 12 -11 16 -27 10 -50 37 -58 67 -3 14 -13 26 -21 26
-8 0 -15 6 -16 13 0 6 -2 23 -4 37 -3 21 3 29 27 39 16 8 42 13 56 13 15 0 36
7 48 15 12 7 55 17 95 22 117 13 254 65 323 121 28 23 88 88 100 109 94 161
116 215 162 385 12 44 27 69 60 102 24 24 51 44 59 44 23 0 65 49 65 76 0 13
3 24 8 24 4 0 17 26 29 58 36 96 36 99 11 113 -21 12 -33 14 -94 22 -23 2 -54
24 -54 38 0 14 38 11 42 -3 6 -18 61 -17 74 0 9 12 12 13 19 2 5 -9 14 5 25
41 17 54 22 53 34 -3 7 -31 30 -37 40 -12 4 9 -4 28 -19 46 -14 16 -25 35 -25
41 0 7 -5 30 -11 52 -10 34 -13 37 -23 23 -7 -9 -24 -20 -39 -23 -15 -4 -32
-15 -37 -24 -8 -13 -10 -13 -10 -1 0 8 -7 0 -15 -17 -8 -18 -18 -33 -23 -33
-5 0 -17 -18 -27 -40 -21 -46 -41 -50 -135 -25 -30 8 -82 17 -115 20 -94 10
-289 47 -304 59 -18 14 -84 21 -151 16 -19 -1 -73 -1 -120 0 -47 1 -89 1 -95
-1 -5 -1 -18 1 -28 6 -10 4 -42 3 -70 -3 -29 -6 -77 -16 -107 -22 -73 -14 -68
-12 -121 -38 -61 -30 -170 -39 -189 -17 -13 15 -62 45 -75 45 -3 0 -5 -6 -5
-14 0 -7 -8 -20 -17 -27 -9 -8 -14 -9 -11 -4 4 6 0 19 -8 30 -13 17 -16 18
-24 5 -5 -9 -5 -19 1 -26 13 -16 -11 -24 -72 -24 -27 0 -49 -4 -49 -10 0 -16
-27 -12 -34 6 -3 8 -10 13 -15 9 -5 -3 -12 -1 -16 5 -3 5 -17 10 -31 10 -25 0
-48 34 -36 54 3 5 -1 5 -9 0 -18 -11 -66 -6 -104 11 -16 7 -51 22 -77 34 -27
11 -48 24 -48 30 0 5 -27 26 -59 45 -55 34 -63 36 -135 34 -55 -2 -76 -6 -76
-15 0 -11 -6 -10 -29 1 -43 23 -76 27 -200 27 -68 0 -122 4 -135 11 -11 7 -31
11 -42 9 -12 -1 -24 5 -28 14 -3 9 -10 13 -16 10 -6 -3 -31 -8 -57 -11 -26 -2
-49 -8 -53 -13 -9 -15 -79 -26 -155 -25 -94 2 -135 12 -135 34 0 25 -10 31
-33 19 -14 -8 -22 -8 -27 1 -5 8 -31 12 -69 11 -45 0 -61 3 -61 13 0 9 -10 12
-30 10 -24 -3 -30 0 -30 15 0 11 -6 22 -12 24 -9 4 -10 8 -3 14 6 4 17 22 25
38 l14 30 4 -25 c4 -29 22 -51 23 -29 1 7 1 32 1 54 -1 22 2 32 4 23 7 -22 34
-24 34 -3 0 9 6 12 17 8 10 -4 14 -2 10 4 -9 15 3 44 14 37 5 -3 9 2 9 11 0 9
-5 13 -11 9 -16 -10 -29 17 -22 46 9 39 33 62 50 49 10 -9 13 -7 13 10 0 14
-6 21 -18 21 -10 0 -23 5 -30 12 -9 9 -12 9 -12 0 0 -7 -4 -12 -10 -12 -15 0
-12 40 4 46 23 9 7 44 -20 44 -13 0 -24 -5 -24 -11 0 -6 -7 -8 -16 -5 -9 4
-23 1 -30 -5 -8 -6 -14 -8 -14 -5 0 11 27 36 40 36 6 0 22 11 35 24 24 24 24
25 4 31 -26 9 -22 19 20 47 25 17 35 31 36 53 2 40 -11 65 -35 65 -34 0 -23
37 20 71 22 18 40 42 41 53 0 12 3 15 6 9 8 -22 23 -14 23 12 0 13 6 28 14 32
19 10 17 25 -3 40 -13 10 -14 15 -4 32 7 11 10 27 7 34 -3 8 2 17 11 21 12 4
14 14 9 41 -3 19 -2 35 2 35 5 0 15 14 23 31 11 25 18 30 37 26 38 -7 41 28
15 133 -6 24 -9 28 -10 13 -1 -25 -21 -32 -21 -9 0 22 18 29 74 31 46 2 51 4
51 25 0 18 8 26 33 32 20 5 37 18 42 31 8 20 9 20 9 3 1 -20 1 -20 16 0 11 15
17 16 23 6 9 -14 41 -6 55 12 5 7 10 6 17 -4 7 -12 12 -12 22 -2 6 6 21 12 33
12 12 0 25 4 31 9 13 13 45 16 68 6 11 -5 26 -4 36 3 12 7 36 8 69 3 57 -9 74
-3 66 25 -6 18 -6 18 10 -1 l16 -20 16 20 c14 18 15 18 9 1 -5 -16 -3 -17 21
-11 15 3 32 14 39 23 12 16 13 16 19 0 4 -10 15 -18 25 -18 11 0 21 -4 25 -9
3 -6 17 -6 34 -1 22 6 31 5 35 -6 3 -8 14 -14 24 -14 10 0 23 -5 29 -11 5 -5
34 -13 64 -16 34 -4 60 -13 69 -24 9 -9 32 -20 52 -24 29 -5 38 -3 46 11 9 16
10 15 16 -4 9 -27 41 -46 67 -39 11 3 33 -1 49 -9 16 -9 40 -16 52 -16 13 -1
30 -7 38 -13 34 -26 123 -38 200 -26 41 7 80 16 86 22 7 6 22 8 32 5 11 -4 24
0 32 9 8 9 21 13 35 9 13 -3 33 1 47 10 14 9 58 17 118 21 52 3 96 7 98 9 2 3
17 0 34 -5 17 -4 36 -5 42 -1 6 4 41 7 78 8 37 1 74 7 82 13 11 9 20 10 36 1
16 -9 25 -8 36 0 7 7 25 10 39 7 18 -3 29 1 36 14 5 11 21 19 34 19 16 0 25 6
25 15 0 8 5 15 10 15 6 0 10 9 10 19 0 11 9 23 21 26 19 6 19 8 5 24 -9 10
-17 24 -17 32 -1 8 -5 -2 -9 -21 -7 -33 -7 -33 -9 -6 -1 24 -3 27 -16 16 -9
-7 -17 -11 -18 -9 -1 2 -9 17 -17 33 l-15 29 -3 -41 c-4 -50 -13 -53 -33 -9
-9 20 -21 31 -31 31 -10 -1 -18 2 -18 7 0 4 -11 20 -25 35 -26 28 -28 37 -25
92 2 43 -25 44 -34 0 -5 -24 -9 -29 -18 -20 -8 8 -8 15 -1 24 11 14 26 78 18
78 -2 0 -11 -13 -20 -30 -9 -16 -22 -30 -31 -30 -9 0 -12 -5 -8 -12 4 -7 3 -8
-4 -4 -7 4 -12 17 -12 28 0 44 23 144 42 186 11 24 18 46 14 49 -3 3 1 21 9
40 8 20 15 42 15 49 0 13 34 54 44 54 3 0 2 -24 0 -52 -9 -99 -3 -252 10 -268
8 -8 11 -21 9 -27 -3 -7 2 -13 11 -13 12 0 16 11 16 45 0 33 4 45 15 45 8 0
15 6 15 14 0 8 11 17 25 20 14 4 28 12 31 20 3 8 16 11 34 8 22 -3 30 0 30 11
0 18 73 97 89 97 14 0 14 -3 0 -34 -7 -14 -8 -33 -5 -43 7 -17 9 -16 27 6 18
22 20 23 44 7 14 -9 25 -24 26 -34 0 -9 9 3 20 27 11 24 30 54 43 66 17 16 22
29 19 49 -3 14 0 33 7 41 9 11 11 34 6 78 -3 34 -2 76 3 93 5 18 5 36 1 40 -5
5 -10 20 -12 34 -2 19 -10 26 -30 28 -23 3 -28 -1 -34 -25 -4 -15 -18 -43 -32
-61 -14 -18 -26 -47 -27 -65 -1 -18 -12 -48 -24 -67 -11 -19 -21 -40 -21 -46
0 -6 -7 -17 -15 -24 -12 -10 -16 -9 -21 3 -3 9 -2 22 2 29 17 27 14 50 -6 55
-23 6 -27 23 -5 23 8 0 15 8 15 18 0 13 2 14 9 4 7 -11 9 -11 14 2 4 10 1 16
-8 16 -17 0 -19 9 -5 30 8 13 10 12 10 -2 0 -29 18 -21 25 11 3 16 15 37 26
47 10 9 19 23 19 30 0 7 14 24 31 38 35 30 96 36 105 11 4 -9 13 -13 23 -10
10 3 26 -3 37 -13 29 -26 92 -51 156 -60 78 -12 85 -4 42 47 -17 21 -38 33
-65 37 -25 4 -44 15 -54 31 -9 13 -20 21 -24 18 -5 -2 -14 1 -20 9 -6 8 -33
24 -59 35 -26 12 -74 38 -107 58 -55 32 -110 54 -218 85 -23 6 -45 11 -50 10
-4 -1 -24 5 -45 14 -25 11 -52 14 -84 9 -43 -5 -48 -4 -48 14 0 19 -34 36 -89
43 -14 2 -26 8 -28 15 -4 11 12 11 70 -3 17 -4 27 -2 27 5 0 6 -9 11 -20 11
-11 0 -20 6 -20 14 0 21 -18 29 -58 28 -42 -2 -53 4 -45 23 3 10 20 15 49 15
24 0 44 5 44 10 0 13 -177 14 -184 1 -3 -5 -43 -12 -88 -17 -98 -9 -84 -6
-129 -26 -20 -9 -50 -19 -68 -23 -17 -3 -31 -10 -31 -15 0 -4 -9 -10 -21 -13
-16 -4 -19 -11 -14 -26 5 -16 -4 -30 -37 -61 -45 -41 -64 -51 -54 -25 3 8 9
22 12 30 9 21 -22 30 -41 12 -8 -9 -15 -18 -15 -22 0 -4 -7 -14 -16 -23 -15
-14 -15 -17 0 -28 11 -8 13 -14 7 -19 -6 -3 -14 1 -17 9 -7 18 -39 22 -49 6
-3 -5 -12 -10 -18 -9 -9 0 -9 2 1 6 6 2 12 19 12 36 -1 27 -2 29 -11 14 -5 -9
-8 -20 -6 -25 8 -12 -30 -45 -38 -32 -11 17 44 90 78 103 9 3 17 14 17 23 0
13 -6 15 -27 11 -57 -12 -124 -49 -150 -84 -16 -20 -44 -53 -63 -74 -19 -20
-42 -45 -50 -56 -8 -10 -28 -29 -43 -42 l-27 -25 6 35 c4 19 14 48 22 64 8 17
18 36 21 44 4 8 16 16 26 17 11 2 25 10 31 18 6 9 16 16 23 16 6 0 11 8 12 18
0 10 3 12 6 5 5 -15 24 -18 21 -4 -2 5 14 27 35 50 37 40 37 41 13 41 -13 0
-26 -7 -30 -15 -3 -8 -15 -15 -26 -15 -11 0 -20 -7 -20 -15 0 -8 -7 -15 -15
-15 -8 0 -15 5 -15 10 0 12 28 58 47 78 19 20 16 22 -18 12 -17 -5 -39 -20
-50 -34 -11 -14 -28 -28 -39 -31 -10 -3 -22 -16 -26 -27 -7 -24 -16 -36 -61
-84 -18 -19 -33 -39 -33 -44 0 -6 -5 -10 -10 -10 -6 0 -16 -12 -23 -27 -16
-36 -67 -88 -86 -88 -9 0 -17 -9 -19 -20 -6 -31 -22 -43 -22 -16 0 13 10 37
22 54 13 18 23 34 24 37 0 3 4 17 8 32 5 15 6 33 4 39 -5 15 -62 -39 -86 -83
-23 -41 -47 -51 -27 -11 25 51 23 75 -7 83 -24 7 -27 5 -33 -24 -4 -17 -18
-55 -32 -85 -14 -30 -31 -73 -39 -95 -13 -41 -13 -41 -8 29 4 64 15 103 48
175 6 14 14 27 17 30 3 3 16 24 29 46 22 41 22 42 4 68 -17 23 -24 26 -66 22
-51 -4 -53 4 -11 37 34 27 28 39 -14 33 -63 -8 -136 -35 -133 -50 1 -4 -1 -12
-3 -19 -4 -9 -7 -9 -14 1 -7 9 -13 6 -23 -13 -7 -14 -17 -25 -21 -25 -4 0 -17
-16 -29 -35 -12 -19 -25 -33 -30 -30 -13 8 -29 -18 -66 -107 -22 -51 -38 -107
-41 -145 -3 -35 -10 -63 -14 -63 -5 0 -9 7 -9 16 0 8 -4 13 -9 10 -5 -3 -12
33 -16 82 -9 121 13 184 99 280 16 17 35 32 43 32 7 0 13 5 13 10 0 6 6 10 14
10 8 0 16 7 20 15 3 8 11 15 18 15 7 0 36 10 65 22 37 15 53 27 53 40 0 20
-20 24 -36 8z m186 -165 c0 -2 -16 -30 -36 -61 -20 -31 -40 -68 -43 -82 -4
-14 -12 -27 -18 -29 -16 -6 -1 53 24 97 11 19 25 45 32 58 10 19 41 32 41 17z
m310 -110 c-7 -9 -15 -13 -17 -11 -7 7 7 26 19 26 6 0 6 -6 -2 -15z m-65 -123
c-20 -37 -45 -76 -56 -87 -17 -18 -19 -18 -19 -2 0 22 26 74 51 100 10 12 19
24 19 29 0 12 35 45 38 36 2 -5 -13 -39 -33 -76z m342 11 c-15 -16 -17 -16
-17 -1 0 9 6 18 13 21 20 7 22 -2 4 -20z m-1621 -30 c-11 -11 -19 6 -11 24 8
17 8 17 12 0 3 -10 2 -21 -1 -24z m2384 -27 c0 -8 -4 -18 -10 -21 -5 -3 -10
-21 -10 -38 0 -24 -3 -28 -10 -17 -8 12 -10 11 -10 -8 0 -12 9 -30 20 -39 23
-20 25 -45 6 -76 -8 -12 -17 -33 -21 -45 -6 -22 -5 -23 17 -12 12 7 37 27 53
44 17 17 42 37 58 45 15 8 27 21 27 28 0 19 41 33 62 22 15 -8 10 -16 -35 -62
-131 -131 -187 -197 -187 -219 0 -13 -16 -41 -35 -63 -19 -22 -37 -48 -41 -57
-3 -10 -10 -18 -15 -18 -5 0 -9 -11 -9 -25 0 -20 -5 -25 -25 -25 -14 0 -28 6
-30 13 -3 6 1 48 9 92 7 44 13 81 12 82 -1 1 -14 -9 -29 -23 -23 -21 -27 -31
-21 -60 5 -28 3 -34 -10 -34 -10 0 -27 -20 -42 -52 l-26 -53 5 48 c3 26 12 56
21 66 9 10 16 32 16 49 0 17 5 34 11 38 7 4 9 21 5 47 -6 36 -4 43 20 64 20
17 23 23 11 23 -10 0 -17 8 -17 19 0 10 -7 21 -15 25 -12 4 -15 21 -14 71 2
66 12 92 22 55 6 -25 33 -17 40 12 5 16 11 19 31 14 25 -6 26 -5 26 40 0 41 2
45 16 33 16 -13 16 -60 -1 -101 -4 -11 -3 -18 4 -18 6 0 11 6 11 13 0 7 8 20
18 29 29 28 42 47 42 62 0 16 26 46 41 46 5 0 9 -6 9 -14z m-1065 -49 c-7 -23
-21 -67 -30 -97 -10 -30 -21 -64 -26 -75 -4 -11 -10 -27 -13 -35 -3 -8 -4 -3
-3 12 3 18 -1 29 -12 33 -11 4 -12 8 -4 13 9 6 53 144 53 166 0 3 7 12 16 20
25 26 34 9 19 -37z m-410 33 c-3 -5 -10 -10 -16 -10 -5 0 -9 5 -9 10 0 6 7 10
16 10 8 0 12 -4 9 -10z m-905 -57 c0 -7 11 -13 24 -13 16 0 27 -7 31 -20 3
-11 12 -20 20 -20 9 0 12 -10 10 -31 -3 -18 -6 -34 -9 -36 -10 -10 -36 31 -36
57 0 29 -19 53 -21 28 -1 -7 -3 -20 -4 -28 -1 -8 -3 -21 -4 -27 -2 -18 -30
-16 -37 1 -4 10 -19 14 -50 12 -24 -2 -41 1 -38 5 3 5 -5 9 -16 9 -13 0 -24
-8 -27 -20 -3 -11 -7 -20 -10 -20 -2 0 -13 9 -25 20 l-22 20 27 0 c15 0 36 6
47 13 14 8 23 9 28 2 10 -14 49 -12 64 3 10 10 9 18 -5 42 -10 17 -16 34 -12
39 7 13 65 -20 65 -36z m2573 12 c-3 -9 -8 -14 -10 -11 -3 3 -2 9 2 15 9 16
15 13 8 -4z m-1456 -17 c-3 -8 -6 -5 -6 6 -1 11 2 17 5 13 3 -3 4 -12 1 -19z
m-804 -15 c2 -5 7 -25 11 -46 l7 -38 -20 20 c-21 21 -29 71 -12 71 6 0 12 -3
14 -7z m792 -75 c-9 -57 -25 -73 -25 -26 0 43 8 68 22 68 6 0 7 -17 3 -42z
m1603 7 c-7 -16 -15 -22 -21 -16 -13 13 -1 41 17 41 13 0 14 -4 4 -25z m-612
-11 c-4 -9 -9 -15 -11 -12 -3 3 -3 13 1 22 4 9 9 15 11 12 3 -3 3 -13 -1 -22z
m-2349 0 c-3 -3 -12 -4 -19 -1 -8 3 -5 6 6 6 11 1 17 -2 13 -5z m173 -29 c0
17 39 -28 49 -56 14 -39 2 -36 -42 10 -37 39 -53 77 -22 51 8 -7 15 -9 15 -5z
m-330 -5 c0 -5 -2 -10 -4 -10 -3 0 -8 5 -11 10 -3 6 -1 10 4 10 6 0 11 -4 11
-10z m510 -15 c0 -14 -4 -25 -10 -25 -5 0 -10 7 -10 15 0 8 -6 15 -12 16 -10
0 11 13 30 18 1 1 2 -10 2 -24z m2590 18 c-1 -5 -7 -19 -15 -33 -10 -18 -14
-20 -15 -8 0 23 11 48 21 48 5 0 9 -3 9 -7z m290 -73 c0 -5 -4 -10 -10 -10 -5
0 -10 5 -10 10 0 6 5 10 10 10 6 0 10 -4 10 -10z m-3199 -15 l34 -16 -32 6
c-17 4 -33 2 -36 -2 -10 -15 25 -73 43 -73 10 0 23 -7 30 -15 7 -8 24 -13 41
-11 21 2 34 -2 43 -16 10 -14 15 -16 19 -6 4 10 6 9 6 -2 1 -17 35 -50 51 -50
6 0 10 -10 11 -22 0 -21 1 -22 8 -3 6 16 12 9 34 -39 15 -32 27 -65 27 -72 0
-8 4 -14 9 -14 15 0 23 -38 15 -73 -5 -25 -8 -28 -13 -14 -6 17 -8 16 -20 -7
-12 -21 -11 -27 3 -41 20 -21 12 -35 -20 -35 -20 0 -24 -4 -19 -19 7 -24 -24
-34 -49 -15 -28 20 -76 -1 -76 -35 -1 -64 -2 -71 -14 -71 -8 0 -16 9 -19 20
-3 11 -10 20 -17 20 -7 0 -14 -9 -17 -20 -8 -29 -23 -25 -23 7 0 25 -1 25 -19
9 -18 -16 -20 -16 -40 10 -21 27 -19 49 5 40 10 -4 11 0 3 20 -13 35 -3 47 24
29 33 -21 50 -6 32 29 -8 16 -15 32 -15 36 0 5 -15 32 -34 60 -19 29 -32 59
-29 66 7 19 20 18 32 -3 16 -30 25 -5 26 73 1 59 -2 77 -14 84 -14 7 -15 1
-12 -36 1 -25 0 -56 -4 -71 l-6 -26 -20 33 c-11 18 -21 41 -22 51 -1 11 -6 19
-13 19 -7 0 -12 18 -12 45 -1 25 -4 51 -8 57 -5 7 0 9 14 6 18 -5 23 -1 29 20
3 15 6 39 6 54 0 32 11 34 58 13z m359 -15 c0 -5 -4 -10 -10 -10 -5 0 -10 5
-10 10 0 6 5 10 10 10 6 0 10 -4 10 -10z m207 -28 c7 -15 12 -45 11 -67 0 -22
0 -44 2 -50 1 -5 2 -21 1 -34 -1 -20 -3 -21 -16 -11 -10 9 -15 9 -15 1 0 -6
-4 -11 -8 -11 -10 0 -8 85 3 119 6 18 5 22 -4 17 -9 -6 -11 3 -10 32 3 45 18
47 36 4z m1375 -24 c-9 -9 -12 -7 -12 12 0 19 3 21 12 12 9 -9 9 -15 0 -24z
m-2068 -9 c15 -14 -1 -22 -29 -15 -14 4 -25 13 -25 22 0 11 6 14 23 9 12 -4
26 -11 31 -16z m3091 10 c4 -6 -2 -13 -14 -16 -11 -3 -18 -9 -16 -14 3 -4 -4
-13 -15 -19 -20 -11 -21 -9 -18 17 2 16 8 27 16 26 6 -2 12 2 12 7 0 13 27 13
35 -1z m-625 -60 c-16 -28 -32 -24 -18 6 6 13 15 22 19 19 5 -3 4 -14 -1 -25z
m-2680 -22 c19 -10 25 -21 26 -50 2 -31 -1 -37 -20 -36 -11 0 -30 -1 -40 -3
-13 -2 -24 6 -32 21 -7 13 -18 27 -24 31 -9 6 -9 13 -1 29 13 24 52 28 91 8z
m3243 -33 c-4 -12 -8 -13 -14 -3 -9 15 -2 32 11 24 5 -3 6 -13 3 -21z m-2513
6 c0 -5 -4 -10 -9 -10 -6 0 -13 5 -16 10 -3 6 1 10 9 10 9 0 16 -4 16 -10z
m-846 -41 c-3 -5 0 -16 6 -24 16 -20 5 -48 -25 -62 -24 -10 -25 -9 -35 28 -12
45 -7 59 21 59 10 0 19 5 19 11 0 5 5 7 10 4 6 -4 8 -11 4 -16z m856 -21 c0
-5 -4 -8 -10 -8 -5 0 -10 10 -10 23 0 18 2 19 10 7 5 -8 10 -18 10 -22z m57
-13 c3 -33 2 -35 -16 -25 -23 12 -36 30 -22 30 5 0 13 9 16 21 9 27 17 18 22
-26z m320 -21 c-12 -13 -27 9 -26 39 l0 32 16 -32 c9 -18 14 -36 10 -39z
m-264 21 c1 -5 -6 -11 -15 -13 -11 -2 -18 3 -18 13 0 17 30 18 33 0z m667 -22
c0 -42 -7 -40 -20 6 -7 24 -6 31 6 31 10 0 14 -12 14 -37z m140 12 c0 -8 -4
-15 -10 -15 -5 0 -10 7 -10 15 0 8 5 15 10 15 6 0 10 -7 10 -15z m-747 -31
c19 -38 22 -58 8 -49 -11 6 -41 63 -41 77 0 19 16 5 33 -28z m884 -26 c-2 -13
-4 -3 -4 22 0 25 2 35 4 23 2 -13 2 -33 0 -45z m-132 -16 c6 -4 11 -27 12 -51
3 -38 1 -42 -13 -30 -24 20 -36 48 -29 69 7 21 14 24 30 12z m-135 -32 c4 -26
0 -40 -10 -40 -5 0 -10 17 -10 37 0 35 16 38 20 3z m270 -10 c0 -16 -4 -30
-10 -30 -11 0 -14 43 -3 53 11 12 13 8 13 -23z m607 8 c-3 -8 -6 -5 -6 6 -1
11 2 17 5 13 3 -3 4 -12 1 -19z m-1260 -40 c-3 -7 -5 -2 -5 12 0 14 2 19 5 13
2 -7 2 -19 0 -25z m273 -8 c0 -16 -4 -30 -9 -30 -5 0 -8 12 -6 28 4 34 4 32
10 32 3 0 5 -13 5 -30z m507 0 c-1 -22 -17 -28 -17 -7 0 12 9 27 16 27 2 0 2
-9 1 -20z m-1172 -20 c3 -5 1 -10 -4 -10 -6 0 -11 5 -11 10 0 6 2 10 4 10 3 0
8 -4 11 -10z m-932 -17 c-7 -2 -13 -11 -13 -19 0 -8 -4 -14 -10 -14 -12 0 -12
3 -4 24 3 9 14 16 23 15 10 0 11 -2 4 -6z m657 -243 c0 -5 -7 -7 -15 -4 -8 4
-15 8 -15 10 0 2 7 4 15 4 8 0 15 -4 15 -10z m193 -345 c-7 -19 2 -19 21 1 9
8 16 11 16 6 0 -21 -85 -59 -95 -42 -9 15 7 41 22 36 7 -3 16 1 19 9 4 8 10
13 15 10 4 -3 6 -12 2 -20z m-178 5 c3 -5 -1 -10 -9 -10 -9 0 -16 5 -16 10 0
6 4 10 9 10 6 0 13 -4 16 -10z m105 -36 c0 -9 -11 -14 -28 -14 -15 0 -32 -4
-37 -9 -6 -5 -23 -11 -39 -13 -34 -4 -49 21 -17 29 12 3 21 8 21 12 0 4 23 8
50 8 36 0 50 -3 50 -13z m-210 -99 c0 -8 -7 -15 -15 -15 -8 0 -15 7 -15 15 0
8 7 15 15 15 8 0 15 -7 15 -15z m30 5 c0 -5 -4 -10 -10 -10 -5 0 -10 5 -10 10
0 6 5 10 10 10 6 0 10 -4 10 -10z m-210 -158 c0 -10 -41 -35 -47 -28 -9 8 17
36 33 36 8 0 14 -3 14 -8z m341 -79 c12 -15 12 -16 -4 -10 -10 4 -23 7 -28 7
-5 0 -9 5 -9 10 0 16 26 12 41 -7z m-8 -168 c-3 -8 -8 -15 -12 -15 -3 0 -18
-11 -33 -25 -20 -18 -27 -21 -32 -10 -3 9 6 19 24 27 16 7 31 21 34 31 2 11 9
16 15 13 6 -4 8 -13 4 -21z m-93 -119 c0 -3 -4 -8 -10 -11 -5 -3 -10 -1 -10 4
0 6 5 11 10 11 6 0 10 -2 10 -4z m-103 -89 c-14 -32 -27 -35 -27 -7 0 11 7 20
15 20 8 0 15 5 15 12 0 6 2 9 5 6 3 -2 -1 -16 -8 -31z m-327 -106 c0 -11 -4
-23 -10 -26 -6 -4 -10 5 -10 19 0 14 5 26 10 26 6 0 10 -9 10 -19z m77 -358
c3 -8 1 -19 -6 -26 -8 -8 -11 -7 -11 5 0 9 -7 18 -15 22 -8 3 -15 10 -15 15 0
14 41 0 47 -16z m87 -57 c-6 -16 -24 -23 -24 -8 0 10 22 33 27 28 2 -2 1 -11
-3 -20z m2343 -146 c14 0 21 -4 18 -10 -7 -11 -74 -14 -99 -4 -27 10 -5 26 26
20 17 -3 41 -6 55 -6z m-597 -31 c0 -5 -4 -9 -10 -9 -5 0 -10 7 -10 16 0 8 5
12 10 9 6 -3 10 -10 10 -16z m-710 -109 c0 -5 -5 -10 -11 -10 -5 0 -7 5 -4 10
3 6 8 10 11 10 2 0 4 -4 4 -10z m140 -20 c0 -5 -4 -10 -10 -10 -5 0 -10 5 -10
10 0 6 5 10 10 10 6 0 10 -4 10 -10z m150 -74 c0 -32 -22 -83 -42 -96 -12 -8
-32 -25 -44 -37 -24 -26 -49 -31 -40 -8 3 9 0 15 -8 15 -8 0 -16 -8 -20 -17
-8 -25 -28 -55 -46 -70 -13 -11 -11 -13 10 -14 l25 -1 -27 -11 c-35 -14 -44
-37 -18 -44 12 -3 20 -14 20 -25 0 -15 5 -19 18 -15 31 9 37 9 56 8 18 -1 18
-2 1 -21 -10 -11 -31 -20 -46 -20 -18 0 -32 -7 -39 -20 -6 -11 -15 -18 -21
-15 -5 4 -9 3 -9 -2 0 -4 -11 -9 -25 -9 -14 -1 -25 2 -25 7 0 5 -4 9 -10 9 -5
0 -10 -7 -10 -15 0 -9 9 -15 21 -15 19 0 20 -2 8 -17 -8 -9 -13 -19 -11 -22 1
-3 -4 -6 -10 -6 -7 0 -14 12 -16 28 -4 30 -23 35 -46 11 -15 -14 -16 -14 -16
5 0 13 -12 26 -35 37 -28 13 -35 22 -35 44 0 15 -7 33 -15 40 -24 20 -19 57 6
56 12 -1 24 5 27 13 3 10 -2 13 -22 9 -32 -6 -36 21 -6 40 11 7 20 20 20 30 0
19 33 54 63 65 9 3 23 -1 32 -9 18 -18 20 -34 3 -34 -9 0 -9 -3 0 -12 10 -10
15 -10 20 -1 5 8 13 9 22 3 20 -13 33 -12 25 0 -3 6 3 10 14 10 14 0 21 -6 21
-20 0 -14 -6 -19 -22 -17 -26 2 -36 -26 -17 -49 11 -14 13 -14 21 0 5 9 15 16
22 16 8 0 13 6 13 13 -2 39 18 78 54 103 22 15 49 42 60 61 37 59 46 65 75 47
13 -9 24 -21 24 -28z m1926 -108 c4 -6 2 -14 -4 -16 -7 -2 -12 -11 -12 -20 0
-13 11 -17 51 -19 28 -1 60 2 71 8 15 8 27 5 54 -10 19 -12 44 -21 55 -21 32
0 59 -19 59 -42 0 -41 -42 -164 -80 -233 -106 -193 -316 -276 -593 -234 -69
10 -188 50 -214 71 -7 6 -13 7 -13 3 0 -14 -37 40 -64 92 -14 29 -26 58 -26
65 0 7 -6 24 -13 38 -18 34 -29 90 -18 90 5 0 14 -7 21 -15 7 -8 21 -15 32
-15 11 0 26 -7 34 -15 9 -8 33 -18 54 -21 23 -4 49 -17 65 -34 22 -23 33 -26
75 -24 l50 2 0 -33 c0 -19 5 -37 11 -40 7 -5 8 4 4 27 -3 18 -2 44 4 58 5 14
10 19 10 13 1 -18 21 -16 21 2 0 8 5 15 10 15 6 0 10 6 10 14 0 24 21 30 27 8
8 -30 31 -16 39 24 3 19 10 34 15 34 5 0 9 -4 9 -8 0 -11 67 -32 74 -24 3 3 6
12 6 19 0 11 -8 13 -32 7 -31 -6 -32 -6 -18 12 33 42 41 47 53 35 16 -16 27
-14 21 4 -4 10 0 15 10 15 9 0 21 11 26 25 11 28 20 31 38 13 9 -9 15 -8 27 8
21 28 13 39 -29 40 -20 1 -39 4 -43 7 -3 4 12 24 33 46 39 39 76 51 90 29z
m-136 -93 c0 -8 -4 -15 -10 -15 -5 0 -10 7 -10 15 0 8 5 15 10 15 6 0 10 -7
10 -15z m-180 -15 c0 -5 -2 -10 -4 -10 -3 0 -8 5 -11 10 -3 6 -1 10 4 10 6 0
11 -4 11 -10z m-1314 -76 c-4 -18 -11 -34 -17 -34 -5 0 -13 -10 -17 -21 -10
-26 -82 -36 -82 -11 0 10 7 13 21 9 35 -9 68 20 81 72 13 51 24 39 14 -15z
m1352 -11 c-2 -10 -10 -18 -18 -18 -8 0 -16 8 -18 18 -2 12 3 17 18 17 15 0
20 -5 18 -17z m-1561 -8 c-5 -13 -69 -13 -74 0 -2 7 13 11 37 10 22 0 38 -4
37 -10z m1543 -38 c0 -7 -12 -14 -27 -15 -27 -1 -27 -1 -9 13 24 18 36 19 36
2z m-1463 -59 c1 -52 -3 -65 -20 -80 -11 -10 -24 -18 -30 -18 -5 0 -7 -7 -3
-15 7 -20 -4 -19 -20 3 -12 15 -13 16 -14 0 0 -25 -64 -41 -157 -40 -46 0 -86
1 -90 1 -17 2 24 21 45 21 13 0 42 13 65 28 43 29 82 38 92 21 4 -5 10 -9 15
-9 13 0 23 38 13 52 -4 7 -8 25 -8 41 0 30 19 41 73 39 17 -1 32 3 32 8 0 6 1
10 3 10 1 0 3 -28 4 -62z m-331 27 c-7 -20 11 -19 22 1 6 10 12 12 16 6 3 -5
-1 -15 -9 -22 -8 -7 -15 -22 -16 -34 0 -11 -3 -16 -5 -9 -3 7 -11 10 -19 7
-18 -7 -31 16 -15 26 7 4 10 15 7 24 -4 10 -1 16 9 16 10 0 14 -6 10 -15z
m-53 -55 c-3 -11 -7 -20 -9 -20 -2 0 -4 9 -4 20 0 11 4 20 9 20 5 0 7 -9 4
-20z m-145 -30 c3 -7 0 -10 -6 -6 -6 3 -13 2 -17 -4 -4 -6 -11 -8 -16 -4 -6 4
-5 11 2 20 14 17 31 14 37 -6z m-123 -58 c-7 -7 -45 29 -45 41 0 6 11 0 25
-13 14 -13 23 -26 20 -28z m670 -52 c-3 -5 -10 -10 -16 -10 -5 0 -9 5 -9 10 0
6 7 10 16 10 8 0 12 -4 9 -10z m1125 -80 c8 -5 12 -12 9 -15 -8 -8 -39 5 -39
16 0 11 11 11 30 -1z m-1376 -373 c8 -13 8 -20 0 -25 -6 -4 -14 -16 -18 -27
-7 -19 -8 -18 -22 8 -26 48 12 89 40 44z m156 -23 c0 20 0 20 14 0 14 -18 15
-18 21 -1 8 18 25 24 25 7 0 -16 -40 -51 -50 -45 -6 4 -10 -3 -10 -14 0 -33
-28 -24 -39 12 -5 17 -10 26 -10 20 -1 -14 -31 -18 -31 -5 0 5 10 19 22 31
l21 23 18 -23 c17 -22 19 -22 19 -5z m-230 -24 c0 -5 -5 -10 -11 -10 -5 0 -7
5 -4 10 3 6 8 10 11 10 2 0 4 -4 4 -10z m326 -10 c8 0 14 -10 14 -26 0 -20 4
-25 16 -20 22 8 42 -20 36 -51 -4 -24 -5 -24 -19 -3 -8 11 -23 20 -34 20 -15
0 -19 7 -19 33 0 23 -3 28 -10 17 -14 -22 -23 -5 -15 27 4 15 10 22 12 16 3
-7 11 -13 19 -13z m-366 -65 c0 -8 -7 -15 -15 -15 -9 0 -12 6 -9 15 4 8 10 15
15 15 5 0 9 -7 9 -15z m-290 -25 c0 -5 -4 -10 -10 -10 -5 0 -10 5 -10 10 0 6
5 10 10 10 6 0 10 -4 10 -10z m254 -10 c6 0 19 -13 29 -29 15 -26 15 -30 1
-42 -27 -22 -32 -51 -18 -99 8 -25 14 -46 14 -47 0 -2 -9 -3 -20 -3 -16 0 -20
7 -20 34 0 19 -4 38 -10 41 -5 3 -10 16 -10 28 0 22 -1 22 -20 -3 -17 -21 -21
-23 -30 -10 -13 20 -13 57 2 66 7 5 8 3 3 -6 -6 -10 -4 -12 8 -7 10 3 17 2 17
-3 0 -6 5 -10 11 -10 10 0 8 20 -7 73 -4 11 0 17 10 17 9 0 16 6 17 13 0 10 2
10 6 0 2 -7 10 -13 17 -13z m-394 -30 c0 -21 16 -28 22 -9 2 7 9 5 17 -5 11
-14 11 -16 -3 -16 -17 0 -18 -5 -7 -34 5 -13 0 -26 -15 -41 -17 -17 -23 -34
-22 -64 0 -23 -2 -44 -5 -47 -12 -13 -29 10 -24 32 2 13 0 24 -4 24 -5 0 -9
-7 -9 -15 0 -8 -6 -15 -14 -15 -11 0 -14 10 -13 38 2 32 6 37 29 40 16 2 28
11 31 23 6 21 -12 26 -30 8 -15 -15 -45 -4 -62 23 -10 16 -10 23 -2 26 6 2 11
10 11 18 0 16 18 18 55 4 24 -9 26 -8 20 10 -5 14 -2 20 9 20 9 0 16 -9 16
-20z m700 -24 c0 -2 -7 -6 -15 -10 -8 -3 -15 -1 -15 4 0 6 7 10 15 10 8 0 15
-2 15 -4z m60 -46 c0 -11 -4 -20 -10 -20 -5 0 -10 9 -10 20 0 11 5 20 10 20 6
0 10 -9 10 -20z m110 -24 c0 -49 15 -68 48 -59 17 4 22 1 22 -15 0 -11 6 -23
13 -26 6 -3 2 -3 -10 0 -34 8 -29 -22 5 -32 15 -4 33 -6 40 -5 14 2 15 -8 3
-27 -9 -14 -61 -7 -61 9 0 5 -4 9 -10 9 -5 0 -10 -7 -10 -15 0 -8 7 -15 15
-15 8 0 15 -8 15 -18 0 -16 -6 -18 -37 -13 -35 6 -38 9 -43 46 -5 39 -6 39
-13 12 -4 -15 -5 -32 -2 -37 4 -6 1 -10 -4 -10 -6 0 -11 9 -11 20 0 25 -20 27
-21 3 -1 -10 -1 -21 0 -25 0 -5 -3 -8 -9 -8 -5 0 -10 7 -10 15 0 8 -2 15 -4
15 -2 0 -11 3 -20 6 -12 5 -16 0 -16 -20 0 -15 -7 -29 -15 -32 -8 -4 -13 -10
-10 -14 7 -11 -27 -38 -50 -40 -55 -6 -59 6 -10 38 42 27 46 44 6 29 -16 -6
-36 -7 -47 -2 -10 4 -25 9 -32 11 -21 4 -28 14 -15 22 12 7 12 36 2 47 -3 3
-14 -4 -24 -15 -31 -35 -50 -25 -46 23 1 9 -3 17 -8 17 -6 0 -11 -5 -11 -12 0
-8 -3 -9 -10 -2 -15 15 -1 54 17 47 11 -4 14 -1 11 13 -2 10 -9 18 -16 17 -6
-2 -9 3 -6 11 3 8 -3 16 -15 19 -19 5 -21 1 -21 -41 -1 -38 -5 -50 -25 -65
-27 -19 -35 -8 -10 13 11 9 13 23 9 50 -4 23 -2 40 5 44 6 4 11 16 11 27 0 21
10 25 26 9 8 -8 19 -7 39 0 23 9 30 7 41 -7 12 -17 14 -17 45 0 30 17 33 17
50 1 11 -10 19 -14 19 -10 0 4 5 4 12 0 8 -5 6 -11 -7 -20 -15 -11 -16 -14 -3
-19 8 -3 19 -5 24 -4 5 1 28 1 51 0 38 -1 43 -4 50 -28 3 -16 6 -36 5 -45 -1
-20 17 -25 19 -5 5 55 11 75 29 100 12 15 19 35 16 43 -3 8 -1 14 4 14 6 0 10
-20 10 -44z m136 -31 c-10 -16 -12 -26 -5 -30 7 -5 6 -11 -2 -21 -16 -19 -30
-18 -25 4 9 39 19 62 27 62 5 0 9 8 10 18 0 10 2 12 6 4 3 -7 -2 -24 -11 -37z
m402 9 l3 -29 -22 21 c-12 12 -18 27 -14 34 12 19 30 5 33 -26z m-1111 7 c7
-10 9 -22 6 -25 -6 -6 -32 23 -33 37 0 14 15 7 27 -12z m490 -3 c-3 -8 -6 -5
-6 6 -1 11 2 17 5 13 3 -3 4 -12 1 -19z m189 6 c-3 -9 -6 -21 -6 -27 0 -8 -3
-8 -10 -1 -12 12 -3 44 12 44 6 0 7 -7 4 -16z m-936 -8 c0 -11 -19 -15 -25 -6
-3 5 1 10 9 10 9 0 16 -2 16 -4z m238 -69 c2 -19 -1 -27 -12 -27 -11 0 -16 10
-16 31 0 38 24 35 28 -4z m827 -17 c3 -5 1 -10 -4 -10 -6 0 -11 5 -11 10 0 6
2 10 4 10 3 0 8 -4 11 -10z m-1083 -58 c-7 -2 -12 -11 -12 -20 0 -14 -2 -14
-9 -3 -13 20 -2 41 17 34 10 -4 12 -8 4 -11z m52 -36 c10 4 15 -10 20 -49 6
-47 10 -53 29 -53 16 1 23 -5 25 -24 9 -79 9 -100 1 -100 -5 0 -9 -7 -9 -16 0
-13 8 -15 40 -12 36 3 40 1 38 -17 -3 -17 -9 -20 -40 -17 -36 3 -52 -11 -25
-21 7 -3 5 -6 -5 -6 -10 -1 -18 -5 -18 -11 0 -16 -30 -12 -54 8 -18 14 -21 23
-15 55 6 35 4 40 -20 50 -14 6 -27 12 -29 13 -2 1 -5 22 -7 46 -2 23 -6 55 -9
71 -6 26 8 39 17 15 2 -7 8 -10 12 -6 4 4 0 14 -9 23 -17 18 -11 40 18 65 9 7
17 20 18 29 0 9 3 2 5 -16 3 -21 9 -30 17 -27z m-154 -18 c0 -5 -4 -8 -10 -8
-5 0 -10 10 -10 23 0 18 2 19 10 7 5 -8 10 -18 10 -22z m70 -8 c0 -10 -9 -24
-19 -29 -15 -9 -20 -7 -24 10 -5 17 -2 20 14 16 12 -3 19 0 19 9 0 8 2 14 5
14 3 0 5 -9 5 -20z m820 -21 c0 -6 -4 -7 -10 -4 -5 3 -10 11 -10 16 0 6 5 7
10 4 6 -3 10 -11 10 -16z m42 -1 c7 -18 -2 -39 -13 -32 -12 7 -12 44 0 44 5 0
11 -6 13 -12z m-555 -34 c13 -13 17 -13 24 -2 7 10 9 9 9 -4 0 -9 -6 -19 -12
-22 -7 -3 4 -4 25 -2 29 3 37 0 37 -14 0 -16 -16 -18 -104 -11 -4 1 -6 8 -2
16 3 8 1 15 -5 15 -6 0 -9 6 -6 14 3 8 1 17 -6 20 -7 2 -4 5 6 5 10 1 26 -6
34 -15z m640 -16 c-3 -8 -6 -5 -6 6 -1 11 2 17 5 13 3 -3 4 -12 1 -19z m-964
-30 c-3 -16 -9 -28 -14 -28 -11 0 -11 3 1 36 13 33 20 29 13 -8z m230 -95 c-7
-2 -19 -2 -25 0 -7 3 -2 5 12 5 14 0 19 -2 13 -5z m-383 -213 c0 -5 -5 -10
-11 -10 -5 0 -7 5 -4 10 3 6 8 10 11 10 2 0 4 -4 4 -10z m-233 -72 c-3 -8 -6
-5 -6 6 -1 11 2 17 5 13 3 -3 4 -12 1 -19z m763 12 c0 -5 -4 -10 -10 -10 -5 0
-10 5 -10 10 0 6 5 10 10 10 6 0 10 -4 10 -10z m26 -37 c-11 -11 -17 4 -9 23
7 18 8 18 11 1 2 -10 1 -21 -2 -24z m-556 7 c0 -5 -10 -10 -22 -10 -19 0 -20
2 -8 10 19 13 30 13 30 0z m30 -85 c0 -8 -4 -15 -10 -15 -5 0 -10 7 -10 15 0
8 5 15 10 15 6 0 10 -7 10 -15z m70 -40 c0 -8 -4 -15 -10 -15 -5 0 -10 7 -10
15 0 8 5 15 10 15 6 0 10 -7 10 -15z m576 -331 c-4 -12 -10 -14 -17 -7 -5 5
-7 17 -3 27 4 12 10 14 17 7 5 -5 7 -17 3 -27z m54 -125 c0 -6 -4 -7 -10 -4
-5 3 -10 11 -10 16 0 6 5 7 10 4 6 -3 10 -11 10 -16z"/>
<path d="M4195 5970 c3 -5 8 -10 11 -10 2 0 4 5 4 10 0 6 -5 10 -11 10 -5 0
-7 -4 -4 -10z"/>
<path d="M4200 5830 c0 -5 5 -10 11 -10 5 0 7 5 4 10 -3 6 -8 10 -11 10 -2 0
-4 -4 -4 -10z"/>
<path d="M4148 5764 c-10 -20 -13 -34 -7 -34 6 0 13 9 16 20 3 11 9 18 13 15
4 -3 10 1 13 9 12 31 -19 21 -35 -10z"/>
<path d="M4067 5746 c-4 -10 -1 -13 9 -9 7 3 14 9 14 14 0 14 -17 10 -23 -5z"/>
<path d="M1572 5717 c-9 -11 -10 -17 -2 -22 15 -9 23 -1 18 21 -3 15 -4 16
-16 1z"/>
<path d="M1725 5650 c3 -5 8 -10 11 -10 2 0 4 5 4 10 0 6 -5 10 -11 10 -5 0
-7 -4 -4 -10z"/>
<path d="M1803 5553 c0 -16 -3 -36 -7 -45 -6 -14 -3 -18 12 -18 28 0 32 10 25
53 -7 43 -30 50 -30 10z"/>
<path d="M1652 5479 c2 -7 10 -15 17 -17 8 -3 12 1 9 9 -2 7 -10 15 -17 17 -8
3 -12 -1 -9 -9z"/>
<path d="M1691 5454 c0 -11 3 -14 6 -6 3 7 2 16 -1 19 -3 4 -6 -2 -5 -13z"/>
<path d="M2390 2838 c0 -19 2 -20 10 -8 8 12 10 12 10 1 0 -9 8 -12 26 -8 20
3 28 0 31 -14 3 -11 11 -19 18 -19 7 0 15 -6 17 -12 3 -8 12 -1 22 15 10 15
25 27 32 27 8 0 14 6 14 14 0 16 -16 16 -44 -1 -15 -8 -27 -7 -53 8 -48 27
-83 25 -83 -3z"/>
<path d="M2570 2799 c0 -5 5 -7 10 -4 6 3 10 8 10 11 0 2 -4 4 -10 4 -5 0 -10
-5 -10 -11z"/>
<path d="M2445 2770 c3 -5 8 -10 11 -10 2 0 4 5 4 10 0 6 -5 10 -11 10 -5 0
-7 -4 -4 -10z"/>
<path d="M4515 2730 c3 -5 8 -10 11 -10 2 0 4 5 4 10 0 6 -5 10 -11 10 -5 0
-7 -4 -4 -10z"/>
<path d="M4346 2665 c-3 -10 3 -17 20 -21 33 -8 44 4 20 22 -25 18 -32 18 -40
-1z"/>
<path d="M2736 1807 c3 -10 9 -15 12 -12 3 3 0 11 -7 18 -10 9 -11 8 -5 -6z"/>
<path d="M2883 1735 c-3 -9 -3 -18 0 -21 9 -9 27 6 27 22 0 19 -19 18 -27 -1z"/>
<path d="M3071 1734 c0 -11 3 -14 6 -6 3 7 2 16 -1 19 -3 4 -6 -2 -5 -13z"/>
<path d="M2233 1543 c-7 -3 -13 -19 -13 -36 0 -29 1 -30 16 -15 18 18 15 57
-3 51z"/>
<path d="M3466 6481 c-4 -5 -2 -12 3 -15 5 -4 12 -2 15 3 4 5 2 12 -3 15 -5 4
-12 2 -15 -3z"/>
<path d="M4360 6430 c0 -5 5 -10 11 -10 5 0 7 5 4 10 -3 6 -8 10 -11 10 -2 0
-4 -4 -4 -10z"/>
<path d="M3150 6415 c0 -8 -9 -15 -20 -15 -11 0 -20 -7 -20 -15 0 -23 13 -18
45 15 22 23 25 30 12 30 -9 0 -17 -7 -17 -15z"/>
<path d="M3010 6379 c0 -5 5 -7 10 -4 6 3 10 8 10 11 0 2 -4 4 -10 4 -5 0 -10
-5 -10 -11z"/>
<path d="M2962 6327 c-21 -22 -20 -37 0 -37 9 0 31 50 25 56 -2 2 -13 -7 -25
-19z"/>
<path d="M3067 6344 c-4 -4 -7 -14 -7 -23 0 -11 3 -12 11 -4 6 6 10 16 7 23
-2 6 -7 8 -11 4z"/>
<path d="M2189 6307 c-9 -7 -14 -18 -12 -24 3 -7 -2 -13 -11 -13 -9 0 -16 -7
-16 -15 0 -29 36 -11 42 20 1 11 7 23 13 27 5 4 7 9 5 12 -3 2 -12 -1 -21 -7z"/>
<path d="M4907 5996 c-19 -28 -23 -86 -7 -86 6 0 10 8 11 18 1 9 2 26 3 37 2
30 30 25 34 -6 2 -21 8 -26 22 -22 24 6 34 71 10 71 -8 0 -24 3 -36 7 -15 5
-25 0 -37 -19z"/>
<path d="M5025 6002 c-14 -9 -19 -72 -6 -72 5 0 19 13 30 28 15 22 17 32 9 40
-14 14 -19 14 -33 4z"/>
<path d="M4879 5843 c0 -15 0 -39 0 -53 -1 -38 12 -84 27 -93 7 -4 10 -15 7
-24 -5 -12 -3 -14 6 -8 10 5 11 21 6 54 -3 25 -10 68 -13 95 -8 54 -32 77 -33
29z"/>
<path d="M4537 5542 c-5 -20 8 -51 17 -41 3 3 7 16 8 29 4 28 -17 38 -25 12z"/>
<path d="M4396 5382 c-2 -4 -1 -14 5 -22 7 -12 9 -10 9 8 0 23 -5 28 -14 14z"/>
<path d="M1280 5320 c-9 -16 -8 -20 5 -20 8 0 15 9 15 20 0 11 -2 20 -5 20 -2
0 -9 -9 -15 -20z"/>
<path d="M4650 5296 c0 -20 4 -35 9 -32 10 6 8 52 -3 63 -3 3 -6 -10 -6 -31z"/>
<path d="M1336 5271 c-3 -5 1 -11 9 -15 8 -3 15 -15 15 -26 0 -11 8 -23 18
-27 9 -3 26 -17 37 -30 14 -16 26 -22 38 -18 9 4 17 10 17 14 0 12 -37 47 -74
70 -20 13 -36 27 -36 32 0 12 -17 12 -24 0z"/>
<path d="M4770 5244 c0 -8 5 -12 10 -9 6 3 10 10 10 16 0 5 -4 9 -10 9 -5 0
-10 -7 -10 -16z"/>
<path d="M4634 5229 c-24 -31 -37 -80 -25 -92 8 -8 11 -6 11 11 0 25 27 30 36
7 13 -32 34 -16 34 26 0 35 -2 40 -19 34 -13 -4 -20 -1 -23 11 -2 14 -5 15
-14 3z"/>
<path d="M4761 5194 c0 -11 3 -14 6 -6 3 7 2 16 -1 19 -3 4 -6 -2 -5 -13z"/>
<path d="M4967 5187 c-11 -29 -9 -43 4 -30 6 6 9 19 7 29 -3 18 -4 18 -11 1z"/>
<path d="M5066 5183 c-21 -6 -86 -70 -86 -86 0 -20 77 1 104 28 39 39 29 70
-18 58z"/>
<path d="M1181 5163 c16 -12 23 -12 34 -3 12 10 15 9 15 -3 0 -14 28 -23 104
-33 15 -2 35 -9 42 -15 19 -16 39 3 30 26 -5 14 -9 15 -21 5 -12 -10 -15 -9
-15 4 0 18 -15 21 -26 5 -3 -6 -17 -8 -33 -4 -14 4 -33 8 -41 8 -8 0 -21 6
-28 13 -7 8 -28 13 -47 12 -33 -1 -34 -2 -14 -15z"/>
<path d="M4953 5125 c-8 -22 6 -33 17 -15 13 20 12 30 0 30 -6 0 -13 -7 -17
-15z"/>
<path d="M1415 5110 c-8 -13 -1 -24 14 -19 6 3 7 10 2 18 -6 10 -10 10 -16 1z"/>
<path d="M1465 5110 c4 -6 11 -8 16 -5 14 9 11 15 -7 15 -8 0 -12 -5 -9 -10z"/>
<path d="M5125 5090 c-3 -5 1 -10 9 -10 8 0 18 5 21 10 3 6 -1 10 -9 10 -8 0
-18 -4 -21 -10z"/>
<path d="M5038 5057 c-52 -24 -70 -47 -37 -47 18 0 20 -4 15 -25 -6 -22 -1
-27 46 -50 54 -26 88 -32 88 -15 0 6 -4 10 -10 10 -5 0 -10 7 -10 15 0 9 -6
12 -16 8 -12 -4 -15 -1 -12 13 2 14 12 19 33 19 19 0 29 5 28 13 -2 6 2 12 7
12 6 0 10 -6 10 -14 0 -25 28 -26 32 -1 4 19 -1 26 -23 34 -21 7 -31 6 -39 -4
-6 -8 -18 -11 -26 -8 -8 3 -14 0 -14 -6 0 -8 -4 -8 -14 1 -12 11 -12 15 1 30
14 16 11 39 -5 37 -4 0 -28 -10 -54 -22z"/>
<path d="M1044 5054 c3 -9 6 -18 6 -20 0 -2 9 -4 20 -4 23 0 26 10 8 28 -18
18 -41 15 -34 -4z"/>
<path d="M5275 5010 c3 -5 8 -10 11 -10 2 0 4 5 4 10 0 6 -5 10 -11 10 -5 0
-7 -4 -4 -10z"/>
<path d="M5257 4964 c-7 -7 14 -44 26 -44 12 0 4 43 -9 47 -5 2 -13 1 -17 -3z"/>
<path d="M1558 4935 c-3 -3 -34 -7 -69 -10 -37 -2 -65 -9 -68 -16 -2 -6 -12
-20 -23 -31 -25 -25 -16 -36 29 -33 50 4 124 44 134 73 8 22 7 27 -3 17z"/>
<path d="M908 4868 c-1 -24 -2 -69 -2 -101 -1 -39 -6 -61 -16 -67 -12 -7 -12
-13 -1 -33 15 -29 6 -71 -14 -63 -8 3 -19 -2 -25 -10 -7 -8 -18 -14 -24 -14
-6 0 -23 -11 -38 -25 -15 -14 -31 -25 -36 -25 -12 0 -23 -40 -15 -53 3 -5 10
-4 16 2 6 6 19 11 29 11 10 0 21 7 24 15 4 8 15 15 25 15 10 0 28 9 38 19 19
19 20 19 37 0 21 -23 34 -24 34 -4 0 9 7 18 15 21 22 9 18 24 -5 24 -11 0 -20
3 -20 8 1 16 40 53 50 47 19 -12 68 15 74 41 7 28 36 33 36 7 0 -16 2 -16 11
-3 8 12 9 10 5 -10 -3 -14 -6 -33 -6 -42 0 -10 -7 -18 -15 -18 -8 0 -15 -6
-15 -14 0 -25 54 -13 58 13 2 12 8 19 13 16 12 -8 49 13 49 29 0 18 33 46 53
46 9 0 17 2 17 5 0 13 -46 49 -67 51 -41 5 -62 15 -68 34 -11 34 -59 36 -68 2
-3 -10 -5 -5 -6 10 -1 36 -10 39 -54 18 -30 -15 -37 -16 -37 -4 0 8 7 17 15
20 23 9 18 30 -11 53 -41 32 -54 27 -56 -21z m129 -119 c-9 -6 -17 -19 -17
-29 0 -11 -7 -20 -15 -20 -29 0 -9 52 25 62 22 8 27 -2 7 -13z m171 -46 c-12
-15 -38 -17 -38 -4 0 5 7 17 16 26 13 13 19 14 25 4 4 -8 3 -19 -3 -26z"/>
<path d="M1230 4900 c0 -5 5 -10 11 -10 5 0 7 5 4 10 -3 6 -8 10 -11 10 -2 0
-4 -4 -4 -10z"/>
<path d="M1281 4894 c0 -11 3 -14 6 -6 3 7 2 16 -1 19 -3 4 -6 -2 -5 -13z"/>
<path d="M1300 4899 c0 -5 5 -7 10 -4 6 3 10 8 10 11 0 2 -4 4 -10 4 -5 0 -10
-5 -10 -11z"/>
<path d="M5165 4850 c3 -5 11 -10 16 -10 6 0 7 5 4 10 -3 6 -11 10 -16 10 -6
0 -7 -4 -4 -10z"/>
<path d="M1196 4622 c-7 -6 13 -32 24 -32 4 0 10 6 13 14 6 14 -26 29 -37 18z"/>
<path d="M1140 4596 c-6 -8 -10 -24 -8 -35 3 -20 4 -20 36 6 26 19 30 28 20
34 -19 13 -34 11 -48 -5z"/>
<path d="M1270 4501 c0 -6 5 -13 10 -16 6 -3 10 1 10 9 0 9 -4 16 -10 16 -5 0
-10 -4 -10 -9z"/>
<path d="M1215 4460 c-3 -5 1 -10 10 -10 9 0 13 5 10 10 -3 6 -8 10 -10 10 -2
0 -7 -4 -10 -10z"/>
<path d="M1032 4453 c-6 -2 -10 -9 -6 -14 3 -5 0 -9 -5 -9 -6 0 -10 -3 -10 -7
3 -18 -1 -36 -7 -30 -7 7 -19 -4 -58 -55 -22 -30 -25 -38 -12 -38 9 0 16 5 16
11 0 7 10 9 25 7 17 -4 25 -1 25 8 0 8 8 22 18 33 38 41 72 84 72 92 0 9 -36
11 -58 2z"/>
<path d="M1600 4451 c0 -6 5 -13 10 -16 6 -3 10 1 10 9 0 9 -4 16 -10 16 -5 0
-10 -4 -10 -9z"/>
<path d="M840 4330 c0 -5 5 -10 10 -10 6 0 10 5 10 10 0 6 -4 10 -10 10 -5 0
-10 -4 -10 -10z"/>
<path d="M1290 4319 c0 -20 -24 -26 -35 -9 -11 17 -30 -11 -30 -44 0 -25 4
-31 21 -31 11 0 28 -6 37 -14 15 -12 17 -9 17 29 0 25 7 51 15 60 14 16 14 18
-5 23 -15 4 -20 0 -20 -14z m-3 -45 c-3 -3 -12 -4 -19 -1 -8 3 -5 6 6 6 11 1
17 -2 13 -5z"/>
<path d="M1336 4298 c3 -4 14 -8 24 -8 10 0 21 4 24 8 3 5 -8 9 -24 9 -16 0
-27 -4 -24 -9z"/>
<path d="M5410 4295 c7 -9 15 -13 17 -11 7 7 -7 26 -19 26 -6 0 -6 -6 2 -15z"/>
<path d="M912 4241 c-2 -46 -1 -48 22 -48 17 0 23 4 19 13 -3 8 0 14 6 14 18
0 13 18 -14 45 -14 14 -27 25 -28 25 -1 0 -3 -22 -5 -49z"/>
<path d="M1521 4254 c0 -11 3 -14 6 -6 3 7 2 16 -1 19 -3 4 -6 -2 -5 -13z"/>
<path d="M816 4231 c-4 -7 -5 -15 -2 -18 9 -9 19 4 14 18 -4 11 -6 11 -12 0z"/>
<path d="M5240 4114 c0 -3 5 -14 10 -25 7 -13 7 -25 1 -38 -8 -14 -7 -22 4
-31 8 -7 15 -19 15 -26 0 -8 4 -14 9 -14 5 0 11 -9 14 -20 4 -14 0 -20 -12
-20 -17 0 -41 37 -41 64 0 16 -27 29 -41 20 -8 -4 -6 -92 1 -101 2 -2 3 -7 4
-12 0 -5 4 -13 9 -17 4 -4 7 -17 7 -30 0 -12 8 -25 17 -28 14 -6 15 -9 4 -15
-9 -6 -10 -11 -2 -15 6 -4 11 -24 11 -45 0 -38 23 -72 38 -57 4 4 6 50 5 101
-3 85 -1 93 17 98 23 6 38 36 22 46 -6 3 -13 20 -17 36 -4 17 -10 39 -15 50
-4 11 -13 35 -20 53 -7 17 -19 32 -26 32 -8 0 -14 -3 -14 -6z"/>
<path d="M1440 3930 c0 -5 7 -7 15 -4 8 4 15 8 15 10 0 2 -7 4 -15 4 -8 0 -15
-4 -15 -10z"/>
<path d="M922 3580 c-12 -5 -25 -17 -29 -26 -14 -38 69 -286 98 -292 16 -3 28
27 50 128 7 30 21 63 32 73 44 39 15 92 -64 116 -43 13 -56 13 -87 1z"/>
<path d="M5605 3375 c-22 -8 -41 -15 -42 -15 -2 0 -12 -20 -23 -44 -20 -41
-20 -46 -6 -87 9 -24 16 -56 16 -70 0 -34 22 -62 45 -58 25 5 63 80 76 148 19
101 21 131 11 131 -6 0 -16 2 -24 5 -7 2 -31 -2 -53 -10z"/>
<path d="M1285 3211 c-16 -4 -40 -13 -52 -19 -12 -7 -38 -12 -57 -12 -30 0
-37 -4 -42 -25 -3 -14 -9 -25 -13 -25 -3 0 -21 -13 -40 -29 -32 -26 -34 -32
-37 -97 -2 -38 -4 -87 -5 -109 -4 -82 7 -123 45 -160 27 -26 45 -35 69 -35
l33 0 -3 55 c-2 36 2 66 12 85 8 16 15 36 15 45 0 10 18 37 40 62 22 25 40 51
40 58 0 6 14 24 30 38 23 21 30 36 30 65 0 43 -18 112 -28 111 -4 -1 -20 -4
-37 -8z"/>
<path d="M1963 3125 c-3 -9 -3 -18 0 -21 9 -9 27 6 27 22 0 19 -19 18 -27 -1z"/>
<path d="M1918 3123 c7 -3 16 -2 19 1 4 3 -2 6 -13 5 -11 0 -14 -3 -6 -6z"/>
<path d="M5315 2889 c8 -84 15 -109 29 -109 11 0 38 -42 40 -62 1 -3 4 -10 9
-14 4 -4 7 -29 7 -56 0 -26 5 -48 10 -48 6 0 10 -7 10 -17 0 -14 2 -14 20 2
13 11 18 25 14 37 -6 20 12 26 19 6 2 -7 8 -10 12 -6 4 4 2 14 -5 23 -10 12
-10 25 -1 59 20 82 15 111 -24 137 -19 13 -35 27 -35 30 0 16 -59 68 -84 75
l-27 6 6 -63z"/>
<path d="M1190 2628 c0 -12 5 -37 12 -55 9 -24 18 -33 35 -33 30 0 30 29 1 75
-26 39 -48 46 -48 13z"/>
<path d="M3205 2540 c3 -5 8 -10 11 -10 2 0 4 5 4 10 0 6 -5 10 -11 10 -5 0
-7 -4 -4 -10z"/>
<path d="M3160 2495 c0 -8 5 -15 10 -15 6 0 10 7 10 15 0 8 -4 15 -10 15 -5 0
-10 -7 -10 -15z"/>
<path d="M1850 2315 c0 -14 -4 -25 -10 -25 -5 0 -10 -11 -10 -24 0 -13 -7 -42
-15 -65 -8 -22 -12 -41 -8 -41 3 0 0 -6 -6 -14 -6 -7 -9 -21 -5 -30 3 -9 1
-16 -4 -16 -6 0 -13 8 -15 18 -3 9 -3 -3 0 -27 4 -32 3 -42 -5 -37 -7 4 -12 3
-12 -2 0 -6 6 -12 14 -15 9 -3 12 -15 9 -31 -3 -14 -1 -26 4 -26 5 0 7 -25 5
-55 -3 -42 -1 -55 9 -55 11 0 11 -2 -1 -10 -12 -8 -12 -10 3 -16 23 -8 21 -21
-4 -27 -12 -3 -18 -10 -15 -16 4 -5 1 -13 -5 -17 -8 -4 -8 -8 0 -13 6 -4 13
-25 16 -46 8 -52 24 -92 40 -98 6 -3 15 -24 19 -46 3 -23 10 -41 15 -41 5 0 3
27 -4 59 -10 50 -10 58 1 54 10 -4 14 5 14 33 0 31 3 36 11 24 9 -12 10 -11 6
8 -3 12 -1 22 4 22 5 0 9 4 9 10 0 5 -7 7 -16 3 -13 -5 -15 -2 -7 13 5 10 9
26 8 34 -1 8 3 23 8 34 8 17 18 129 18 204 0 18 5 30 10 27 5 -4 9 -1 9 4 0 6
-4 11 -8 11 -5 0 -8 27 -6 59 2 50 -1 60 -18 68 -19 8 -19 9 7 35 18 18 25 34
22 50 -4 20 -4 20 -6 -4 0 -16 -6 -28 -12 -28 -6 0 -8 7 -5 16 4 11 -1 18 -14
21 -11 3 -20 14 -20 24 0 11 -7 19 -15 19 -9 0 -15 -9 -15 -25z"/>
<path d="M1693 2251 c2 -38 5 -47 13 -38 13 13 7 87 -6 87 -5 0 -8 -22 -7 -49z"/>
<path d="M2580 2210 c0 -5 5 -10 10 -10 6 0 10 5 10 10 0 6 -4 10 -10 10 -5 0
-10 -4 -10 -10z"/>
<path d="M1946 2123 c-6 -14 -5 -15 5 -6 7 7 10 15 7 18 -3 3 -9 -2 -12 -12z"/>
<path d="M3420 2130 c0 -5 5 -10 10 -10 6 0 10 5 10 10 0 6 -4 10 -10 10 -5 0
-10 -4 -10 -10z"/>
<path d="M1320 2113 c0 -17 15 -24 34 -17 25 10 19 29 -9 29 -14 0 -25 -5 -25
-12z"/>
<path d="M2237 2036 c-4 -10 -5 -21 -2 -24 9 -9 17 6 13 25 -3 17 -4 17 -11
-1z"/>
<path d="M4269 1523 c-28 -7 -30 -42 -4 -59 27 -18 65 -11 65 12 0 8 13 17 30
21 55 11 28 34 -38 32 -20 -1 -44 -3 -53 -6z"/>
<path d="M1874 1513 c3 -6 0 -13 -6 -16 -7 -2 -10 -8 -5 -12 4 -5 13 -3 19 3
9 9 9 15 -1 25 -9 8 -12 8 -7 0z"/>
<path d="M3740 1450 c0 -5 5 -10 10 -10 6 0 10 5 10 10 0 6 -4 10 -10 10 -5 0
-10 -4 -10 -10z"/>
<path d="M1900 1437 c0 -2 7 -17 15 -34 20 -39 51 -68 60 -54 3 6 1 11 -4 11
-6 0 -11 7 -11 15 0 8 -7 15 -15 15 -8 0 -15 5 -15 11 0 6 -7 17 -15 25 -8 9
-15 14 -15 11z"/>
<path d="M3975 1430 c-3 -5 3 -10 14 -10 12 0 21 5 21 10 0 6 -6 10 -14 10 -8
0 -18 -4 -21 -10z"/>
<path d="M1690 1370 c0 -11 2 -20 4 -20 2 0 6 9 9 20 3 11 1 20 -4 20 -5 0 -9
-9 -9 -20z"/>
<path d="M2897 1354 c-4 -4 -2 -13 5 -21 6 -7 8 -16 4 -20 -3 -3 -6 -1 -6 5 0
17 -27 15 -33 -2 -3 -7 -4 -25 -3 -40 2 -14 -1 -26 -5 -26 -5 0 -9 -9 -9 -20
0 -28 30 -38 46 -15 12 16 14 16 38 -10 19 -20 30 -25 43 -19 16 7 16 8 -4 11
-15 3 -20 9 -16 19 4 12 8 13 13 3 15 -23 31 27 22 68 l-8 38 -8 -37 c-7 -41
-16 -47 -36 -23 -9 11 -9 15 -1 15 7 0 10 10 7 25 -3 14 0 25 5 25 6 0 7 5 4
10 -5 8 -11 7 -21 -1 -12 -10 -14 -10 -12 1 3 14 -15 24 -25 14z"/>
<path d="M1660 1334 c0 -15 22 -44 31 -39 18 12 10 45 -11 45 -11 0 -20 -3
-20 -6z"/>
<path d="M1450 1260 c0 -13 5 -18 14 -14 8 3 12 12 9 20 -8 21 -23 17 -23 -6z"/>
<path d="M1676 1265 c-3 -8 -1 -15 4 -15 6 0 10 7 10 15 0 8 -2 15 -4 15 -2 0
-6 -7 -10 -15z"/>
<path d="M3206 1234 c-3 -9 -6 -25 -6 -37 -1 -20 -1 -21 -11 -4 -9 16 -19 18
-60 12 -31 -4 -55 -3 -63 4 -10 8 -18 1 -34 -30 -23 -42 -22 -59 4 -59 8 0 14
-6 14 -12 1 -20 71 -61 83 -49 6 6 17 7 27 1 21 -11 57 -8 92 10 22 10 30 10
43 0 17 -14 69 -5 60 10 -3 6 -1 10 4 10 6 0 11 -9 11 -20 0 -31 30 -22 43 13
4 10 15 17 24 16 34 -3 43 1 43 21 0 26 45 28 54 3 6 -15 8 -15 16 -3 13 21
13 23 -11 49 -15 16 -30 22 -54 20 -18 -2 -40 3 -49 10 -10 8 -16 9 -16 3 0
-7 -13 -9 -32 -5 -82 13 -110 15 -121 4 -6 -6 -22 -11 -35 -11 -22 0 -24 3
-18 30 6 32 2 40 -8 14z m-136 -44 c0 -5 -4 -10 -10 -10 -5 0 -10 5 -10 10 0
6 5 10 10 10 6 0 10 -4 10 -10z m52 -72 c-11 -11 -32 -3 -32 13 0 5 7 9 15 9
8 0 16 10 16 23 2 17 3 15 6 -7 3 -16 0 -33 -5 -38z"/>
<path d="M1480 1155 c0 -15 6 -25 15 -25 10 0 14 9 13 25 -1 14 -8 25 -15 25
-7 0 -13 -11 -13 -25z"/>
<path d="M1527 1133 c-12 -11 -8 -47 7 -68 7 -11 14 -24 14 -28 2 -15 31 -37
36 -28 4 5 1 11 -5 13 -9 3 -9 9 0 25 16 31 14 42 -9 36 -15 -4 -20 0 -20 13
0 24 -14 46 -23 37z"/>
<path d="M1681 1093 c-1 -34 12 -45 23 -18 3 8 1 15 -4 15 -5 0 -11 8 -13 18
-3 9 -5 2 -6 -15z"/>
<path d="M1216 999 c-31 -33 -56 -66 -56 -73 0 -8 -7 -19 -15 -26 -8 -7 -15
-23 -15 -35 0 -12 -7 -28 -15 -35 -8 -7 -15 -18 -15 -24 0 -30 -106 -163 -239
-301 -43 -44 -101 -109 -131 -145 -82 -100 -169 -180 -230 -210 -98 -49 -255
-132 -265 -141 -5 -5 275 -9 653 -9 364 0 662 4 662 8 0 10 -26 69 -41 92 -18
29 -88 179 -94 200 -9 38 -38 110 -44 110 -4 0 -13 19 -20 43 -7 23 -17 52
-22 65 -5 13 -9 35 -9 50 0 16 -4 32 -9 38 -35 39 -51 190 -32 305 22 126 23
149 8 149 -8 0 -40 -27 -71 -61z"/>
<path d="M1660 915 c0 -8 4 -15 10 -15 5 0 7 7 4 15 -4 8 -8 15 -10 15 -2 0
-4 -7 -4 -15z"/>
<path d="M1610 897 c1 -7 6 -22 14 -35 10 -19 15 -21 23 -10 9 10 6 18 -13 35
-13 12 -24 16 -24 10z"/>
<path d="M2726 752 c-5 -18 -5 -36 -2 -39 7 -7 19 43 13 59 -2 7 -7 -2 -11
-20z"/>
<path d="M2860 600 c0 -5 5 -10 10 -10 6 0 10 5 10 10 0 6 -4 10 -10 10 -5 0
-10 -4 -10 -10z"/>
<path d="M4371 327 c-7 -18 -9 -218 -3 -304 2 -22 7 -23 71 -23 81 0 101 6
101 29 -1 23 -28 56 -48 56 -9 0 -17 6 -16 13 1 6 2 19 3 27 0 8 10 15 20 15
10 0 21 7 25 15 8 21 20 19 31 -7 6 -13 18 -22 29 -21 15 1 17 -4 11 -33 -6
-32 8 -49 18 -21 3 9 8 9 18 -2 11 -11 11 -14 1 -18 -10 -4 -10 -8 -1 -20 10
-12 10 -16 -2 -24 -9 -6 11 -9 59 -9 49 0 72 4 72 12 0 9 3 9 12 0 16 -16 51
-16 45 1 -2 6 -9 11 -16 10 -17 -4 -41 40 -34 65 3 12 9 22 14 22 5 0 6 -7 3
-15 -4 -8 -1 -15 5 -15 6 0 21 -10 33 -22 14 -14 23 -18 26 -10 2 7 10 12 18
12 11 0 11 -5 2 -25 -12 -28 -2 -48 12 -25 7 10 10 11 10 3 0 -10 26 -13 95
-13 77 0 95 3 95 15 0 14 -38 41 -52 37 -3 -1 -12 5 -18 13 -7 8 -17 15 -23
15 -11 0 -83 31 -130 57 -15 8 -35 12 -43 9 -8 -3 -14 1 -14 9 0 23 -18 17
-22 -7 -2 -12 -10 -23 -18 -25 -12 -4 -12 -3 -2 5 19 13 11 55 -10 58 -14 2
-18 -5 -18 -27 0 -16 -5 -29 -11 -29 -7 0 -9 -10 -7 -24 4 -20 -1 -27 -24 -37
-16 -6 -31 -9 -35 -5 -3 3 1 6 10 6 21 0 22 19 1 27 -8 3 -13 12 -10 20 3 8 2
12 -3 9 -11 -7 -19 12 -16 41 1 18 -1 20 -12 11 -7 -6 -14 -9 -16 -7 -1 2 -11
21 -21 42 -16 30 -25 37 -43 35 -13 -2 -23 -7 -22 -12 0 -5 -5 -13 -13 -17
-10 -7 -9 -9 5 -9 10 0 15 -5 12 -10 -9 -14 -35 7 -35 26 0 8 -7 14 -15 14 -8
0 -15 7 -15 15 0 8 -7 15 -15 15 -13 0 -15 8 -10 38 5 34 4 35 -7 12 l-12 -25
-4 28 c-4 33 -29 36 -41 4z m127 -292 c-3 -3 -9 2 -12 12 -6 14 -5 15 5 6 7
-7 10 -15 7 -18z m252 0 c0 -14 -4 -25 -10 -25 -5 0 -10 11 -10 25 0 14 5 25
10 25 6 0 10 -11 10 -25z"/>
<path d="M4490 291 c0 -11 5 -23 10 -26 6 -4 10 5 10 19 0 14 -4 26 -10 26 -5
0 -10 -9 -10 -19z"/>
<path d="M4067 289 c-11 -6 -25 -25 -33 -43 -23 -50 -55 -99 -78 -121 -12 -11
-32 -36 -46 -55 -13 -19 -34 -43 -45 -52 -20 -17 -19 -17 15 -17 24 -1 42 7
55 22 39 42 85 105 85 115 0 6 4 12 8 14 14 5 82 117 82 133 0 17 -17 19 -43
4z"/>
<path d="M4514 115 c-10 -8 -14 -15 -8 -15 6 0 17 7 24 15 16 19 9 19 -16 0z"/>
</g>
</svg>
